<svg width="auto" height="100%" viewBox="0 0 264 50" fill="none" xmlns="http://www.w3.org/2000/svg">
<path d="M80.2225 15.8316C79.8854 15.8316 79.5484 15.8316 79.2113 15.7642C76.9192 15.4272 74.6271 15.2923 72.3351 15.4272C71.5261 15.4946 70.7171 15.562 69.9082 15.6968C68.1554 15.8991 66.6723 17.2473 66.3352 19.0001C65.9981 20.2136 65.8633 21.4944 65.8633 22.7753C65.8633 24.6629 65.8633 26.4831 65.9981 28.3707C66.0656 29.3145 66.2678 30.1909 66.5374 31.0672C67.0093 32.6852 68.425 33.8986 70.1778 34.0335C72.807 34.4379 75.5035 34.4379 78.1327 34.1009C78.672 34.0335 79.1439 33.966 79.6158 33.8986C79.8854 33.8986 80.0877 33.8986 80.3573 33.8986C80.3573 34.1009 80.3573 34.3031 80.3573 34.5054C80.3573 35.8536 80.3573 37.1345 80.3573 38.4828C80.3573 39.1569 80.3573 39.2243 79.6832 39.2918C78.4023 39.494 77.0541 39.6962 75.7732 39.7637C74.1552 39.8311 72.4699 39.8311 70.852 39.7637C69.1666 39.7637 67.4138 39.494 65.7959 39.0221C63.2342 38.2806 61.2791 36.3255 60.5376 33.7638C59.9983 32.011 59.6612 30.1909 59.5938 28.3033C59.3916 25.6741 59.459 22.9775 59.6612 20.3484C59.796 18.663 60.1331 16.9103 60.6724 15.2923C61.5488 12.8654 63.6386 11.0452 66.2004 10.5059C67.6835 10.1014 69.1666 9.89919 70.7171 9.89919C72.4699 9.83178 74.1552 9.83178 75.908 9.89919C77.2563 9.96661 78.6046 10.1014 79.8854 10.4385C80.1551 10.4385 80.3573 10.7082 80.2899 10.9778C80.2899 10.9778 80.2899 10.9778 80.2899 11.0452C80.2899 12.5283 80.2899 14.0115 80.2899 15.562C80.2225 15.562 80.2225 15.6294 80.2225 15.8316Z" fill="#242631"></path>
<path d="M134.289 18.5957H140.222V19.2698C140.222 22.9776 140.222 26.7528 140.222 30.4606C140.222 31.1347 140.222 31.8089 140.289 32.483C140.356 33.6965 141.3 34.6403 142.514 34.7077C142.918 34.7751 143.323 34.8425 143.727 34.8425C145.278 34.8425 146.896 34.7751 148.446 34.7077C148.716 34.7077 148.985 34.6403 149.255 34.5729C149.592 34.5054 149.862 34.2358 149.862 33.8987C149.862 33.6965 149.862 33.4942 149.862 33.292V18.5957H155.996V37.1346C155.996 37.2694 155.996 37.4042 155.996 37.4717C156.064 38.2806 155.457 39.0222 154.716 39.0896C154.648 39.0896 154.648 39.0896 154.581 39.0896C152.221 39.3593 149.862 39.5615 147.57 39.6963C145.615 39.8312 143.66 39.7637 141.772 39.6963C140.693 39.6963 139.615 39.5615 138.604 39.2244C136.581 38.7525 134.963 37.1346 134.694 35.0448C134.491 34.101 134.424 33.1572 134.424 32.2134C134.424 27.764 134.424 23.3147 134.424 18.9328C134.222 18.9328 134.289 18.7979 134.289 18.5957Z" fill="#242631"></path>
<path d="M131.323 35.0445C131.323 36.4602 131.323 37.7411 131.323 39.022C131.323 39.2242 131.188 39.359 131.053 39.4265C131.053 39.4265 131.053 39.4265 130.986 39.4265C130.312 39.5613 129.638 39.6961 129.031 39.6961C127.548 39.7635 125.997 39.8309 124.514 39.8309C122.761 39.8984 121.076 39.7635 119.391 39.4939C118.245 39.359 117.166 39.022 116.155 38.4827C114.604 37.6737 113.458 36.258 113.054 34.5726C112.717 33.2918 112.514 31.9435 112.447 30.5278C112.312 28.3705 112.447 26.2133 112.852 24.056C113.458 21.0224 115.144 19.2696 118.312 18.5281C120.941 18.0562 123.57 17.8539 126.267 17.9888C127.683 17.9888 129.166 18.1236 130.581 18.3258C130.716 18.3258 130.919 18.3932 131.053 18.4607C131.188 18.5281 131.323 18.6629 131.323 18.7977C131.323 20.146 131.323 21.4269 131.323 22.7752C131.323 22.7752 131.323 22.7752 131.256 22.8426C131.053 22.8426 130.851 22.8426 130.581 22.8426C127.952 22.5729 125.256 22.5055 122.559 22.7752C122.02 22.8426 121.481 22.9774 120.941 23.1796C119.863 23.5167 119.054 24.3931 118.851 25.5391C118.379 27.7638 118.379 30.0559 118.784 32.2806C119.121 34.0333 120.267 34.9771 121.952 35.2468C122.492 35.3816 123.098 35.3816 123.705 35.449C125.795 35.449 127.952 35.3816 130.11 35.3816C130.447 35.1794 130.851 35.112 131.323 35.0445Z" fill="#242631"></path>
<path d="M89.661 18.5957V39.2244H83.6611V18.5957H89.661Z" fill="#242631"></path>
<path d="M165.906 39.2244H159.906V18.5957H165.906V39.2244Z" fill="#242631"></path>
<path d="M107.256 17.9888C104.627 17.8539 101.931 18.0562 99.3014 18.5281C96.133 19.2696 94.515 21.0898 93.8409 24.056C93.5038 25.8762 93.369 27.6964 93.5038 29.5166V39.1568H99.5711C99.5711 39.1568 99.5711 31.7412 99.5711 29.2469C99.5037 27.8986 99.6385 26.6178 99.9082 25.3369C100.11 24.2583 100.919 23.3145 101.998 22.9774C102.537 22.7752 103.009 22.6403 103.616 22.5729C105.773 22.3707 107.93 22.3707 110.02 22.5055V17.9888C109.144 18.0562 108.2 17.9888 107.256 17.9888Z" fill="#242631"></path>
<path d="M159.906 10.3037H163.277C164.693 10.3037 165.906 11.4498 165.906 12.9329V15.2924H159.906V10.3037Z" fill="#242631"></path>
<path d="M83.6611 10.3037H87.0318C88.4475 10.3037 89.661 11.4498 89.661 12.8654V15.2249H83.6611V10.3037Z" fill="#242631"></path>
<path d="M181.816 23.1123C182.894 23.1123 184.04 23.1123 185.119 23.1123V18.5281H178.445V10.5732H172.31V15.09C172.31 16.236 172.31 17.3821 172.31 18.5955H168.67V23.1123H172.445C172.445 26.2807 172.445 29.4492 172.445 32.5503C172.445 33.4266 172.58 34.303 172.715 35.1794C172.984 36.9996 174.265 38.5501 176.018 39.0894C177.299 39.5613 178.647 39.7636 179.995 39.7636C181.681 39.7636 183.434 39.831 185.119 39.7636V34.7075C183.906 34.7075 182.759 34.7749 181.546 34.7749C181.209 34.7749 180.872 34.7075 180.535 34.6401C179.389 34.5053 178.58 33.6289 178.512 32.4828C178.445 31.8087 178.378 31.1346 178.378 30.4604C178.378 27.9661 178.378 25.5392 178.378 23.0449L181.816 23.1123Z" fill="#242631"></path>
<path d="M205.478 14.2137C205.478 15.4945 205.478 16.7754 205.478 17.9889C205.478 19.2023 205.545 20.4832 205.478 21.6966H194.152V10.4385H187.95V39.2243H194.152V27.5617H205.41V36.9322C205.41 37.6738 205.41 38.4828 205.41 39.2243H211.68V10.4385H205.41L205.478 14.2137Z" fill="#0099FF"></path>
<path d="M262.915 25.7416C262.847 24.5956 262.578 23.3821 262.241 22.3035C261.701 20.5507 260.42 19.2024 258.668 18.6631C257.859 18.3935 257.05 18.2586 256.241 18.1238C254.353 17.9216 252.466 17.9216 250.578 18.1238C249.297 18.2586 248.016 18.6631 246.87 19.3373C246.735 19.4047 246.668 19.4721 246.533 19.4721V18.5957V10.1689H240.466V37.202C240.466 37.4043 240.466 37.6065 240.533 37.8087C240.533 38.4829 241.073 39.0222 241.679 39.0222C243.028 39.2244 244.376 39.3593 245.792 39.4941C246.331 39.5615 246.87 39.5615 247.477 39.5615C248.016 39.6289 248.556 39.6963 249.095 39.6963C251.117 39.6963 253.14 39.6963 255.162 39.5615C256.308 39.4941 257.454 39.2919 258.533 38.9548C260.218 38.4829 261.566 37.2694 262.241 35.6515C262.645 34.6403 262.915 33.5617 262.982 32.483C263.184 30.3258 263.184 28.0337 262.915 25.7416ZM256.915 31.8089C256.847 32.2808 256.78 32.6853 256.645 33.0898C256.376 34.3032 255.297 35.1796 254.016 35.247C252.466 35.4492 250.982 35.4492 249.432 35.247C248.151 35.1796 247.072 34.2358 246.803 32.9549C246.668 32.2134 246.533 31.4718 246.466 30.7303C246.398 30.1235 246.466 29.5168 246.466 28.9101C246.398 27.5618 246.466 26.2135 246.803 24.9326C247.005 23.7192 248.016 22.7754 249.23 22.6406C250.915 22.3709 252.6 22.3709 254.218 22.6406C255.364 22.7754 256.308 23.5844 256.578 24.7304C256.78 25.5394 256.915 26.4158 256.982 27.2921C257.05 28.7752 256.982 30.2584 256.915 31.8089Z" fill="#0099FF"></path>
<path d="M230.691 18.5955V33.4266C230.691 34.303 230.556 34.4378 229.68 34.6401C229.545 34.6401 229.41 34.7075 229.343 34.7075C227.657 34.7749 225.904 34.7749 224.219 34.8423C223.882 34.8423 223.545 34.7749 223.208 34.7075C222.062 34.5726 221.253 33.6963 221.185 32.5502C221.118 31.8761 221.051 31.2019 221.051 30.5278C221.051 26.7526 221.051 22.9774 221.051 19.2022C221.051 19 221.051 18.7977 221.051 18.5281H215.118C215.118 18.7303 215.118 18.8651 215.118 18.9326C215.118 23.4493 215.118 27.9661 215.118 32.4828C215.118 33.3592 215.253 34.2356 215.388 35.112C215.657 36.9321 216.938 38.4827 218.691 39.022C219.972 39.4939 221.32 39.6961 222.669 39.6961C225.635 39.7635 228.601 39.6961 231.5 39.4939C232.848 39.359 234.196 39.2242 235.612 39.022C236.286 38.9546 236.758 38.4152 236.758 37.8085C236.758 37.6063 236.826 37.404 236.826 37.2018V19.0674C236.826 18.9326 236.826 18.7303 236.758 18.5955H230.691Z" fill="#0099FF"></path>
<path d="M37.7518 35.5165L40.8529 32.4154L43.7517 29.5166C43.8191 29.4492 43.8865 29.3144 43.9539 29.2469C46.5831 26.2807 46.8527 22.5055 44.4932 19.1348C43.482 17.7865 42.336 16.5057 41.1225 15.3596L37.2125 17.1798L35.5271 21.0224L35.7968 21.2921C36.8754 22.3033 36.9428 23.9886 35.9316 25.1347L25.9543 35.112C25.6173 35.449 25.3476 35.7861 24.9431 36.0558C23.8645 36.9996 22.314 36.9322 21.3028 35.9209C19.4152 34.1682 15.5726 30.3256 13.8198 28.438C12.6737 27.1571 12.7412 25.674 13.8872 24.3931C14.1569 24.1235 14.4265 23.8538 14.6962 23.5842L15.5726 22.7078H15.64L16.3141 22.0336L23.7971 14.5507C24.1341 14.2136 24.4712 13.9439 24.8083 13.6069C25.8869 12.6631 27.4374 12.7305 28.4487 13.7417L29.2576 14.4832L33.1676 12.8653L34.9204 8.82045C33.8418 7.74183 32.6957 6.6632 31.5497 5.65199C28.2464 2.75318 24.1341 2.68577 20.8309 5.38233C20.6286 5.58458 20.4938 5.65199 20.2915 5.85423L17.4601 8.68563C16.1793 9.96649 15.4377 10.7081 14.5613 11.5844L10.5839 15.5619L10.0446 16.1012L9.97718 16.1686L6.06716 19.9438C3.03352 22.9774 2.62904 26.9549 5.05595 30.5278C6.20199 32.0109 7.41544 33.4266 8.83114 34.7075C11.258 37.1344 15.64 41.6511 18.2017 43.8758C21.7747 47.0443 26.3588 46.7746 29.7969 43.4039C32.898 40.3703 35.2575 38.0108 37.7518 35.5165Z" fill="#0099FF"></path>
<path d="M45.1673 31.0671L42.4707 33.7637L45.5043 36.7973C46.1785 37.4715 47.2571 37.4715 47.9312 36.7973L49.4818 35.2468L45.1673 31.0671Z" fill="#0099FF"></path>
<path d="M36.6055 39.6287L39.6391 42.6624C40.3132 43.3365 41.3919 43.3365 42.066 42.6624L43.6165 41.1118L39.3695 36.8647L36.6055 39.6287Z" fill="#0099FF"></path>
<path d="M30.7412 45.494L33.7748 48.5276C34.449 49.2017 35.5276 49.2017 36.1343 48.5276L37.6849 46.9771L33.4378 42.73L30.7412 45.494Z" fill="#0099FF"></path>
<path d="M18.6741 4.50604L15.6405 1.4724C14.9663 0.798262 13.8877 0.798262 13.281 1.4724L11.7305 3.02293L15.9776 7.27002L18.6741 4.50604Z" fill="#0099FF"></path>
<path d="M12.8089 10.371L9.77529 7.33739C9.10114 6.66325 8.02252 6.66325 7.34838 7.33739L5.79785 8.88792L10.1124 13.135L12.8089 10.371Z" fill="#0099FF"></path>
<path d="M6.94366 16.236L3.91002 13.2024C3.23588 12.5282 2.15725 12.5282 1.48311 13.2024L0 14.7529L4.24709 18.9326L6.94366 16.236Z" fill="#0099FF"></path>
</svg>
