<?xml version="1.0" encoding="utf-8"?>
<!-- Generator: Adobe Illustrator 26.0.3, SVG Export Plug-In . SVG Version: 6.00 Build 0)  -->
<svg version="1.1" id="Ebene_1" xmlns="http://www.w3.org/2000/svg" xmlns:xlink="http://www.w3.org/1999/xlink" x="0px" y="0px"
	 viewBox="0 0 1512.9 500.8" style="enable-background:new 0 0 1512.9 500.8;" xml:space="preserve">
<style type="text/css">
	.st0{fill:#333333;}
	.st1{fill:#808080;}
	.st2{fill:#CCCCCC;}
</style>
<g>
	<g>
		<path d="M92,320.9l-18.5,14.6h195.4c35.9,0,65.5,8.8,78.4,49H246.8c-5.1-16.1-32.1-13.8-51.2-13.9l-166.7,0l-12.1,0v-35.1
			l36.4-28.7c4.7,1.8-46.8-16.4-46.8-62.1c0-37.5,35.8-68.1,79.5-68.1c77.1,0,108.1,0,185.2,0c43.7,0,79.5,30.7,79.5,68.1
			c0,37.5-35.8,68.1-79.5,68.1H115.3C106.5,312.8,99,315.4,92,320.9z M84.9,245.5L84.9,245.5l0,0.4c0,0.2,0,0.4,0,0.6l0,0.2
			c1.1,17.2,15.5,30.9,32.9,30.9h8.9c0.8,0,1.6,0,2.4,0c59.6,0,38.9,0,98.4,0c0.8,0,1.6,0,2.4,0h8.9c17.5,0,31.9-13.8,32.9-31v-0.1
			c0-0.2,0-0.5,0-0.7l0-0.2c0-0.3,0-0.6,0-0.9c0-0.3,0-0.6,0-0.9l0-0.2c0-0.2,0-0.5,0-0.8v-0.1c-1-17.2-15.5-31-32.9-31h-9
			c-0.8,0-1.6,0-2.4,0h-98.4c-0.8,0-1.6,0-2.4,0h-9c-17.5,0-31.9,13.7-32.9,30.9l0,0.2l0,0.6l0,0.4v0c0,0.3,0,0.6,0,0.9
			C84.9,245,84.9,245.2,84.9,245.5z M350.6,176.5l-78.3,0c-0.1-1.2-0.1,9.5-0.1-3.6c0-13.1,10.3-31.1,35.4-31.1h43.1V176.5z"/>
		<path d="M448.5,335.5c-37.7,0-69.5-26.6-77.5-61.9c-11.3-49.4,26.7-97,77.5-97h182.8c22,0,40.7,14.9,46.6,35.1
			c8.9,30.8-14.4,61.9-46.6,61.9H451.1c6.8,15.8,22.6,26.8,40.7,26.8h134.2c24.2,0.8,38.3,19.2,53.7,35.1H448.5z M601.3,225
			c0-7.4-6-13.4-13.4-13.4h-96c-16.7,0.1-31.5,9.2-39.3,23.9c-0.5,1-1,2-1.4,3c45.6,0,91.2,0,136.8,0
			C595.3,238.5,601.3,232.4,601.3,225z"/>
		<path d="M876.5,211.6h-93.3l0,123.9h-78.4V176.5l44.8,0h96.2l0.1,0h88.7c43.7,0,79.5,35.8,79.5,79.5v79.5H938V256
			c0-24.4-20-44.4-44.4-44.4L876.5,211.6L876.5,211.6z"/>
	</g>
</g>
<g>
	<path d="M1449.4,422.9c-11-58.4-34.5-112.3-69.8-160c-15.5-21-32.9-40.1-47.8-56c-16.6-17.7-31.8-33.1-46.6-47.1
		c-30.2-28.7-59.2-52.1-88.7-71.6l-8.8-5.8c-11.5-7.5-22.3-14.6-32.6-22.8c-0.4-0.4-0.9-0.6-1.2-0.9c-1.3-0.9-2.8-1.3-4.3-1.3
		c-1.9,0-3.8,0.7-5.3,2c-0.1,0.1-0.3,0.3-0.4,0.4c-5,4.7-7.5,14-7.5,17.6c0.1,8.9,9.2,16.8,17.2,22.7c12.9,9.6,28,18.3,42.7,26.7
		c16.6,9.6,33.8,19.4,48.7,31c15.1,11.7,23.6,22.5,26.9,33.9c7,24.6-10.3,48.8-30.3,73.4l-86,106.2c-8.2,10.1-16.7,20.6-23.5,31.7
		c-3.6,5.9-7.8,13.7-8,21.3c-0.1,7,3.8,13.2,10,15.6c2.2,0.9,4.9,1.4,7.8,1.4c5.5,0,11.7-1.6,17-4.5c8.3-4.5,14.6-11.4,19.8-17.6
		c17.1-20.6,29.7-43.2,41.9-65c16.7-29.9,32.5-58.2,58.8-81.6c3.8-3.4,7.2-5.9,11.6-7.3c2.6-0.8,5.3-1.3,8.3-1.3
		c2.8,0,5.9,0.4,9.5,1.1c31.6,6.3,50.4,27.6,58.8,39.6c10.9,15.7,17,32.7,23.5,50.6l3.1,8.6c5.3,14.4,11.4,29,17.9,43.4
		c5.2,11.5,13.1,24.8,28.1,25.9l1,0.1c0.2,0,0.3,0,0.5,0c0.5,0,0.7,0,1,0c2.1-0.1,4-1.1,5.3-2.6c1.3-1.5,1.9-3.5,1.6-5.5
		C1449.7,424.6,1449.6,423.9,1449.4,422.9z"/>
	<g>
		<path class="st0" d="M1142,459.1c-5.5,0-10.6-0.9-15.1-2.7c-13.4-5.3-21.9-18-21.6-32.4c0.3-11.7,5.8-22.1,10.5-29.9
			c7.4-12.1,16.2-23,24.8-33.5l86.1-106.3c17-20.9,31.8-41.1,27-57.9c-2.2-7.6-8.7-15.5-20.6-24.7c-13.9-10.8-30.5-20.3-46.5-29.5
			c-15.1-8.7-30.7-17.6-44.6-27.9c-11.2-8.3-24.1-20-24.4-36.4c-0.1-6.8,3.2-21,12.7-30.2l0.8-0.8c8.8-8.2,23.4-9.4,33.6-2.7
			c0.8,0.5,1.7,1.2,2.6,1.9c9.6,7.6,20.1,14.5,31.2,21.7l8.9,5.8c30.3,20.1,60.2,44.2,91.2,73.6c15,14.3,30.5,29.9,47.3,47.9
			c15.2,16.3,33,35.8,49.1,57.6c36.9,49.9,61.4,106.1,72.9,167.1c0.2,1.3,0.4,2.3,0.5,3l0,0c1,6.8-1.1,13.8-5.7,19.1
			c-4.6,5.3-11.4,8.6-18.6,9.1c-0.6,0-1.2,0.1-2.3,0.1l-2.8-0.1c-28.4-2-39.8-27.1-44.1-36.6c-6.7-14.8-12.9-29.8-18.4-44.7
			l-3.1-8.6c-6.1-16.8-11.9-32.8-21.5-46.6c-6.8-9.8-21.9-26.9-46.9-32c-3.7-0.7-6.2-0.9-7.8-0.4c-1,0.3-2.5,1.4-4.8,3.4
			c-24,21.4-39.1,48.4-55.1,76.9c-12.6,22.5-25.6,45.8-43.7,67.6c-6.3,7.6-14.2,16.1-25.3,22.1
			C1160.2,456.7,1150.8,459.1,1142,459.1z M1149.7,46.8c-5,0-9.7,1.8-13.2,5.1l-0.6,0.6c-7.4,7.2-10.7,19.3-10.6,25.2
			c0.2,13.4,11.6,23.6,21.5,30.9c13.5,10,28.9,18.8,43.8,27.4c16.3,9.4,33.1,19,47.4,30.1c13.2,10.3,20.5,19.3,23.1,28.4
			c5.7,19.9-10.2,41.7-28.3,64.1l-86,106.2c-8.5,10.4-17.2,21.2-24.3,32.8c-4.3,7-9.3,16.4-9.5,26.4c-0.2,11.5,6.4,21.6,17,25.7
			c9.7,3.9,23.5,2.3,34.8-3.8c10-5.4,17.3-13.3,23.1-20.3c17.7-21.4,30.6-44.3,43-66.6c16.3-29.1,31.7-56.6,56.6-78.8
			c3.3-2.9,5.3-4.3,7.5-5c3-1,6.6-0.9,11.8,0.2c27.7,5.5,44.3,24.3,51.7,35c10.1,14.6,16,30.9,22.3,48.2l3.1,8.6
			c5.4,14.7,11.6,29.6,18.2,44.2c3.8,8.4,13.9,30.6,37.6,32.3l1.3,0.1l1,3.6v-3.6c0.8,0,1.3,0,1.8-0.1c5.2-0.3,10-2.7,13.3-6.5
			c3.3-3.8,4.8-8.8,4.1-13.6v0c-0.1-0.6-0.2-1.5-0.4-2.7c-11.3-60-35.4-115.2-71.7-164.2c-15.9-21.5-33.5-40.9-48.6-57
			c-16.7-17.9-32.1-33.4-47-47.6c-30.7-29.1-60.2-53-90.2-72.8l-8.8-5.8c-11.3-7.4-21.9-14.4-31.8-22.2c-0.7-0.6-1.4-1.1-2-1.5
			C1157.3,47.9,1153.6,46.8,1149.7,46.8z"/>
	</g>
	<g>
		<path class="st1" d="M1142,476.9c-8,0-15.5-1.4-22.3-4.1c-20.6-8.1-33.7-27.4-33.2-49.3c0.3-15.8,7.2-28.8,13.1-38.5
			c8-13,17.2-24.4,26.2-35.5l86-106.3c7.9-9.8,26.5-32.8,23.8-42.4c-0.5-1.7-2.9-6.6-14.4-15.6c-12.9-10-28.8-19.2-44.3-28
			c-15.6-9-31.7-18.2-46.4-29.1c-13.4-9.9-31.2-25.9-31.6-50.2c-0.2-8.6,3.4-28.7,18.1-43l1-1c8.4-7.8,20-12.2,31.9-12.2
			c9.4,0,18.3,2.6,25.7,7.5c1.2,0.8,2.6,1.8,4,2.9c8.9,7.1,19.1,13.7,29.8,20.8l8.9,5.8c31.3,20.7,61.9,45.5,93.7,75.7
			c15.3,14.5,31,30.4,48.1,48.7c15.6,16.7,33.8,36.7,50.4,59.2c38.5,52,64,110.6,76,174.1c0.3,1.6,0.5,2.9,0.6,3.8l0,0
			c1.6,11.7-2,23.6-9.8,32.7c-7.9,9.1-19.5,14.8-32,15.6c-0.9,0.1-1.9,0.1-3.6,0.1l-3.5-0.1c-40.5-2.8-55.7-36.4-60.7-47.4
			c-6.9-15.1-13.2-30.6-18.9-45.9l-3.2-8.7c-5.7-15.8-11.1-30.6-19.4-42.6c-5-7.2-15.7-19.5-32.9-23.8c-20.5,19.1-34.5,44-49.2,70.3
			c-13,23.2-26.4,47.2-45.6,70.3c-7.4,8.9-16.8,19.1-30.8,26.6C1166.7,473.6,1154,476.9,1142,476.9z M1149.8,29
			c-10,0-19.7,3.7-26.6,10.1l-0.9,0.9c-12.9,12.6-16.1,30.3-16,37.9c0.3,21.2,16.5,35.6,28.7,44.7c14.4,10.6,30.3,19.8,45.7,28.6
			c15.7,9,31.9,18.3,45.2,28.7c9.7,7.6,15.4,14,16.9,19.2c3.4,12.1-11.2,31.4-25.1,48.6l-86,106.2c-8.8,10.9-17.9,22.1-25.6,34.7
			c-5.5,8.9-11.8,20.9-12.1,35c-0.4,18.9,10.8,35.6,28.6,42.5c14.9,6,35.1,4.1,51.4-4.7c12.8-6.9,21.6-16.4,28.6-24.8
			c18.8-22.6,32-46.3,44.8-69.2c15.4-27.5,29.9-53.5,52.1-73.5l1.5-1.3l2,0.4c20.9,4.3,33.8,18.9,39.5,27.3
			c8.8,12.7,14.3,28,20.2,44.2l3.1,8.6c5.6,15.1,11.9,30.4,18.7,45.4c4.6,10,18.4,40.6,53.6,43.1l3.2,0.1c1.9,0,2.7,0,3.5-0.1
			c10.4-0.7,20.1-5.4,26.6-13c6.6-7.6,9.6-17.5,8.2-27.3v0c-0.1-0.8-0.3-2-0.6-3.5c-11.8-62.5-36.9-120.2-74.8-171.3
			c-16.4-22.2-34.4-42.1-49.9-58.6c-17-18.1-32.6-34-47.8-48.4c-31.5-29.9-61.8-54.4-92.7-74.9l-8.9-5.8
			c-10.9-7.1-21.2-13.9-30.4-21.2c-1.2-0.9-2.4-1.8-3.4-2.5C1165,31.1,1157.6,29,1149.8,29z"/>
	</g>
	<g>
		<path class="st2" d="M1142,494.7c-10.6,0-20.5-1.8-29.6-5.5c-27.8-10.9-45.4-36.8-44.8-66.1c0.4-19.9,8.6-35.6,15.6-47.1
			c8.6-14.1,18.2-25.9,27.5-37.4l86.1-106.3c12.7-15.7,17.5-23.6,19.2-27.4c-1.3-1.4-3.5-3.4-6.9-6c-11.8-9.2-27.2-18-42-26.5
			c-16.1-9.2-32.7-18.8-48.4-30.4c-9.5-7-38.2-28.4-38.8-63.9c-0.2-12,4.5-37.3,23.5-55.7l1.2-1.2C1116.5,10.3,1133,4,1149.8,4
			c13.2,0,25.8,3.7,36.5,10.7c1.8,1.2,3.8,2.6,5.4,3.9c8.3,6.6,18,13,28.4,19.8l9,5.9c32.2,21.4,63.7,46.8,96.3,77.7
			c15.6,14.8,31.6,31,48.9,49.5c16,17.1,34.6,37.6,51.8,60.8c40,54.1,66.7,115.1,79.1,181.2c0.4,2,0.6,3.6,0.8,4.7l0,0
			c2.3,16.5-2.8,33.4-13.9,46.4c-11.2,12.9-27.7,21-45.3,22.1c-1.3,0.1-2.6,0.2-4.9,0.2l-4.2-0.1c-35.2-2.4-61-22-77.4-58.2
			c-7-15.5-13.6-31.3-19.4-47.1l-3.2-8.8c-5.3-14.6-10.3-28.4-17.3-38.5c-2.1-3-6.3-8.3-12.3-12.2c-14.2,16-25.4,36.1-37.2,57.2
			c-13.4,24-27.2,48.6-47.5,73c-8.5,10.3-19.5,22-36.2,31.1C1173.3,490.6,1157.2,494.7,1142,494.7z M1149.8,11.1
			c-14.9,0-29.4,5.6-39.9,15.3l-1.2,1.1c-17.2,16.8-21.5,39.7-21.3,50.6c0.5,32.1,27.2,51.9,35.9,58.4
			c15.3,11.3,31.7,20.8,47.6,29.9c15.1,8.7,30.7,17.6,42.9,27.1c5.2,4,7.9,6.9,9.3,8.5l1.2,1.5l-0.6,1.8c-1.9,5.8-9,16.4-21.2,31.4
			l-86,106.3c-9.2,11.3-18.6,23-27,36.6c-6.6,10.7-14.2,25.4-14.6,43.6c-0.5,26.3,15.2,49.6,40.2,59.4c20.1,8,46.7,5.8,68-5.7
			c15.6-8.5,26-19.5,34.1-29.3c19.9-23.9,33.5-48.3,46.7-71.9c12.6-22.6,24.6-43.9,40.4-60.9l2-2.2l2.7,1.4
			c8.4,4.4,14.2,11.1,17.6,16c7.5,10.8,12.7,25.1,18.1,40.1l3.2,8.8c5.8,15.6,12.2,31.3,19.2,46.6c15.2,33.5,38.8,51.7,70.3,53.8
			l4,0.1c2.4,0,3.6-0.1,4.7-0.1c15.5-1,30.1-8.1,40-19.5c9.9-11.4,14.3-26.3,12.3-40.9v0c-0.1-1-0.4-2.4-0.7-4.3
			c-12.3-65.1-38.5-125.1-77.9-178.3c-16.9-22.9-35.4-43.3-51.2-60.2c-17.2-18.4-33.1-34.5-48.6-49.1
			c-32.3-30.6-63.4-55.8-95.3-76.9l-9-5.9c-10.5-6.9-20.4-13.4-29-20.2c-1.5-1.2-3.2-2.4-4.8-3.5
			C1172.6,14.4,1161.5,11.1,1149.8,11.1z"/>
	</g>
</g>
<g>
	<path d="M423,402.2v-26.6h-5.1v-5.6h5.2v-1.3c0-2.3,0.2-4.1,0.7-5.6c0.5-1.5,1.1-2.7,2-3.6c0.8-0.9,1.7-1.6,2.7-2
		c1-0.4,2-0.7,3-0.9c1-0.1,2-0.2,2.8-0.2c0.6,0,1.3,0,1.9,0.1c0.6,0.1,1.2,0.2,1.7,0.3v6c-0.4-0.2-0.8-0.4-1.2-0.5
		c-0.4-0.1-0.9-0.2-1.6-0.2s-1.3,0.1-1.9,0.2c-0.6,0.1-1.2,0.4-1.7,0.8c-0.5,0.4-0.9,1-1.2,1.8c-0.3,0.8-0.4,1.9-0.4,3.3v1.9h8.1
		v5.6h-8.1v26.6H423z"/>
	<path d="M465.5,403.2c-2.9,0-5.5-0.5-7.6-1.4c-2.1-1-3.7-2.4-4.9-4.3c-1.2-1.9-1.7-4.3-1.7-7.2v-20.2h6.7v19.2c0,2.7,0.6,4.7,1.8,6
		c1.2,1.3,3.1,2,5.7,2s4.4-0.7,5.7-2c1.2-1.3,1.8-3.3,1.8-6v-19.2h6.5v20.2c0,4.3-1.2,7.5-3.7,9.7
		C473.3,402.1,469.9,403.2,465.5,403.2z"/>
	<path d="M495.3,372.7c0.9-0.5,2-0.9,3.2-1.3c1.2-0.4,2.4-0.8,3.7-1.1c1.3-0.3,2.7-0.5,4-0.7c1.4-0.2,2.7-0.3,4-0.3
		c3,0,5.5,0.4,7.4,1.2c1.9,0.8,3.3,2.1,4.3,3.8c0.9,1.7,1.4,3.9,1.4,6.5v21.2h-6.7v-20.4c0-0.8-0.1-1.6-0.3-2.4
		c-0.2-0.8-0.6-1.5-1.1-2.2c-0.5-0.7-1.3-1.2-2.3-1.6c-1-0.4-2.3-0.6-3.9-0.6c-1.2,0-2.3,0.1-3.6,0.3c-1.2,0.2-2.4,0.5-3.4,0.9v25.9
		h-6.7V372.7z"/>
	<path d="M553.3,402.9c-2,0-3.9-0.3-5.8-0.8c-1.9-0.6-3.6-1.5-5.1-2.7c-1.5-1.3-2.7-2.9-3.6-5.1c-0.9-2.1-1.3-4.7-1.3-7.9
		c0-3.2,0.4-6,1.3-8.1c0.9-2.2,2-3.9,3.5-5.2c1.5-1.3,3.2-2.2,5.1-2.8c1.9-0.6,3.9-0.8,5.9-0.8c1.7,0,3.4,0.2,5.1,0.5
		c1.7,0.3,3.3,0.8,4.7,1.4v6c-1.5-0.6-2.9-1.1-4.4-1.5c-1.5-0.4-3-0.5-4.5-0.5c-3.3,0-5.8,0.8-7.5,2.5c-1.7,1.7-2.5,4.4-2.5,8.1
		c0,3.8,0.8,6.6,2.4,8.4s4.2,2.7,7.8,2.7c1.6,0,3.1-0.2,4.6-0.6c1.5-0.4,2.9-0.9,4.2-1.5v6c-1.5,0.7-3.1,1.2-4.7,1.5
		C556.9,402.7,555.2,402.9,553.3,402.9z"/>
	<path d="M588.8,403.1c-2.9,0-5.2-0.8-6.9-2.3c-1.7-1.5-2.5-3.8-2.5-6.8v-18.3h-5.2v-5.6h5.2v-9h6.9v9h7.8v5.6h-7.8v17
		c0,1.5,0.3,2.6,0.8,3.4c0.5,0.7,1.5,1.1,3,1.1c0.7,0,1.4-0.1,2.2-0.3c0.7-0.2,1.3-0.4,1.9-0.7v6c-0.8,0.3-1.6,0.6-2.6,0.8
		C590.6,403,589.6,403.1,588.8,403.1z"/>
	<path d="M608.3,365v-6.1h7.2v6.1H608.3z M608.5,402.2v-31.9h6.7l0.1,31.9H608.5z"/>
	<path d="M645.1,403.2c-5.2,0-9.1-1.5-11.6-4.4c-2.5-2.9-3.8-7.1-3.8-12.6c0-5.8,1.3-10.1,3.9-12.8c2.6-2.7,6.4-4.1,11.4-4.1
		c3.5,0,6.5,0.7,8.8,2c2.3,1.3,4,3.2,5.1,5.7c1.1,2.5,1.7,5.6,1.7,9.2c0,5.4-1.3,9.6-4,12.6C653.9,401.7,650.1,403.2,645.1,403.2z
		 M645,397.5c2.2,0,3.9-0.5,5.2-1.4c1.3-1,2.2-2.3,2.8-4c0.6-1.7,0.9-3.7,0.9-5.9c0-2.5-0.3-4.5-0.9-6.2c-0.6-1.7-1.5-2.9-2.8-3.7
		c-1.3-0.8-3-1.2-5.1-1.2c-2.1,0-3.8,0.4-5.1,1.3c-1.3,0.9-2.2,2.2-2.8,3.8c-0.6,1.7-0.8,3.7-0.8,6c0,3.5,0.7,6.3,2,8.3
		C639.6,396.5,641.9,397.5,645,397.5z"/>
	<path d="M674.7,372.7c0.9-0.5,2-0.9,3.2-1.3c1.2-0.4,2.4-0.8,3.7-1.1c1.3-0.3,2.7-0.5,4-0.7c1.4-0.2,2.7-0.3,4-0.3
		c3,0,5.5,0.4,7.4,1.2c1.9,0.8,3.3,2.1,4.3,3.8c0.9,1.7,1.4,3.9,1.4,6.5v21.2h-6.7v-20.4c0-0.8-0.1-1.6-0.3-2.4
		c-0.2-0.8-0.6-1.5-1.1-2.2c-0.5-0.7-1.3-1.2-2.3-1.6c-1-0.4-2.3-0.6-3.9-0.6c-1.2,0-2.3,0.1-3.6,0.3c-1.2,0.2-2.4,0.5-3.4,0.9v25.9
		h-6.7V372.7z"/>
	<path d="M730.3,403.2c-1.7,0-3.3-0.2-4.8-0.5c-1.5-0.3-2.9-0.9-4.2-1.6c-1.3-0.8-2.3-1.8-3-3.2c-0.7-1.3-1.1-3-1.1-5
		c0-2.4,0.5-4.4,1.4-5.9c0.9-1.5,2.3-2.7,4-3.5c1.7-0.8,3.8-1.2,6.3-1.2c1.6,0,3.1,0.1,4.4,0.4c1.3,0.3,2.5,0.6,3.5,1.1
		c1,0.4,1.9,1,2.7,1.5l0.7,4.4c-0.9-0.6-2.2-1.2-3.8-1.6c-1.6-0.4-3.3-0.7-5.1-0.7c-2.4,0-4.3,0.4-5.5,1.3c-1.3,0.9-1.9,2.1-1.9,3.8
		c0,1.3,0.4,2.3,1.1,3.1c0.7,0.8,1.6,1.4,2.7,1.7c1.1,0.4,2.2,0.5,3.4,0.5c2.5,0,4.4-0.2,5.6-0.5c1.2-0.3,1.8-1.1,1.8-2.4v-13.4
		c0-2.3-0.7-3.9-2-5c-1.4-1-3.3-1.6-5.8-1.6c-1.8,0-3.6,0.3-5.6,0.9c-1.9,0.6-3.5,1.4-4.7,2.4v-6.3c1.2-0.8,2.9-1.5,5.2-2
		c2.3-0.5,4.6-0.7,7.1-0.7c1.2,0,2.4,0.1,3.6,0.4c1.2,0.2,2.4,0.6,3.4,1.1c1.1,0.5,2,1.2,2.8,2s1.5,1.8,2,3c0.5,1.2,0.7,2.6,0.7,4.2
		v15.4c0,2.1-0.7,3.7-2,4.8c-1.3,1.1-3.1,1.9-5.3,2.3C735.6,403,733.1,403.2,730.3,403.2z"/>
	<path d="M767.6,402.2H761V358h6.7V402.2z"/>
	<path d="M810.7,402.2v-26.6h-5.1v-5.6h5.2v-1.3c0-2.3,0.2-4.1,0.7-5.6c0.5-1.5,1.1-2.7,2-3.6c0.8-0.9,1.7-1.6,2.7-2
		c1-0.4,2-0.7,3-0.9c1-0.1,2-0.2,2.8-0.2c0.6,0,1.3,0,1.9,0.1c0.6,0.1,1.2,0.2,1.7,0.3v6c-0.4-0.2-0.8-0.4-1.2-0.5
		c-0.4-0.1-0.9-0.2-1.6-0.2c-0.6,0-1.3,0.1-1.9,0.2c-0.6,0.1-1.2,0.4-1.7,0.8s-0.9,1-1.2,1.8c-0.3,0.8-0.4,1.9-0.4,3.3v1.9h8.1v5.6
		h-8.1v26.6H810.7z"/>
	<path d="M853.2,403.2c-2.9,0-5.5-0.5-7.6-1.4c-2.1-1-3.7-2.4-4.9-4.3s-1.7-4.3-1.7-7.2v-20.2h6.7v19.2c0,2.7,0.6,4.7,1.8,6
		c1.2,1.3,3.1,2,5.7,2c2.6,0,4.4-0.7,5.7-2c1.2-1.3,1.8-3.3,1.8-6v-19.2h6.5v20.2c0,4.3-1.2,7.5-3.7,9.7
		C861,402.1,857.6,403.2,853.2,403.2z"/>
	<path d="M894.5,403.1c-2.9,0-5.2-0.8-6.9-2.3S885,397,885,394v-18.3h-5.2v-5.6h5.2v-9h6.9v9h7.8v5.6H892v17c0,1.5,0.3,2.6,0.8,3.4
		c0.5,0.7,1.5,1.1,3,1.1c0.7,0,1.5-0.1,2.2-0.3c0.7-0.2,1.3-0.4,1.9-0.7v6c-0.8,0.3-1.6,0.6-2.6,0.8
		C896.2,403,895.3,403.1,894.5,403.1z"/>
	<path d="M928.2,403.2c-2.9,0-5.5-0.5-7.6-1.4c-2.1-1-3.7-2.4-4.9-4.3s-1.7-4.3-1.7-7.2v-20.2h6.7v19.2c0,2.7,0.6,4.7,1.8,6
		c1.2,1.3,3.1,2,5.7,2c2.6,0,4.4-0.7,5.7-2c1.2-1.3,1.8-3.3,1.8-6v-19.2h6.5v20.2c0,4.3-1.2,7.5-3.7,9.7
		C936,402.1,932.6,403.2,928.2,403.2z"/>
	<path d="M958,402.2v-29.2c0.6-0.3,1.6-0.8,3.1-1.4s3.3-1.1,5.3-1.6s4.1-0.7,6.2-0.7c1.1,0,1.9,0.1,2.6,0.3c0.7,0.2,1.3,0.4,1.7,0.6
		v5.4c-1-0.1-2-0.2-3.1-0.3c-1.1-0.1-2.1-0.1-3.2,0c-1.1,0.1-2.1,0.2-3.1,0.3c-1,0.1-2,0.3-2.8,0.4v26.2H958z"/>
	<path d="M1002,403.2c-3.2,0-5.9-0.6-8.2-1.9c-2.3-1.3-4.1-3.2-5.4-5.7c-1.3-2.5-1.9-5.6-1.9-9.2c0-5.6,1.3-9.8,3.9-12.7
		s6.3-4.3,11-4.3c3.5,0,6.2,0.8,8.4,2.3c2.1,1.5,3.7,3.7,4.6,6.4s1.4,6,1.4,9.6h-25.3l-0.2-5h20.4l-1.6,1.6c-0.1-3.3-0.8-5.7-2-7.2
		c-1.2-1.5-3.2-2.3-5.8-2.3c-1.7,0-3.2,0.4-4.4,1.1c-1.2,0.7-2.1,1.9-2.7,3.6c-0.6,1.7-0.9,4-0.9,6.9c0,3.6,0.8,6.3,2.5,8.2
		c1.7,1.9,4.1,2.8,7.4,2.8c1.4,0,2.8-0.1,4.1-0.4c1.3-0.3,2.4-0.6,3.5-1c1.1-0.4,2-0.8,2.8-1.2v6.2c-1.5,0.6-3.2,1.2-5.1,1.6
		C1006.4,403,1004.3,403.2,1002,403.2z"/>
</g>
</svg>
