<?xml version="1.0" encoding="utf-8"?>
<!-- Generator: Adobe Illustrator 19.0.0, SVG Export Plug-In . SVG Version: 6.00 Build 0)  -->
<svg version="1.1" id="GoogleLogo_x5F_FullColor_x5F_rgb_21_"
	 xmlns="http://www.w3.org/2000/svg" xmlns:xlink="http://www.w3.org/1999/xlink" x="0px" y="0px" width="830px" height="270.61px"
	 viewBox="0 0 830 270.61" enable-background="new 0 0 830 270.61" xml:space="preserve">
<g id="_x38_30x271px">
	<path fill="#4285F4" d="M107,124.51V95.83h96c0.98,5.05,1.55,11.07,1.55,17.58c0,21.5-5.89,48.13-24.83,67.07
		c-18.43,19.2-41.99,29.44-73.22,29.44C48.64,209.93,0,162.82,0,104.96C0,47.11,48.64,0,106.5,0c32,0,54.79,12.54,71.94,28.93
		l-20.22,20.22c-12.29-11.52-28.93-20.48-51.71-20.48c-42.24,0-75.27,34.05-75.27,76.29s33.03,76.29,75.27,76.29
		c27.39,0,43.01-11.01,52.99-20.99c8.14-8.13,13.49-19.8,15.57-35.76L107,124.51z"/>
	<path fill="#E94235" d="M350.84,142.34c0,38.91-30.46,67.59-67.84,67.59c-37.38,0-67.84-28.67-67.84-67.59
		c0-39.17,30.46-67.59,67.84-67.59C320.38,74.76,350.84,103.17,350.84,142.34z M321.15,142.34c0-24.32-17.66-40.96-38.14-40.96
		c-20.48,0-38.15,16.64-38.15,40.96c0,24.06,17.66,40.96,38.15,40.96C303.48,183.3,321.15,166.41,321.15,142.34z"/>
	<path fill="#FABB05" d="M498.84,142.34c0,38.91-30.46,67.59-67.84,67.59c-37.38,0-67.84-28.67-67.84-67.59
		c0-39.17,30.46-67.59,67.84-67.59C468.38,74.76,498.84,103.17,498.84,142.34z M469.15,142.34c0-24.32-17.66-40.96-38.14-40.96
		c-20.48,0-38.15,16.64-38.15,40.96c0,24.06,17.66,40.96,38.15,40.96C451.48,183.3,469.15,166.41,469.15,142.34z"/>
	<path fill="#4285F4" d="M640.7,78.85V200.2c0,49.92-29.44,70.4-64.26,70.4c-32.77,0-52.48-22.02-59.91-39.94l25.86-10.75
		c4.61,11.01,15.87,24.07,34.05,24.07c22.27,0,36.1-13.83,36.1-39.68v-9.73h-1.02c-6.66,8.19-19.46,15.36-35.59,15.36
		c-33.79,0-64.77-29.44-64.77-67.33c0-38.15,30.98-67.84,64.77-67.84c16.13,0,28.93,7.17,35.59,15.11h1.02V78.85H640.7z
		 M614.59,142.6c0-23.81-15.87-41.22-36.1-41.22c-20.48,0-37.63,17.41-37.63,41.22c0,23.55,17.15,40.71,37.63,40.71
		C598.71,183.3,614.59,166.15,614.59,142.6z"/>
	<path fill="#34A853" d="M691,7.83v198h-29.7v-198H691z"/>
	<path fill="#E94235" d="M805.68,164.62l23.04,15.36c-7.43,11.01-25.35,29.95-56.32,29.95c-38.4,0-67.07-29.7-67.07-67.59
		c0-40.2,28.93-67.59,63.75-67.59c35.07,0,52.23,27.91,57.86,43.01l3.07,7.68l-90.37,37.38c6.91,13.57,17.67,20.48,32.77,20.48
		C787.5,183.3,798,175.88,805.68,164.62z M734.76,140.29l60.42-25.09c-3.33-8.45-13.31-14.34-25.09-14.34
		C754.99,100.87,734,114.18,734.76,140.29z"/>
</g>
</svg>
