<?xml version="1.0" encoding="UTF-8" standalone="no"?>
<svg
   xmlns:dc="http://purl.org/dc/elements/1.1/"
   xmlns:cc="http://creativecommons.org/ns#"
   xmlns:rdf="http://www.w3.org/1999/02/22-rdf-syntax-ns#"
   xmlns:svg="http://www.w3.org/2000/svg"
   xmlns="http://www.w3.org/2000/svg"
   xmlns:sodipodi="http://sodipodi.sourceforge.net/DTD/sodipodi-0.dtd"
   xmlns:inkscape="http://www.inkscape.org/namespaces/inkscape"
   width="800.52222"
   height="180.54451"
   viewBox="0 0 800.52222 180.54451"
   version="1.1"
   xml:space="preserve"
   style="clip-rule:evenodd;fill-rule:evenodd;stroke-linejoin:round;stroke-miterlimit:2"
   id="svg44"
   sodipodi:docname="hackworth.svg"
   inkscape:version="0.92.4 5da689c313, 2019-01-14"><metadata
   id="metadata50"><rdf:RDF><cc:Work
       rdf:about=""><dc:format>image/svg+xml</dc:format><dc:type
         rdf:resource="http://purl.org/dc/dcmitype/StillImage" /><dc:title></dc:title></cc:Work></rdf:RDF></metadata><defs
   id="defs48" /><sodipodi:namedview
   pagecolor="#ffffff"
   bordercolor="#666666"
   borderopacity="1"
   objecttolerance="10"
   gridtolerance="10"
   guidetolerance="10"
   inkscape:pageopacity="0"
   inkscape:pageshadow="2"
   inkscape:window-width="1723"
   inkscape:window-height="965"
   id="namedview46"
   showgrid="false"
   fit-margin-top="40"
   fit-margin-left="0"
   fit-margin-right="0"
   fit-margin-bottom="40"
   inkscape:zoom="1.6173094"
   inkscape:cx="374.52588"
   inkscape:cy="90.044514"
   inkscape:window-x="0"
   inkscape:window-y="0"
   inkscape:window-maximized="0"
   inkscape:current-layer="svg44" />
    <g
   id="Artboard1"
   transform="matrix(0.78176,0,0,0.196376,0,40)">
        <rect
   x="0"
   y="0"
   width="1024"
   height="512"
   style="fill:none"
   id="rect2" />
        <g
   transform="matrix(1.27917,0,0,5.09228,-264.082,-370.286)"
   id="g41">
            <g
   id="Layer2">
                <g
   transform="matrix(100,0,0,100,228.985,160.986)"
   id="g6">
                    <path
   d="m 0.718,-0.775 c -0.033,0 -0.067,0 -0.1,-0.001 -0.056,0.001 -0.086,0.004 -0.089,0.009 l 0.008,0.02 0.032,0.013 0.006,0.007 c 0.003,0.015 0.004,0.066 0.004,0.153 C 0.578,-0.489 0.577,-0.437 0.575,-0.417 0.56,-0.404 0.55,-0.398 0.544,-0.398 H 0.241 C 0.217,-0.397 0.198,-0.402 0.183,-0.413 0.166,-0.425 0.159,-0.442 0.162,-0.464 0.162,-0.467 0.161,-0.475 0.16,-0.488 0.159,-0.498 0.159,-0.506 0.162,-0.511 0.159,-0.522 0.158,-0.54 0.158,-0.565 c 0,-0.067 0.005,-0.116 0.016,-0.147 0.005,-0.013 0.01,-0.02 0.015,-0.022 0.009,-0.003 0.016,-0.007 0.019,-0.01 L 0.215,-0.763 0.206,-0.772 C 0.088,-0.776 0.024,-0.776 0.015,-0.773 0.009,-0.77 0.006,-0.764 0.005,-0.755 l 0.041,0.03 c 0.005,0.007 0.008,0.023 0.008,0.05 v 0.399 c 0,0.144 -0.001,0.218 -0.004,0.221 -0.003,0.003 -0.013,0.01 -0.032,0.021 -0.019,0.011 -0.028,0.018 -0.028,0.021 L -0.007,-0.009 -0.008,0 C 0.006,0.008 0.024,0.011 0.047,0.008 0.07,0.006 0.085,0.007 0.094,0.01 L 0.154,0.008 C 0.184,0.007 0.202,0.004 0.208,-0.002 V -0.02 C 0.185,-0.029 0.171,-0.039 0.167,-0.052 0.166,-0.055 0.166,-0.072 0.166,-0.102 v -0.15 c 0,-0.051 0.006,-0.081 0.017,-0.092 0.012,-0.011 0.045,-0.017 0.099,-0.017 0.112,0 0.174,0.002 0.185,0.006 H 0.54 c 0.029,0 0.044,0.046 0.044,0.139 0,0.019 -0.001,0.039 -0.002,0.06 -0.001,0.021 -0.002,0.03 -0.002,0.027 0,0.048 -0.003,0.077 -0.01,0.087 l -0.02,0.013 c -0.015,0.001 -0.026,0.008 -0.033,0.023 l 0.019,0.014 c 0.112,0 0.171,-0.001 0.176,-0.003 0.013,0.003 0.025,-0.008 0.025,-0.021 0,-0.003 -0.001,-0.005 -0.002,-0.008 C 0.725,-0.027 0.715,-0.031 0.704,-0.034 0.689,-0.039 0.682,-0.045 0.682,-0.052 0.682,-0.091 0.681,-0.16 0.68,-0.258 0.679,-0.345 0.678,-0.414 0.679,-0.464 0.68,-0.539 0.682,-0.608 0.685,-0.669 0.686,-0.7 0.692,-0.721 0.701,-0.73 0.704,-0.733 0.713,-0.737 0.726,-0.741 0.735,-0.743 0.739,-0.751 0.739,-0.765 Z"
   style="fill:#111111;fill-rule:nonzero"
   id="path4"
   inkscape:connector-curvature="0" />
                </g>
                <g
   transform="matrix(100,0,0,100,315.085,160.986)"
   id="g10">
                    <path
   d="m 0.748,-0.017 c 0.002,-0.005 0.003,-0.009 0.003,-0.012 0,-0.007 -0.009,-0.016 -0.026,-0.026 -0.009,0.001 -0.018,0.001 -0.026,0.001 -0.023,0 -0.039,-0.006 -0.048,-0.017 L 0.625,-0.119 C 0.614,-0.138 0.577,-0.238 0.513,-0.417 0.449,-0.596 0.417,-0.692 0.417,-0.703 0.416,-0.731 0.414,-0.748 0.413,-0.754 0.408,-0.774 0.396,-0.784 0.378,-0.785 c -0.003,0.001 -0.037,0.081 -0.102,0.24 -0.066,0.161 -0.1,0.247 -0.101,0.259 0,0.005 -0.01,0.036 -0.029,0.093 -0.019,0.057 -0.029,0.087 -0.032,0.092 -0.013,0.025 -0.031,0.038 -0.053,0.038 H 0.05 C 0.045,-0.064 0.041,-0.064 0.038,-0.064 c -0.018,0 -0.034,0.006 -0.047,0.017 0.005,0.033 0.027,0.049 0.067,0.049 C 0.071,0.002 0.103,0 0.114,0 0.105,0 0.128,0.001 0.185,0.003 0.224,0.004 0.245,0.004 0.25,0.001 0.262,-0.006 0.268,-0.016 0.268,-0.027 0.268,-0.038 0.263,-0.048 0.253,-0.056 L 0.231,-0.057 c -0.01,0.005 -0.019,0.008 -0.026,0.008 -0.021,0 -0.031,-0.015 -0.031,-0.046 0,-0.025 0.006,-0.046 0.017,-0.063 0.003,-0.033 0.011,-0.055 0.022,-0.065 0.012,-0.01 0.034,-0.015 0.066,-0.015 0.012,0 0.029,-0.001 0.052,-0.003 0.023,-0.002 0.039,-0.003 0.048,-0.003 0.049,0 0.079,0.022 0.092,0.065 0.011,0.04 0.017,0.063 0.017,0.069 0,0.003 0,0.004 -0.001,0.005 0.004,0.038 -0.017,0.057 -0.064,0.057 -0.006,0 -0.015,-0.001 -0.026,-0.002 -0.001,0.005 -0.001,0.01 -0.001,0.014 0,0.026 0.017,0.039 0.051,0.039 C 0.46,0.003 0.493,0 0.502,0 0.608,0 0.683,-0.001 0.727,-0.003 Z M 0.41,-0.371 c 0.001,0.006 0.002,0.012 0.002,0.017 0,0.025 -0.018,0.038 -0.055,0.038 -0.005,0 -0.032,-0.003 -0.079,-0.01 L 0.26,-0.346 v -0.013 c 0.011,-0.03 0.023,-0.06 0.035,-0.09 0.021,-0.049 0.035,-0.075 0.043,-0.077 0.004,0.001 0.008,0.001 0.013,0 0.005,-0.001 0.008,-0.001 0.008,-0.001 0.003,0 0.006,0.005 0.009,0.015 0.007,0.03 0.013,0.055 0.019,0.075 0.003,0.004 0.006,0.015 0.011,0.033 0.005,0.018 0.009,0.029 0.012,0.033 z"
   style="fill:#111111;fill-rule:nonzero"
   id="path8"
   inkscape:connector-curvature="0" />
                </g>
                <g
   transform="matrix(100,0,0,100,396.385,160.986)"
   id="g14">
                    <path
   d="M 0.736,-0.217 C 0.731,-0.224 0.725,-0.227 0.72,-0.227 0.711,-0.227 0.702,-0.218 0.693,-0.2 L 0.676,-0.16 C 0.659,-0.121 0.629,-0.09 0.586,-0.067 0.548,-0.047 0.506,-0.035 0.46,-0.031 0.41,-0.026 0.357,-0.04 0.302,-0.073 0.247,-0.106 0.21,-0.145 0.192,-0.191 0.183,-0.198 0.171,-0.226 0.157,-0.277 0.144,-0.328 0.139,-0.36 0.142,-0.373 0.141,-0.377 0.14,-0.383 0.14,-0.392 c 0,-0.023 0.005,-0.054 0.015,-0.092 0.01,-0.038 0.02,-0.063 0.029,-0.076 0.011,-0.047 0.051,-0.098 0.094,-0.121 0.005,-0.008 0.013,-0.015 0.025,-0.021 0,0 0.01,-0.004 0.03,-0.013 0.037,-0.016 0.079,-0.024 0.128,-0.024 0.079,0 0.142,0.019 0.19,0.057 0.01,0.008 0.022,0.03 0.036,0.066 0.013,0.032 0.022,0.048 0.028,0.048 0.004,0 0.008,-0.005 0.012,-0.015 -0.001,-0.007 0,-0.021 0.001,-0.041 0.001,-0.026 0.001,-0.043 0.001,-0.052 0,-0.025 -0.003,-0.042 -0.008,-0.05 -0.105,-0.049 -0.204,-0.073 -0.297,-0.073 -0.072,0 -0.13,0.017 -0.174,0.051 L 0.239,-0.749 c -0.008,0.007 -0.031,0.024 -0.07,0.051 -0.029,0.021 -0.051,0.04 -0.065,0.055 -0.07,0.079 -0.105,0.166 -0.105,0.26 0,0.129 0.059,0.237 0.177,0.326 0.024,0.019 0.054,0.036 0.089,0.051 0.04,0.019 0.072,0.028 0.096,0.028 h 0.135 c 0.081,-0.033 0.143,-0.057 0.184,-0.07 0.019,-0.011 0.041,-0.023 0.049,-0.038 0,0.011 0.002,-0.033 0.007,-0.131 z"
   style="fill:#111111;fill-rule:nonzero"
   id="path12"
   inkscape:connector-curvature="0" />
                </g>
                <g
   transform="matrix(100,0,0,100,479.785,160.986)"
   id="g18">
                    <path
   d="M 0.714,-0.01 C 0.716,-0.025 0.702,-0.036 0.672,-0.041 0.639,-0.046 0.621,-0.055 0.617,-0.066 0.57,-0.115 0.518,-0.177 0.461,-0.25 L 0.314,-0.441 C 0.311,-0.454 0.342,-0.499 0.406,-0.576 0.463,-0.643 0.504,-0.688 0.528,-0.71 0.544,-0.724 0.564,-0.731 0.589,-0.73 l 0.034,-0.009 c 0.015,-0.004 0.023,-0.01 0.023,-0.017 0,-0.003 -0.001,-0.007 -0.004,-0.011 -0.085,-0.003 -0.15,-0.003 -0.194,-0.001 -0.024,0 -0.034,0 -0.031,-0.001 -0.013,0.001 -0.019,0.007 -0.017,0.017 l 0.013,0.013 c 0.023,0.009 0.034,0.022 0.034,0.039 0,0.004 -0.001,0.008 -0.002,0.012 C 0.408,-0.642 0.37,-0.596 0.333,-0.549 0.278,-0.482 0.24,-0.44 0.219,-0.425 L 0.205,-0.437 c -0.001,-0.069 -0.001,-0.105 0,-0.107 0,-0.005 -0.001,-0.018 -0.002,-0.038 -0.001,-0.02 -0.002,-0.036 -0.002,-0.048 0,-0.065 0.019,-0.098 0.057,-0.1 0.016,-0.001 0.041,-0.011 0.041,-0.023 0,-0.004 -0.002,-0.008 -0.006,-0.011 L 0.28,-0.771 0.023,-0.77 c -0.023,0 -0.034,0.004 -0.034,0.012 0,0.002 10e-4,0.004 0.002,0.007 0.003,0.005 0.012,0.009 0.028,0.013 0.019,0.005 0.031,0.009 0.036,0.012 0.02,0.014 0.03,0.036 0.03,0.065 0,0.008 -0.002,0.035 -0.002,0.047 0.003,0.074 0.001,0.222 -0.005,0.445 -0.001,0.005 0,0.015 0.001,0.028 0.001,0.015 0.001,0.027 0.001,0.034 0,0.041 -0.011,0.063 -0.032,0.068 l -0.05,0.013 -0.013,0.019 0.011,0.011 C 0.009,0.008 0.058,0.009 0.143,0.008 0.226,0.006 0.27,0.003 0.275,0 0.282,-0.006 0.282,-0.017 0.274,-0.032 L 0.253,-0.036 C 0.23,-0.041 0.216,-0.049 0.21,-0.06 0.204,-0.071 0.201,-0.094 0.201,-0.127 V -0.201 L 0.199,-0.28 V -0.364 C 0.198,-0.369 0.198,-0.373 0.198,-0.377 c 0,-0.012 0.003,-0.018 0.01,-0.018 0.022,0 0.075,0.056 0.16,0.169 0.079,0.105 0.119,0.163 0.121,0.172 C 0.49,-0.043 0.485,-0.035 0.473,-0.03 0.452,-0.021 0.441,-0.017 0.44,-0.016 0.439,-0.007 0.443,0 0.453,0.003 c 0.005,0 0.026,0 0.062,0.001 0.025,0.001 0.046,0 0.061,-0.003 C 0.577,0.001 0.581,0 0.588,-0.003 0.593,-0.005 0.597,-0.006 0.6,-0.005 0.639,-0.001 0.673,0 0.703,-0.001 Z"
   style="fill:#111111;fill-rule:nonzero"
   id="path16"
   inkscape:connector-curvature="0" />
                </g>
                <g
   transform="matrix(100,0,0,100,557.185,160.986)"
   id="g22">
                    <path
   d="m 1.019,-0.737 c 0.004,-0.011 -0.003,-0.022 -0.022,-0.032 -0.011,-0.001 -0.026,0 -0.046,0.002 -0.02,0.001 -0.035,0.002 -0.044,0.002 L 0.824,-0.767 c -0.005,0.007 -0.009,0.013 -0.01,0.019 l 0.009,0.014 0.022,0.016 c 0.007,0.006 0.011,0.016 0.011,0.031 0,0.041 -0.018,0.092 -0.054,0.154 l -0.001,0.012 c -0.009,0.009 -0.02,0.029 -0.034,0.06 -0.012,0.029 -0.02,0.051 -0.023,0.066 -0.011,0.024 -0.027,0.056 -0.049,0.095 -0.02,0.036 -0.034,0.064 -0.043,0.083 L 0.637,-0.215 0.554,-0.461 c 0,-0.003 0.012,-0.038 0.036,-0.106 0.024,-0.069 0.038,-0.107 0.041,-0.114 0.01,-0.019 0.021,-0.033 0.034,-0.04 0.019,-0.01 0.034,-0.019 0.046,-0.028 0.005,-0.013 0,-0.021 -0.013,-0.024 -0.002,0.001 -0.008,0.002 -0.017,0.003 -0.037,0.001 -0.057,0.001 -0.061,0.002 -0.025,0.004 -0.038,0.015 -0.038,0.033 0,0.009 0.003,0.02 0.009,0.033 -0.013,0.041 -0.033,0.093 -0.061,0.157 L 0.525,-0.546 C 0.516,-0.571 0.506,-0.595 0.497,-0.619 0.486,-0.65 0.479,-0.675 0.478,-0.694 0.477,-0.706 0.487,-0.721 0.509,-0.738 0.514,-0.751 0.516,-0.759 0.516,-0.761 0.516,-0.767 0.5,-0.77 0.469,-0.77 H 0.41 C 0.392,-0.771 0.377,-0.771 0.365,-0.771 c -0.04,0 -0.06,0.005 -0.06,0.014 0,0.007 0.011,0.018 0.033,0.034 l 0.052,0.129 c 0.022,0.057 0.034,0.101 0.036,0.13 0.017,0.047 0.028,0.084 0.034,0.11 -0.017,0.049 -0.031,0.086 -0.042,0.109 l -0.01,0.012 C 0.403,-0.228 0.398,-0.226 0.395,-0.228 0.382,-0.236 0.369,-0.259 0.356,-0.297 0.348,-0.324 0.34,-0.352 0.333,-0.379 L 0.27,-0.544 C 0.238,-0.625 0.221,-0.676 0.219,-0.697 0.218,-0.706 0.223,-0.715 0.234,-0.725 0.251,-0.74 0.259,-0.747 0.259,-0.748 0.258,-0.761 0.254,-0.767 0.245,-0.767 c -0.103,0.001 -0.18,0.001 -0.232,0 l -0.014,0.007 c -0.003,0.005 -0.004,0.01 -0.004,0.013 0,0.009 0.015,0.017 0.044,0.024 0.03,0.007 0.046,0.019 0.048,0.036 0.008,0.009 0.049,0.117 0.123,0.324 0.072,0.201 0.113,0.319 0.122,0.352 0.01,0.013 0.016,0.022 0.017,0.026 0.013,0.004 0.017,-0.009 0.021,-0.02 0.039,-0.089 0.068,-0.161 0.085,-0.216 0.009,-0.029 0.019,-0.043 0.03,-0.041 0.025,0.028 0.045,0.073 0.058,0.134 0.016,0.073 0.03,0.121 0.041,0.142 0.009,0.002 0.017,0.002 0.024,-0.001 0.007,-0.012 0.017,-0.036 0.03,-0.072 0.012,-0.03 0.023,-0.053 0.034,-0.07 0.002,-0.01 0.009,-0.026 0.02,-0.048 0.011,-0.019 0.016,-0.035 0.015,-0.048 0.004,-0.006 0.011,-0.013 0.022,-0.021 0.078,-0.201 0.135,-0.33 0.171,-0.385 0.001,-0.012 0.009,-0.028 0.025,-0.048 0.016,-0.021 0.03,-0.034 0.041,-0.039 0.004,-0.004 0.01,-0.006 0.019,-0.006 0.015,0 0.026,-0.004 0.034,-0.013 z"
   style="fill:#111111;fill-rule:nonzero"
   id="path20"
   inkscape:connector-curvature="0" />
                </g>
                <g
   transform="matrix(100,0,0,100,665.385,160.986)"
   id="g26">
                    <path
   d="M 0.406,-0.002 C 0.533,-0.015 0.632,-0.06 0.701,-0.137 0.763,-0.206 0.794,-0.289 0.794,-0.386 0.794,-0.493 0.759,-0.585 0.688,-0.661 0.611,-0.744 0.513,-0.783 0.394,-0.778 0.277,-0.78 0.182,-0.738 0.109,-0.653 c -0.067,0.078 -0.101,0.171 -0.101,0.279 0,0.101 0.03,0.185 0.091,0.253 0.068,0.076 0.163,0.116 0.286,0.121 z m 0.275,-0.309 c -0.004,0.072 -0.033,0.137 -0.088,0.195 -0.057,0.06 -0.121,0.09 -0.192,0.089 H 0.372 C 0.304,-0.03 0.246,-0.061 0.198,-0.12 0.15,-0.18 0.126,-0.25 0.125,-0.331 c 0,-0.002 -0.001,-0.014 -0.003,-0.036 -0.001,-0.015 0,-0.029 0.001,-0.044 C 0.12,-0.502 0.145,-0.58 0.198,-0.646 0.251,-0.712 0.313,-0.743 0.386,-0.738 L 0.419,-0.74 c 0.069,-0.002 0.13,0.027 0.182,0.087 0.049,0.057 0.075,0.122 0.076,0.193 0.007,0.018 0.009,0.068 0.004,0.149 z"
   style="fill:#111111;fill-rule:nonzero"
   id="path24"
   inkscape:connector-curvature="0" />
                </g>
                <g
   transform="matrix(100,0,0,100,754.185,160.986)"
   id="g30">
                    <path
   d="M 0.682,-0.035 C 0.654,-0.032 0.632,-0.041 0.616,-0.062 0.604,-0.079 0.594,-0.105 0.587,-0.14 0.581,-0.169 0.575,-0.197 0.57,-0.226 0.565,-0.243 0.552,-0.262 0.531,-0.283 0.508,-0.306 0.494,-0.322 0.49,-0.332 0.473,-0.341 0.461,-0.35 0.453,-0.36 0.43,-0.369 0.419,-0.376 0.419,-0.383 c 0,-0.003 0.002,-0.007 0.007,-0.01 0.012,-0.01 0.03,-0.018 0.053,-0.025 0.026,-0.007 0.044,-0.014 0.053,-0.02 0.018,-0.011 0.033,-0.03 0.044,-0.055 l 0.007,-0.03 c 0.003,-0.012 0.006,-0.021 0.011,-0.028 0.003,-0.016 0.004,-0.031 0.004,-0.045 0,-0.117 -0.094,-0.175 -0.282,-0.175 -0.027,0 -0.061,0.001 -0.103,0.004 -0.045,0.002 -0.073,0.003 -0.086,0.003 -0.045,0.002 -0.089,0.003 -0.131,0.002 -0.002,0.006 -0.003,0.011 -0.003,0.016 0,0.013 0.01,0.02 0.031,0.021 0.025,0.001 0.041,0.007 0.048,0.018 0.011,0.015 0.016,0.033 0.017,0.054 l -0.002,0.054 c 0.006,0.23 0.006,0.352 -0.001,0.367 0.003,0.007 0.005,0.023 0.005,0.049 0,0.071 -0.008,0.11 -0.024,0.117 -0.007,0.014 -0.018,0.021 -0.033,0.021 -0.007,0 -0.031,-0.004 -0.039,-0.003 -0.003,0.008 -0.005,0.015 -0.005,0.021 0,0.015 0.013,0.025 0.039,0.028 C 0.044,0.002 0.071,0.002 0.111,0 0.145,-0.001 0.166,0 0.175,0.003 0.25,0.008 0.287,-0.006 0.288,-0.037 L 0.276,-0.049 C 0.249,-0.047 0.231,-0.052 0.22,-0.065 0.211,-0.075 0.207,-0.091 0.206,-0.114 c 0,-0.021 0,-0.041 0.001,-0.061 -0.001,-0.001 -0.002,-0.014 -0.003,-0.04 -0.002,-0.023 -0.003,-0.043 -0.003,-0.06 0,-0.053 0.008,-0.083 0.024,-0.09 0.005,-0.003 0.013,-0.005 0.022,-0.005 0.029,0 0.06,0.009 0.093,0.026 0.031,0.016 0.055,0.043 0.074,0.081 0.007,0.015 0.02,0.052 0.039,0.109 0.015,0.045 0.03,0.078 0.047,0.099 0.014,0.018 0.04,0.036 0.078,0.055 0.005,0 0.016,0.001 0.031,0.002 0.016,0.001 0.028,0.002 0.036,0.002 0.027,0 0.04,-0.007 0.04,-0.022 0,-0.005 -0.001,-0.01 -0.003,-0.017 z m -0.228,-0.55 c 0.003,0.012 0.004,0.024 0.004,0.036 0,0.055 -0.024,0.096 -0.072,0.123 C 0.348,-0.405 0.3,-0.394 0.241,-0.394 0.226,-0.394 0.213,-0.397 0.202,-0.403 0.201,-0.416 0.203,-0.43 0.21,-0.444 0.21,-0.447 0.209,-0.472 0.206,-0.519 0.203,-0.562 0.202,-0.593 0.202,-0.614 c 0,-0.019 0.001,-0.031 0.003,-0.036 -0.001,-0.006 -0.001,-0.011 -0.001,-0.016 0,-0.051 0.037,-0.077 0.089,-0.077 0.04,0 0.076,0.012 0.108,0.037 0.036,0.027 0.054,0.061 0.054,0.102 0,0.007 0,0.013 -0.001,0.019 z"
   style="fill:#111111;fill-rule:nonzero"
   id="path28"
   inkscape:connector-curvature="0" />
                </g>
                <g
   transform="matrix(100,0,0,100,828.685,160.986)"
   id="g34">
                    <path
   d="M 0.73,-0.766 C 0.726,-0.768 0.681,-0.769 0.596,-0.769 0.519,-0.769 0.405,-0.768 0.252,-0.766 0.095,-0.764 0.016,-0.763 0.014,-0.763 0.005,-0.756 0,-0.731 0,-0.689 c 0,0.048 0.006,0.076 0.017,0.084 L 0.031,-0.617 C 0.034,-0.65 0.047,-0.674 0.071,-0.689 0.09,-0.705 0.105,-0.716 0.117,-0.722 h 0.138 c 0.021,0.001 0.033,0.009 0.036,0.024 0.004,0.033 0.008,0.067 0.011,0.1 -0.003,0.005 -0.005,0.083 -0.006,0.232 -0.001,0.167 -0.001,0.258 -0.002,0.275 -0.002,0.029 -0.028,0.049 -0.077,0.06 -0.007,0.005 -0.009,0.017 -0.007,0.036 0.009,0.007 0.095,0.007 0.258,0 0.017,-0.008 0.026,-0.015 0.026,-0.02 0,-0.004 -0.013,-0.012 -0.04,-0.025 C 0.427,-0.053 0.413,-0.067 0.411,-0.084 0.406,-0.12 0.405,-0.219 0.406,-0.38 0.407,-0.542 0.41,-0.639 0.415,-0.67 c 0.006,-0.037 0.03,-0.055 0.073,-0.055 0.007,0 0.017,0.001 0.032,0.002 0.015,0.001 0.026,0.001 0.033,0 0.047,-0.001 0.077,-0.001 0.09,0.002 0.009,0.001 0.016,0.006 0.019,0.015 0.005,0.012 0.013,0.022 0.026,0.031 0.007,0.02 0.013,0.035 0.018,0.044 l 0.018,0.004 c 0.005,-0.006 0.008,-0.028 0.009,-0.067 0.001,-0.037 0,-0.061 -0.003,-0.072 z"
   style="fill:#111111;fill-rule:nonzero"
   id="path32"
   inkscape:connector-curvature="0" />
                </g>
                <g
   transform="matrix(100,0,0,100,909.585,160.986)"
   id="g38">
                    <path
   d="m 0.718,-0.775 c -0.033,0 -0.067,0 -0.1,-0.001 -0.056,0.001 -0.086,0.004 -0.089,0.009 l 0.008,0.02 0.032,0.013 0.006,0.007 c 0.003,0.015 0.004,0.066 0.004,0.153 C 0.578,-0.489 0.577,-0.437 0.575,-0.417 0.56,-0.404 0.55,-0.398 0.544,-0.398 H 0.241 C 0.217,-0.397 0.198,-0.402 0.183,-0.413 0.166,-0.425 0.159,-0.442 0.162,-0.464 0.162,-0.467 0.161,-0.475 0.16,-0.488 0.159,-0.498 0.159,-0.506 0.162,-0.511 0.159,-0.522 0.158,-0.54 0.158,-0.565 c 0,-0.067 0.005,-0.116 0.016,-0.147 0.005,-0.013 0.01,-0.02 0.015,-0.022 0.009,-0.003 0.016,-0.007 0.019,-0.01 L 0.215,-0.763 0.206,-0.772 C 0.088,-0.776 0.024,-0.776 0.015,-0.773 0.009,-0.77 0.006,-0.764 0.005,-0.755 l 0.041,0.03 c 0.005,0.007 0.008,0.023 0.008,0.05 v 0.399 c 0,0.144 -0.001,0.218 -0.004,0.221 -0.003,0.003 -0.013,0.01 -0.032,0.021 -0.019,0.011 -0.028,0.018 -0.028,0.021 L -0.007,-0.009 -0.008,0 C 0.006,0.008 0.024,0.011 0.047,0.008 0.07,0.006 0.085,0.007 0.094,0.01 L 0.154,0.008 C 0.184,0.007 0.202,0.004 0.208,-0.002 V -0.02 C 0.185,-0.029 0.171,-0.039 0.167,-0.052 0.166,-0.055 0.166,-0.072 0.166,-0.102 v -0.15 c 0,-0.051 0.006,-0.081 0.017,-0.092 0.012,-0.011 0.045,-0.017 0.099,-0.017 0.112,0 0.174,0.002 0.185,0.006 H 0.54 c 0.029,0 0.044,0.046 0.044,0.139 0,0.019 -0.001,0.039 -0.002,0.06 -0.001,0.021 -0.002,0.03 -0.002,0.027 0,0.048 -0.003,0.077 -0.01,0.087 l -0.02,0.013 c -0.015,0.001 -0.026,0.008 -0.033,0.023 l 0.019,0.014 c 0.112,0 0.171,-0.001 0.176,-0.003 0.013,0.003 0.025,-0.008 0.025,-0.021 0,-0.003 -0.001,-0.005 -0.002,-0.008 C 0.725,-0.027 0.715,-0.031 0.704,-0.034 0.689,-0.039 0.682,-0.045 0.682,-0.052 0.682,-0.091 0.681,-0.16 0.68,-0.258 0.679,-0.345 0.678,-0.414 0.679,-0.464 0.68,-0.539 0.682,-0.608 0.685,-0.669 0.686,-0.7 0.692,-0.721 0.701,-0.73 0.704,-0.733 0.713,-0.737 0.726,-0.741 0.735,-0.743 0.739,-0.751 0.739,-0.765 Z"
   style="fill:#111111;fill-rule:nonzero"
   id="path36"
   inkscape:connector-curvature="0" />
                </g>
            </g>
        </g>
    </g>
</svg>