<?xml version="1.0" encoding="utf-8"?>
<!-- Generator: Adobe Illustrator 19.2.1, SVG Export Plug-In . SVG Version: 6.00 Build 0)  -->
<svg version="1.1" id="Ebene_1" xmlns="http://www.w3.org/2000/svg" xmlns:xlink="http://www.w3.org/1999/xlink" x="0px" y="0px"
	 viewBox="0 0 213.703 71.405" style="enable-background:new 0 0 213.703 71.405;" xml:space="preserve">
<style type="text/css">
	.st0{fill:#0065A3;}
	.st1{fill:#C6C7C8;}
	.st2{fill:#1A171B;}
</style>
<g>
	<rect y="1.652" class="st0" width="16.78" height="16.778"/>
	<rect y="32.009" class="st0" width="16.78" height="16.777"/>
	<rect x="28.987" y="32.009" class="st0" width="16.78" height="16.777"/>
	
		<rect x="28.815" y="1.466" transform="matrix(0.9811 -0.1932 0.1932 0.9811 -1.2028 7.3757)" class="st1" width="16.781" height="16.775"/>
	<polygon class="st2" points="62.548,64.712 66.044,64.712 66.044,65.542 63.491,65.542 63.491,67.464 65.931,67.464 65.931,68.291 
		63.491,68.291 63.491,71.288 62.548,71.288 	"/>
	<polygon class="st2" points="67.741,64.712 68.683,64.712 68.683,67.464 71.828,67.464 71.828,64.712 72.772,64.712 72.772,71.288 
		71.828,71.288 71.828,68.291 68.683,68.291 68.683,71.288 67.741,71.288 	"/>
	<path class="st2" d="M77.701,70.571c1.517,0,2.166-1.261,2.166-2.571c0-1.337-0.716-2.579-2.166-2.571
		c-1.45-0.008-2.166,1.234-2.166,2.571C75.536,69.31,76.185,70.571,77.701,70.571 M77.701,64.599c1.997,0,3.165,1.455,3.165,3.401
		c0,1.998-1.159,3.403-3.165,3.403c-2.007,0-3.165-1.405-3.165-3.403C74.536,66.054,75.704,64.599,77.701,64.599"/>
	<polygon class="st2" points="85.524,64.712 89.02,64.712 89.02,65.542 86.468,65.542 86.468,67.464 88.907,67.464 88.907,68.291 
		86.468,68.291 86.468,71.288 85.524,71.288 	"/>
	<path class="st2" d="M93.439,69c-0.187,0-0.375-0.02-0.565-0.02c-0.481,0-1.666,0.075-1.666,0.923c0,0.509,0.488,0.783,0.894,0.783
		c0.876,0,1.337-0.549,1.337-1.263V69z M90.811,66.823c0.442-0.265,0.97-0.452,1.582-0.452c1.377,0,1.932,0.68,1.932,1.988v1.988
		c0,0.544,0.02,0.801,0.037,0.94h-0.828v-0.62h-0.02c-0.206,0.289-0.678,0.735-1.487,0.735c-1.037,0-1.762-0.452-1.762-1.499
		c0-1.205,1.319-1.583,2.232-1.583c0.348,0,0.594,0,0.941,0.021c0-0.83-0.301-1.253-1.186-1.253c-0.499,0-1.037,0.186-1.394,0.487
		L90.811,66.823z"/>
	<path class="st2" d="M99.253,67.296c-0.337-0.142-0.678-0.207-0.959-0.207c-0.991,0-1.546,0.885-1.546,1.796
		c0,0.859,0.462,1.8,1.601,1.8c0.301,0,0.679-0.096,0.952-0.272l0.066,0.79c-0.368,0.171-0.792,0.2-1.112,0.2
		c-1.45,0-2.449-1.14-2.449-2.518c0-1.457,0.979-2.514,2.449-2.514c0.357,0,0.819,0.085,1.074,0.188L99.253,67.296z"/>
	<path class="st2" d="M100.764,64.224h0.885v2.949h0.02c0.32-0.511,0.876-0.801,1.545-0.801c1.242,0,1.799,0.772,1.799,2.064v2.852
		h-0.886v-2.484c0-1.124-0.246-1.67-1.018-1.715c-1.008,0-1.46,0.809-1.46,1.977v2.222h-0.885V64.224z"/>
	<path class="st2" d="M106.899,64.224h0.886v2.949h0.016c0.323-0.511,0.88-0.801,1.547-0.801c1.242,0,1.799,0.772,1.799,2.064v2.852
		h-0.885v-2.484c0-1.124-0.247-1.67-1.019-1.715c-1.006,0-1.458,0.809-1.458,1.977v2.222h-0.886V64.224z"/>
	<path class="st2" d="M115.162,70.686c1.037,0,1.5-0.943,1.5-1.801c0-0.911-0.557-1.796-1.5-1.796c-0.951,0-1.509,0.885-1.509,1.796
		C113.653,69.744,114.118,70.686,115.162,70.686 M115.162,66.372c1.46,0,2.442,1.056,2.442,2.513c0,1.379-1.001,2.518-2.442,2.518
		c-1.45,0-2.45-1.14-2.45-2.518C112.712,67.427,113.691,66.372,115.162,66.372"/>
	<path class="st2" d="M122.221,67.296c-0.339-0.142-0.678-0.207-0.961-0.207c-0.989,0-1.544,0.885-1.544,1.796
		c0,0.859,0.461,1.8,1.599,1.8c0.305,0,0.68-0.096,0.951-0.272l0.066,0.79c-0.366,0.171-0.788,0.2-1.111,0.2
		c-1.447,0-2.446-1.14-2.446-2.518c0-1.457,0.978-2.514,2.446-2.514c0.36,0,0.822,0.085,1.075,0.188L122.221,67.296z"/>
	<path class="st2" d="M123.731,64.224h0.885v2.949h0.018c0.32-0.511,0.874-0.801,1.547-0.801c1.242,0,1.799,0.772,1.799,2.064v2.852
		h-0.89v-2.484c0-1.124-0.239-1.67-1.014-1.715c-1.008,0-1.46,0.809-1.46,1.977v2.222h-0.885V64.224z"/>
	<path class="st2" d="M129.508,70.348c0.349,0.223,0.848,0.339,1.1,0.339c0.407,0,0.906-0.171,0.906-0.688
		c0-0.877-2.083-0.801-2.083-2.148c0-0.998,0.743-1.479,1.696-1.479c0.415,0,0.754,0.083,1.099,0.186l-0.072,0.775
		c-0.197-0.123-0.725-0.244-0.932-0.244c-0.454,0-0.848,0.186-0.848,0.583c0,0.98,2.082,0.699,2.082,2.232
		c0,1.027-0.822,1.499-1.678,1.499c-0.452,0-0.914-0.05-1.318-0.265L129.508,70.348z"/>
	<path class="st2" d="M136.961,67.296c-0.341-0.142-0.678-0.207-0.961-0.207c-0.987,0-1.544,0.885-1.544,1.796
		c0,0.859,0.461,1.8,1.602,1.8c0.299,0,0.678-0.096,0.948-0.272l0.068,0.79c-0.369,0.171-0.79,0.2-1.113,0.2
		c-1.45,0-2.449-1.14-2.449-2.518c0-1.457,0.981-2.514,2.449-2.514c0.36,0,0.819,0.085,1.077,0.188L136.961,67.296z"/>
	<path class="st2" d="M138.471,64.224h0.885v2.949h0.018c0.318-0.511,0.877-0.801,1.544-0.801c1.242,0,1.799,0.772,1.799,2.064
		v2.852h-0.882v-2.484c0-1.124-0.247-1.67-1.019-1.715c-1.011,0-1.46,0.809-1.46,1.977v2.222h-0.885V64.224z"/>
	<path class="st2" d="M148.852,71.288h-0.856v-0.762h-0.016c-0.268,0.546-0.909,0.877-1.578,0.877c-1.242,0-1.796-0.775-1.796-2.064
		v-2.855h0.885v2.487c0,1.121,0.244,1.665,1.016,1.715c1.006,0,1.46-0.811,1.46-1.98v-2.222h0.885V71.288z"/>
	<rect x="150.85" y="64.225" class="st2" width="0.888" height="7.063"/>
	<path class="st2" d="M156.846,68.425c0-0.735-0.436-1.338-1.197-1.338c-0.867,0-1.225,0.716-1.289,1.338H156.846z M157.418,71.091
		c-0.339,0.123-0.725,0.314-1.518,0.314c-1.703,0-2.487-1.039-2.487-2.601c0-1.426,0.898-2.432,2.253-2.432
		c1.602,0,2.118,1.167,2.118,2.713h-3.426c0,0.951,0.743,1.602,1.581,1.602c0.586,0,1.261-0.302,1.478-0.481V71.091z"/>
	<path class="st2" d="M165.26,70.571c1.515,0,2.167-1.261,2.167-2.571c0-1.337-0.714-2.579-2.167-2.571
		c-1.45-0.008-2.166,1.234-2.166,2.571C163.093,69.31,163.745,70.571,165.26,70.571 M165.26,64.599c1.998,0,3.164,1.455,3.164,3.401
		c0,1.998-1.158,3.403-3.164,3.403s-3.164-1.405-3.164-3.403C162.095,66.054,163.264,64.599,165.26,64.599"/>
	<path class="st2" d="M169.703,70.348c0.347,0.223,0.846,0.339,1.1,0.339c0.404,0,0.903-0.171,0.903-0.688
		c0-0.877-2.084-0.801-2.084-2.148c0-0.998,0.747-1.479,1.698-1.479c0.415,0,0.754,0.083,1.102,0.186l-0.075,0.775
		c-0.2-0.123-0.725-0.244-0.934-0.244c-0.45,0-0.847,0.186-0.847,0.583c0,0.98,2.081,0.699,2.081,2.232
		c0,1.027-0.818,1.499-1.677,1.499c-0.453,0-0.911-0.05-1.318-0.265L169.703,70.348z"/>
	<path class="st2" d="M176.654,67.199h-1.271v2.631c0,0.554,0.339,0.856,0.746,0.856c0.271,0,0.47-0.084,0.601-0.171v0.754
		c-0.197,0.058-0.473,0.134-0.754,0.134c-0.914,0-1.48-0.436-1.48-1.394v-2.81h-1.081v-0.714h1.081v-1.111l0.886-0.284v1.394h1.271
		V67.199z"/>
	<path class="st2" d="M177.786,70.348c0.347,0.223,0.848,0.339,1.1,0.339c0.407,0,0.906-0.171,0.906-0.688
		c0-0.877-2.08-0.801-2.08-2.148c0-0.998,0.743-1.479,1.694-1.479c0.415,0,0.754,0.083,1.103,0.186l-0.076,0.775
		c-0.197-0.123-0.722-0.244-0.932-0.244c-0.454,0-0.848,0.186-0.848,0.583c0,0.98,2.083,0.699,2.083,2.232
		c0,1.027-0.819,1.499-1.675,1.499c-0.454,0-0.917-0.05-1.318-0.265L177.786,70.348z"/>
	<path class="st2" d="M185.239,67.296c-0.339-0.142-0.68-0.207-0.961-0.207c-0.987,0-1.544,0.885-1.544,1.796
		c0,0.859,0.461,1.8,1.602,1.8c0.299,0,0.678-0.096,0.951-0.272l0.066,0.79c-0.368,0.171-0.793,0.2-1.114,0.2
		c-1.45,0-2.448-1.14-2.448-2.518c0-1.457,0.982-2.514,2.448-2.514c0.358,0,0.819,0.085,1.077,0.188L185.239,67.296z"/>
	<path class="st2" d="M186.749,64.224h0.885v2.949h0.018c0.32-0.511,0.877-0.801,1.544-0.801c1.245,0,1.799,0.772,1.799,2.064v2.852
		h-0.885v-2.484c0-1.124-0.244-1.67-1.016-1.715c-1.008,0-1.46,0.809-1.46,1.977v2.222h-0.885V64.224z"/>
	<polygon class="st2" points="198.32,71.288 197.29,71.288 196.048,67.257 196.03,67.257 194.816,71.288 193.787,71.288 
		192.242,66.485 193.214,66.485 194.313,70.461 194.333,70.461 195.557,66.485 196.605,66.485 197.807,70.461 197.829,70.461 
		198.997,66.485 199.862,66.485 	"/>
	<path class="st2" d="M204.218,68.425c0-0.735-0.431-1.338-1.195-1.338c-0.867,0-1.225,0.716-1.289,1.338H204.218z M204.793,71.091
		c-0.339,0.123-0.725,0.314-1.515,0.314c-1.706,0-2.491-1.039-2.491-2.601c0-1.426,0.895-2.432,2.254-2.432
		c1.602,0,2.118,1.167,2.118,2.713h-3.426c0,0.951,0.743,1.602,1.581,1.602c0.586,0,1.263-0.302,1.479-0.481V71.091z"/>
	<path class="st2" d="M206.84,71.288h0.886v-4.803h-0.886V71.288z M206.786,65.413h0.995V64.41h-0.995V65.413z"/>
	<polygon class="st2" points="209.375,70.516 212.145,67.199 209.509,67.199 209.509,66.485 213.17,66.485 213.17,67.257 
		210.402,70.571 213.271,70.571 213.271,71.288 209.375,71.288 	"/>
	<polygon class="st2" points="62.616,1.641 65.992,1.641 65.992,8.439 72.741,8.439 72.741,1.641 76.116,1.641 76.116,18.465 
		72.741,18.465 72.741,11.089 65.992,11.089 65.992,18.465 62.616,18.465 	"/>
	<path class="st2" d="M91.936,4.726c-1.061-0.46-2.243-0.722-3.423-0.722c-1.153,0-2.648,0.508-2.648,2.332
		c0,2.919,7.375,1.688,7.375,7.329c0,3.688-2.92,5.086-6.316,5.086c-1.831,0-2.648-0.239-4.312-0.647l0.314-3.04
		c1.156,0.629,2.48,1.036,3.806,1.036c1.278,0,2.989-0.647,2.989-2.164c0-3.208-7.372-1.879-7.372-7.449
		c0-3.761,2.915-5.135,5.878-5.135c1.444,0,2.793,0.198,4.025,0.604L91.936,4.726z"/>
	<path class="st2" d="M98.894,1.641h3.636c3.617,0,7.933-0.122,7.933,4.554c0,1.979-1.327,3.617-3.469,3.905v0.049
		c0.915,0.068,1.444,0.993,1.779,1.732l2.705,6.585h-3.762l-2.023-5.255c-0.482-1.255-0.917-1.733-2.339-1.733h-1.087v6.988h-3.373
		V1.641z M102.267,8.824h1.111c1.662,0,3.563-0.244,3.563-2.337c0-2.029-1.876-2.193-3.563-2.193h-1.111V8.824z"/>
	<polygon class="st2" points="62.58,26.567 63.596,26.567 63.596,29.524 66.974,29.524 66.974,26.567 67.988,26.567 67.988,33.635 
		66.974,33.635 66.974,30.413 63.596,30.413 63.596,33.635 62.58,33.635 	"/>
	<path class="st2" d="M73.884,26.447c2.146,0,3.405,1.557,3.405,3.653c0,2.148-1.248,3.658-3.405,3.658
		c-2.158,0-3.403-1.51-3.403-3.658C70.482,28.005,71.738,26.447,73.884,26.447 M73.884,32.865c1.63,0,2.328-1.355,2.328-2.765
		c0-1.434-0.768-2.774-2.328-2.763c-1.558-0.012-2.329,1.329-2.329,2.763C71.556,31.51,72.255,32.865,73.884,32.865"/>
	<path class="st2" d="M84.611,27.73c-0.447-0.259-0.942-0.394-1.456-0.394c-1.63,0-2.713,1.171-2.713,2.764
		c0,1.66,1.192,2.765,2.662,2.765c0.501,0,1.182-0.13,1.537-0.345l0.058,0.977c-0.536,0.226-1.192,0.264-1.608,0.264
		c-2.237,0-3.724-1.439-3.724-3.692c0-2.176,1.58-3.621,3.737-3.621c0.543,0,1.083,0.075,1.587,0.306L84.611,27.73z"/>
	<polygon class="st2" points="86.975,26.567 87.986,26.567 87.986,29.524 91.371,29.524 91.371,26.567 92.381,26.567 92.381,33.635 
		91.371,33.635 91.371,30.413 87.986,30.413 87.986,33.635 86.975,33.635 	"/>
	<path class="st2" d="M98.452,27.63c-0.516-0.204-0.801-0.294-1.329-0.294c-0.562,0-1.23,0.207-1.23,0.941
		c0,1.355,3.034,1.046,3.034,3.372c0,1.509-1.163,2.111-2.58,2.111c-0.498,0-0.984-0.148-1.451-0.299l0.105-0.94
		c0.34,0.141,0.955,0.343,1.468,0.343c0.577,0,1.388-0.319,1.388-1.145c0-1.588-3.038-1.15-3.038-3.351
		c0-1.254,0.988-1.921,2.266-1.921c0.465,0,1.025,0.079,1.506,0.255L98.452,27.63z"/>
	<path class="st2" d="M106.193,27.73c-0.448-0.259-0.941-0.394-1.456-0.394c-1.632,0-2.717,1.171-2.717,2.764
		c0,1.66,1.198,2.765,2.668,2.765c0.504,0,1.183-0.13,1.536-0.345l0.063,0.977c-0.541,0.226-1.198,0.264-1.612,0.264
		c-2.236,0-3.726-1.439-3.726-3.692c0-2.176,1.578-3.621,3.739-3.621c0.543,0,1.081,0.075,1.585,0.306L106.193,27.73z"/>
	<polygon class="st2" points="108.557,26.567 109.571,26.567 109.571,29.524 112.949,29.524 112.949,26.567 113.966,26.567 
		113.966,33.635 112.949,33.635 112.949,30.413 109.571,30.413 109.571,33.635 108.557,33.635 	"/>
	<path class="st2" d="M122.321,30.708c0,1.981-0.999,3.049-2.742,3.049c-1.741,0-2.742-1.067-2.742-3.049v-4.141h1.012v4.011
		c0,1.36,0.421,2.286,1.729,2.286c1.304,0,1.731-0.926,1.731-2.286v-4.011h1.011V30.708z"/>
	<polygon class="st2" points="125.133,26.567 126.144,26.567 126.144,32.743 129.101,32.743 129.101,33.635 125.133,33.635 	"/>
	<polygon class="st2" points="131.262,26.567 135.22,26.567 135.22,27.453 132.273,27.453 132.273,29.524 134.963,29.524 
		134.963,30.413 132.273,30.413 132.273,32.743 135.22,32.743 135.22,33.635 131.262,33.635 	"/>
	<polygon class="st2" points="141.614,26.567 145.367,26.567 145.367,27.453 142.628,27.453 142.628,29.524 145.252,29.524 
		145.252,30.413 142.628,30.413 142.628,33.635 141.614,33.635 	"/>
	<path class="st2" d="M153.245,30.708c0,1.981-1.003,3.053-2.744,3.053c-1.741,0-2.747-1.071-2.747-3.053v-4.141h1.016v4.011
		c0,1.36,0.42,2.287,1.731,2.287c1.305,0,1.731-0.927,1.731-2.287v-4.011h1.014V30.708z M149.191,24.967h0.953v1.014h-0.953V24.967z
		 M150.856,24.967h0.951v1.014h-0.951V24.967z"/>
	<path class="st2" d="M156.005,26.567h1.728c1.397,0,2.742,0.223,2.742,1.917c0,0.861-0.633,1.467-1.455,1.606v0.018
		c0.315,0.123,0.465,0.273,0.688,0.714l1.337,2.814h-1.155l-1.079-2.455c-0.318-0.689-0.649-0.689-1.19-0.689h-0.604v3.145h-1.011
		V26.567z M157.017,29.608h0.864c0.956,0,1.528-0.429,1.528-1.108c0-0.634-0.488-1.044-1.418-1.044h-0.974V29.608z"/>
	<polygon class="st2" points="168.492,27.456 166.294,27.456 166.294,26.567 171.702,26.567 171.702,27.456 169.504,27.456 
		169.504,33.639 168.492,33.639 	"/>
	<polygon class="st2" points="173.771,26.567 177.728,26.567 177.728,27.453 174.782,27.453 174.782,29.524 177.468,29.524 
		177.468,30.413 174.782,30.413 174.782,32.743 177.728,32.743 177.728,33.635 173.771,33.635 	"/>
	<path class="st2" d="M185.239,27.73c-0.446-0.259-0.943-0.394-1.455-0.394c-1.636,0-2.721,1.171-2.721,2.764
		c0,1.66,1.195,2.765,2.668,2.765c0.502,0,1.182-0.13,1.534-0.345l0.062,0.977c-0.534,0.226-1.196,0.264-1.608,0.264
		c-2.24,0-3.724-1.439-3.724-3.692c0-2.176,1.577-3.621,3.737-3.621c0.546,0,1.079,0.075,1.586,0.306L185.239,27.73z"/>
	<polygon class="st2" points="187.597,26.567 188.616,26.567 188.616,29.524 191.995,29.524 191.995,26.567 193.006,26.567 
		193.006,33.635 191.995,33.635 191.995,30.413 188.616,30.413 188.616,33.635 187.597,33.635 	"/>
	<polygon class="st2" points="195.859,26.567 197.238,26.567 200.352,32.26 200.373,32.26 200.373,26.567 201.387,26.567 
		201.387,33.635 200.088,33.635 196.888,27.822 196.873,27.822 196.873,33.635 195.859,33.635 	"/>
	<rect x="204.186" y="26.564" class="st2" width="1.011" height="7.071"/>
	<polygon class="st2" points="208.06,26.567 209.073,26.567 209.073,29.676 212.093,26.567 213.438,26.567 210.119,29.906 
		213.703,33.635 212.225,33.635 209.073,30.171 209.073,33.635 208.06,33.635 	"/>
	<path class="st2" d="M62.595,41.78h1.731c1.398,0,2.746,0.221,2.746,1.913c0,0.86-0.638,1.465-1.46,1.608v0.022
		c0.318,0.121,0.469,0.273,0.688,0.708l1.339,2.815h-1.156l-1.081-2.452c-0.314-0.689-0.648-0.689-1.186-0.689H63.61v3.141h-1.015
		V41.78z M63.61,44.814h0.861c0.96,0,1.526-0.424,1.526-1.1c0-0.641-0.487-1.044-1.417-1.044h-0.97V44.814z"/>
	<path class="st2" d="M72.089,41.777h1.062l2.985,7.069h-1.101l-0.718-1.781h-3.463l-0.718,1.781H69.07L72.089,41.777z
		 M72.584,42.733l-1.407,3.499h2.813L72.584,42.733z"/>
	<path class="st2" d="M78.107,41.777h1.851c1.446,0,2.654,0.513,2.654,2.117c0,1.57-1.225,2.124-2.501,2.124h-0.993v2.828h-1.012
		V41.777z M79.119,45.131h1.002c0.626,0,1.415-0.317,1.415-1.249c0-0.893-0.931-1.212-1.557-1.212h-0.859V45.131z"/>
	<path class="st2" d="M84.745,41.777h1.851c1.448,0,2.653,0.513,2.653,2.117c0,1.57-1.228,2.124-2.501,2.124h-0.994v2.828h-1.01
		V41.777z M85.755,45.131h1.004c0.627,0,1.417-0.317,1.417-1.249c0-0.893-0.933-1.212-1.557-1.212h-0.865V45.131z"/>
	<polygon class="st2" points="91.492,41.777 95.452,41.777 95.452,42.67 92.507,42.67 92.507,44.734 95.19,44.734 95.19,45.626 
		92.507,45.626 92.507,47.952 95.452,47.952 95.452,48.847 91.492,48.847 	"/>
	<path class="st2" d="M98.018,41.78h1.731c1.4,0,2.743,0.221,2.743,1.913c0,0.86-0.634,1.465-1.453,1.608v0.022
		c0.313,0.121,0.461,0.273,0.689,0.708l1.333,2.815h-1.152l-1.087-2.452c-0.309-0.689-0.645-0.689-1.183-0.689h-0.609v3.141h-1.011
		V41.78z M99.029,44.814h0.863c0.962,0,1.526-0.424,1.526-1.1c0-0.641-0.485-1.044-1.417-1.044h-0.972V44.814z"/>
	<path class="st2" d="M108.484,42.839c-0.515-0.202-0.798-0.292-1.327-0.292c-0.565,0-1.233,0.202-1.233,0.943
		c0,1.358,3.034,1.043,3.034,3.367c0,1.514-1.162,2.11-2.583,2.11c-0.493,0-0.979-0.137-1.444-0.294l0.1-0.94
		c0.341,0.143,0.953,0.343,1.467,0.343c0.578,0,1.387-0.326,1.387-1.156c0-1.578-3.038-1.14-3.038-3.338
		c0-1.259,0.993-1.918,2.268-1.918c0.467,0,1.023,0.074,1.507,0.247L108.484,42.839z"/>
	<polygon class="st2" points="110.461,41.777 111.577,41.777 113.268,47.83 113.288,47.83 114.797,41.777 116.233,41.777 
		117.762,47.83 117.783,47.83 119.474,41.777 120.548,41.777 118.37,48.847 117.063,48.847 115.526,42.67 115.506,42.67 
		113.955,48.847 112.597,48.847 	"/>
	<rect x="122.474" y="41.777" class="st2" width="1.014" height="7.071"/>
	<polygon class="st2" points="126.286,41.777 127.305,41.777 127.305,47.952 130.262,47.952 130.262,48.847 126.286,48.847 	"/>
</g>
</svg>
