<svg xmlns="http://www.w3.org/2000/svg" viewBox="0 0 462.9 91.36"><defs><style>.cls-1{fill:#ff9f1c;}.cls-2{fill:#4d004d;}</style></defs><title>Asset 3</title><g id="Layer_2" data-name="Layer 2"><g id="LOGO"><polygon class="cls-1" points="195.33 43.7 192.13 40.7 154.79 5.49 153.62 4.39 152.51 5.55 146.75 11.57 145.62 12.76 146.82 13.88 180.1 44.88 146.82 75.89 145.62 77.01 146.75 78.19 152.51 84.22 153.62 85.38 154.79 84.28 195.33 46.06 196.58 44.88 195.33 43.7"/><polygon class="cls-1" points="50.96 12.76 49.83 11.57 44.07 5.55 42.96 4.39 41.79 5.49 4.45 40.7 1.25 43.7 0 44.88 1.25 46.06 41.79 84.28 42.96 85.38 44.07 84.22 49.83 78.19 50.96 77.01 49.76 75.89 16.47 44.88 49.76 13.88 50.96 12.76"/><path class="cls-2" d="M98.29,87l-1.47-1.19C64.62,59.55,55.9,50.32,55.9,35.33A22.38,22.38,0,0,1,78.26,13c10.3,0,17.79,7.85,20,14.26C100.53,20.82,108,13,118.32,13a22.38,22.38,0,0,1,22.35,22.36c0,15-8.72,24.22-40.91,50.45L98.29,87Z"/><path class="cls-1" d="M260,14.08v7.76h-2.08V16H247.67V39.6h5.92v1.92h-14V39.6h5.88V16H235.19v5.84h-2.12V14.08Z"/><path class="cls-1" d="M289.31,39.64v1.88H279.19V39.64H283V29.8a6.48,6.48,0,0,0-1.2-4.24,4.42,4.42,0,0,0-3.6-1.44,8,8,0,0,0-4.2,1.34,19.76,19.76,0,0,0-4.32,3.66V39.64h3.76v1.88h-10.6V39.64h4.64V15.92h-4.64V14.08h6.84V27.24a20.46,20.46,0,0,1,4.52-3.76,9.13,9.13,0,0,1,4.72-1.32A5.83,5.83,0,0,1,283.53,24a8.19,8.19,0,0,1,1.66,5.56v10Z"/><path class="cls-1" d="M307.43,38.84a14.07,14.07,0,0,1-3.64,2.36,10.8,10.8,0,0,1-4.36.84,11,11,0,0,1-4.84-1.1,9.1,9.1,0,0,1-3.68-3.22,8.91,8.91,0,0,1-1.4-5A10.45,10.45,0,0,1,291,27a9.71,9.71,0,0,1,3.8-3.6,10.17,10.17,0,0,1,4.84-1.22,9.59,9.59,0,0,1,3.9.76A6.69,6.69,0,0,1,306.27,25a4.88,4.88,0,0,1,1,3A4.3,4.3,0,0,1,306.21,31a6.69,6.69,0,0,1-2.8,1.82,11.05,11.05,0,0,1-3.7.62,17.3,17.3,0,0,1-4-.46,37.27,37.27,0,0,1-4.08-1.26,7.64,7.64,0,0,0,0,1,7.21,7.21,0,0,0,3.9,6.54,8,8,0,0,0,3.78.94,10.13,10.13,0,0,0,3.9-.7,12.22,12.22,0,0,0,3.18-2ZM294.91,25.7a7.91,7.91,0,0,0-3,4.54,22.63,22.63,0,0,0,7.52,1.4,8.05,8.05,0,0,0,4-.94A2.93,2.93,0,0,0,305.07,28a3.46,3.46,0,0,0-1.48-2.9,6.31,6.31,0,0,0-3.88-1.1A7.88,7.88,0,0,0,294.91,25.7Z"/><path class="cls-1" d="M349.81,5h-7.69V28a15.42,15.42,0,0,1-1.81,7.66,12.44,12.44,0,0,1-4.93,4.93,14.52,14.52,0,0,1-7.05,1.69A19.18,19.18,0,0,1,321.12,41a20.33,20.33,0,0,1-5.62-3.27l2.72-4.35q5.08,3.75,9.5,3.75a7.84,7.84,0,0,0,5.93-2.27q2.18-2.27,2.18-6.93L335.77,5H325V0h24.81Z"/><path class="cls-1" d="M354,40.49a14.51,14.51,0,0,1-7.93-13.2,14.45,14.45,0,0,1,2.15-7.89A14.62,14.62,0,0,1,354,14.1a16.76,16.76,0,0,1,7.8-1.88,16.46,16.46,0,0,1,7.72,1.88,14.82,14.82,0,0,1,5.78,5.33,14.43,14.43,0,0,1,2.18,7.86,14.75,14.75,0,0,1-2.12,7.87,14.39,14.39,0,0,1-5.72,5.33,17.29,17.29,0,0,1-15.64,0Zm12.71-4.18a9,9,0,0,0,3.42-3.6,11.44,11.44,0,0,0,1.24-5.42,11.42,11.42,0,0,0-1.24-5.41,8.93,8.93,0,0,0-3.42-3.6A9.56,9.56,0,0,0,361.79,17a9.09,9.09,0,0,0-6.87,2.81,10.39,10.39,0,0,0-2.69,7.47,10.4,10.4,0,0,0,2.69,7.48,9.13,9.13,0,0,0,6.87,2.81A9.56,9.56,0,0,0,366.7,36.31Z"/><path class="cls-1" d="M416,17.79h-4.48l-12,26.87a24.8,24.8,0,0,1-5.72,8.45,10.87,10.87,0,0,1-7.42,2.81,11.34,11.34,0,0,1-4.26-.76A24.19,24.19,0,0,1,378,53l2.42-4.54a10.3,10.3,0,0,0,6,2.24A7.2,7.2,0,0,0,391.08,49a13.6,13.6,0,0,0,3.64-5.29l.42-1L382.91,17.79h-4.72V13h16v4.36h-4.9l8.59,19.12,8.42-19.12h-4.66V13H416Z"/><path class="cls-1" d="M191.58,89.8a9.28,9.28,0,0,1-3.64-3.5,10.76,10.76,0,0,1,0-10.4,9,9,0,0,1,3.64-3.48,10.71,10.71,0,0,1,5-1.26,10.56,10.56,0,0,1,5,1.26,9.29,9.29,0,0,1,3.64,3.48,10.69,10.69,0,0,1,0,10.4,9.43,9.43,0,0,1-3.62,3.5,10.44,10.44,0,0,1-10,0Zm9-1.62a7.34,7.34,0,0,0,2.74-2.84,9.4,9.4,0,0,0,0-8.44,7.27,7.27,0,0,0-2.74-2.84,8.31,8.31,0,0,0-8,0,7.12,7.12,0,0,0-2.76,2.84,9.4,9.4,0,0,0,0,8.44,7.18,7.18,0,0,0,2.76,2.84,8.31,8.31,0,0,0,8,0Z"/><path class="cls-1" d="M215.8,64.46a5.77,5.77,0,0,0-1.28,4.14v3.08h6.32v1.88h-6.32V88.64h5.84v1.88H207.72V88.64h4.64V73.56h-4.64V71.68h4.64v-3a7.87,7.87,0,0,1,1.8-5.62,6.23,6.23,0,0,1,4.76-1.9,8.9,8.9,0,0,1,3,.5,27.93,27.93,0,0,1,3.26,1.42l-.88,1.76a10.07,10.07,0,0,0-5.24-1.76A4.3,4.3,0,0,0,215.8,64.46Z"/><path class="cls-1" d="M277.49,54V85.49h7.8v5H263.51v-5h7.68V71.82h-24V85.49h7.68v5H233.07v-5h7.8V54h-7.8V49h21.78v5h-7.68V67h24V54h-7.68V49h21.78v5Z"/><path class="cls-1" d="M321,89.79A8.77,8.77,0,0,1,316.34,91a5.66,5.66,0,0,1-3.78-1.3A6.87,6.87,0,0,1,310.41,86q-6,5.38-12,5.38A10.81,10.81,0,0,1,291.35,89a8,8,0,0,1-2.91-6.59,8.14,8.14,0,0,1,1.64-5.06,10.2,10.2,0,0,1,4.38-3.27,15.84,15.84,0,0,1,6-1.11,23.29,23.29,0,0,1,5,.51A31.48,31.48,0,0,1,310.17,75V72.3a5.18,5.18,0,0,0-2.06-4.54,9.14,9.14,0,0,0-5.39-1.45,32.37,32.37,0,0,0-11.37,2.6l-1.21-4.6a34.23,34.23,0,0,1,13.31-3c3.91,0,6.95,1,9.11,2.87s3.24,4.71,3.24,8.38V83c0,2,.7,3,2.11,3a4.09,4.09,0,0,0,1.88-.49ZM296,85.28a6.87,6.87,0,0,0,4,1.12,12.62,12.62,0,0,0,4.72-1.09,24.93,24.93,0,0,0,5.51-3.21V78.9a28.23,28.23,0,0,0-8.72-1.58,9.79,9.79,0,0,0-5.05,1.24,3.92,3.92,0,0,0-2.09,3.54A3.62,3.62,0,0,0,296,85.28Z"/><path class="cls-1" d="M346.39,77.47a7.25,7.25,0,0,1,3,6.09,6.68,6.68,0,0,1-3,5.66,12.17,12.17,0,0,1-7.32,2.14,17.31,17.31,0,0,1-6-1.06,17.54,17.54,0,0,1-5.24-2.93v3.21h-4.6V81.32l2.6-.24a20.46,20.46,0,0,0,5.78,4.44,14.49,14.49,0,0,0,6.81,1.85,6.22,6.22,0,0,0,3.51-.85,2.72,2.72,0,0,0,1.27-2.42,3.43,3.43,0,0,0-2-3,28,28,0,0,0-6.54-2.4,24.19,24.19,0,0,1-8.38-3.66,6.88,6.88,0,0,1-2.94-5.78,7.21,7.21,0,0,1,1.24-4.08,8.45,8.45,0,0,1,3.51-2.91,12.38,12.38,0,0,1,5.24-1.06,16.11,16.11,0,0,1,5.54,1,14.07,14.07,0,0,1,4.57,2.73V62h4.53v9.2l-2.66.3a12.92,12.92,0,0,0-4.63-4.57,11.44,11.44,0,0,0-5.84-1.72,7.2,7.2,0,0,0-3.87.94,2.79,2.79,0,0,0-1.51,2.45,3.2,3.2,0,0,0,2,2.75,30.14,30.14,0,0,0,6.3,2.33A25.34,25.34,0,0,1,346.39,77.47Z"/><path class="cls-1" d="M389.93,85.74v4.78H373.65V85.74h5.27L370,77.2l-6.17,4.6v3.94h5.51v4.78h-17.8V85.74h6.36v-32h-6.36V49h12.29V77.2l13.56-10.59H372V62h16.1v4.6h-4.06L374,74.24l12,11.5Z"/><path class="cls-1" d="M420,86.28a19.54,19.54,0,0,1-13.25,5.08,17.94,17.94,0,0,1-7.69-1.69,14.3,14.3,0,0,1-5.87-5A13.39,13.39,0,0,1,391,77a15.1,15.1,0,0,1,2.3-8.35,15.46,15.46,0,0,1,6-5.48,17.29,17.29,0,0,1,14.13-.75,10.41,10.41,0,0,1,4.42,3.2,7.47,7.47,0,0,1,1.61,4.72A7,7,0,0,1,416,76.51a14.82,14.82,0,0,1-8.2,2.2,24.89,24.89,0,0,1-5.75-.63,30.47,30.47,0,0,1-5.39-1.85v.55a9.23,9.23,0,0,0,1.36,5,9,9,0,0,0,3.66,3.33,11.07,11.07,0,0,0,5,1.15,16.23,16.23,0,0,0,10.77-3.87ZM401.34,67.82a10.28,10.28,0,0,0-4,5.09,27.51,27.51,0,0,0,9.2,1.63,10,10,0,0,0,5-1.12,3.46,3.46,0,0,0,2-3.12,3.69,3.69,0,0,0-1.7-3.14A7.3,7.3,0,0,0,407.42,66,10.75,10.75,0,0,0,401.34,67.82Z"/><path class="cls-1" d="M441.19,85.74v4.78H422.31V85.74h6.36v-32h-6.36V49H434.6V85.74Z"/><path class="cls-1" d="M462.9,85.74v4.78H444V85.74h6.36v-32H444V49H456.3V85.74Z"/></g></g></svg>