<?xml version="1.0" encoding="utf-8"?>
<!-- Generator: Adobe Illustrator 23.1.0, SVG Export Plug-In . SVG Version: 6.00 Build 0)  -->
<svg version="1.1" id="Layer_1" xmlns="http://www.w3.org/2000/svg" xmlns:xlink="http://www.w3.org/1999/xlink" x="0px" y="0px"
	 viewBox="0 0 5000 5000" style="enable-background:new 0 0 5000 5000;" xml:space="preserve">
<style type="text/css">
	.st0{fill:#FF0000;}
</style>
<g>
	<g>
		<path class="st0" d="M1097.6,3315.3h103.8l168.5,387.2V3860h-27.2l-141.3-348.9v431.4h-103.8V3315.3L1097.6,3315.3z
			 M1573.3,3315.3h103.8v627.2h-103.8v-431.4L1432.9,3860h-28.1v-155.7L1573.3,3315.3z"/>
		<path d="M1938.3,3315.3V3865h288.5v77.4h-392.3v-627.2h103.8V3315.3z"/>
		<path d="M2844.6,3942.5h-105.5l-162.5-469.8l-164.2,469.8H2306l219.6-626.3h101.3L2844.6,3942.5z M2632.8,3743.4l24.7,68.9H2495
			l23.8-68.9H2632.8z"/>
		<path d="M2980,3315.3h102.1v627.2H2980V3315.3z M3276.1,3612.3c13,1.7,26.9,6,41.7,12.8s28.5,16.5,41.3,28.9
			c12.8,12.5,23.4,27.7,31.9,45.5s12.8,38.4,12.8,61.7c0,28.4-4.3,52.8-12.8,73.2s-19.1,37.3-31.9,50.6
			c-12.8,13.3-26.7,23.8-41.7,31.5s-29.5,13.5-43.4,17.4c-13.9,4-26.3,6.4-37,7.2c-10.8,0.9-17.9,1.3-21.3,1.3H3117v-74.9h92.8
			c30.1,0,53.6-9.6,70.6-28.9c17-19.3,25.5-45.1,25.5-77.4c0-30.6-8.8-56.4-26.4-77.4c-17.6-21-43.4-31.5-77.4-31.5H3117v-68.9h40.9
			c12.5,0,25.2-0.3,38.3-0.9c13.1-0.6,25.2-3.7,36.6-9.4c11.3-5.7,20.6-15.3,27.7-28.9c7.1-13.6,10.6-33.2,10.6-58.7
			c0-10.2-1.4-20.9-4.3-31.9c-2.8-11.1-8.5-21.1-17-30.2c-8.5-9.1-20.7-16.4-36.6-22.1c-15.9-5.7-36.9-8.5-63-8.5H3117v-77.4h43.4
			c26.7,0,52.5,3.1,77.4,9.4c25,6.3,47.1,16.2,66.4,29.8c19.3,13.6,34.6,31.4,45.9,53.2c11.3,21.9,17,47.8,17,77.9
			c0,17.6-2.9,33.6-8.5,48.1c-5.7,14.5-12.8,27.1-21.3,37.9c-8.5,10.8-18.3,19.7-29.4,26.8
			C3296.9,3605.4,3286.3,3610.1,3276.1,3612.3z"/>
		<path d="M3556.1,3827.6c7.9,4.6,18,8.9,30.2,13.2s24.8,8.2,37.9,11.9c13,3.7,26.1,6.7,39.1,8.9c13.1,2.3,25.2,3.4,36.6,3.4h2.6
			v80.9h-1.7c-13.6,0-27.7-0.7-42.1-2.1s-29.1-3.8-43.8-7.2c-14.8-3.4-28.8-8.1-42.1-14c-13.3-6-24.8-13.2-34.5-21.7L3556.1,3827.6z
			 M3542.5,3480.4c0-25,4.3-47.4,12.8-67.2c8.5-19.9,20-37.3,34.5-52.3s31.5-26.9,51.1-35.7s40.1-14.6,61.7-17.4v89.4
			c-18.2,6.3-33.2,17.2-45.1,32.8c-11.9,15.6-17.9,31.4-17.9,47.2c0,22.1,6,40,17.9,53.6s26.9,25.5,45.1,35.7v97
			c-18.7-9.1-37.4-18.9-56.2-29.4c-18.7-10.5-35.7-22.8-51.1-37c-15.3-14.2-27.9-30.6-37.9-49.4
			C3547.4,3528.9,3542.5,3506.5,3542.5,3480.4z M3836.1,3412.4c-2.9-1.1-6.3-3.1-10.2-6c-4-2.8-9.6-5.5-17-8.1s-16.7-4.7-28.1-6.4
			c-11.4-1.7-25.8-2-43.4-0.9v-85.9c25,0.6,50.3,3.3,76.2,8.1c25.8,4.8,46.7,12.3,62.6,22.6c-3.4,7.4-7.4,15.5-11.9,24.3
			c-4.6,8.8-8.8,17-12.8,24.7s-7.4,14-10.2,19.1C3838.3,3408.9,3836.6,3411.8,3836.1,3412.4z M3737.3,3583.4
			c18.7,8.5,37.9,17.6,57.4,27.2c19.6,9.6,37.3,21.4,53.2,35.3c15.9,13.9,28.9,30.8,39.1,50.6c10.2,19.9,15.3,44.5,15.3,74
			c0,20.4-3.8,40.3-11.5,59.6s-18.4,36.7-32.3,52.3c-13.9,15.6-31.1,28.8-51.5,39.6s-43.7,17.9-69.8,21.3v-81.7
			c46.5-11.3,69.8-42.3,69.8-92.8c0-19.9-6.5-36.3-19.6-49.4c-13.1-13.1-29.8-25.2-50.2-36.6L3737.3,3583.4L3737.3,3583.4z"/>
	</g>
	<g>
		<path class="st0" d="M275,3075.9c5.9-16.8,19.4-25.4,31.7-35.3c202.6-161.4,411-315.1,623.2-463.7
			c371-259.6,752.5-502.6,1149.2-721.2c276.6-152.4,558.7-293.3,850.1-415.4c234.4-98.2,472.8-184.4,718.1-251.4
			c134.4-36.7,270-68.2,407.4-91c88.7-14.7,177.7-28.1,267.7-32.9c73.9-4,147.7-9.6,221.6-10.9c57.9-1,115.8,3.5,173.8,5.7
			c2.1,0.1,4.2,1.7,7.1,3c1.3,11.3-8.2,16.9-14.3,23.7c-69.4,76.9-139.1,153.6-208.7,230.3C4312,1525.9,4122.2,1735,3932.3,1944
			c-10.7,11.8-21.8,23.4-33.3,35.7c-6.5,0-12.6,0.7-18.5-0.1c-73.6-9.4-147.6-8.5-221.6-8.1c-76.5,0.3-152.9,3.4-229,10.6
			c-67.5,6.4-135,13.2-202,22.8c-84.1,12.1-168,25.9-251.6,41.3c-186.7,34.4-371,79-553.7,130.7
			c-405.1,114.5-798.3,261.6-1184,429.5c-316.6,137.9-626,290.6-930.8,452.5C296.8,3064.7,285.9,3070.2,275,3075.9z"/>
		<path d="M1483.1,2087.2c3.6-4.6,6.8-9.6,10.8-13.9c250.1-269.4,524-510.9,835-708.5c141.7-90.1,289.4-168.8,444.7-233
			c11.3-4.7,22.8-8.9,35.3-13.8c81.6,48.8,166.8,89.9,259,118.4c-6.7,14.9-20.3,15.5-30.7,19.8c-180.4,73.3-357,155-530.9,242.6
			c-338.2,170.5-663.7,362.7-981.3,568.7c-12.4,8-24.8,15.9-37.3,23.8C1486.1,2090,1484.6,2088.6,1483.1,2087.2z"/>
	</g>
</g>
</svg>
