<svg id="Gruppe_1240" data-name="Gruppe 1240" xmlns="http://www.w3.org/2000/svg" width="190" height="62" viewBox="0 0 190 62">
  <g id="Gruppe_1237" data-name="Gruppe 1237" transform="translate(66.772 18.435)">
    <path id="Pfad_706" data-name="Pfad 706" d="M82.79,31.576a8.754,8.754,0,1,0,8.755,8.634A8.6,8.6,0,0,0,82.79,31.576Zm0,14.9a5.97,5.97,0,0,1-5.78-6.262,5.785,5.785,0,1,1,11.56,0A5.971,5.971,0,0,1,82.79,46.472Z" transform="translate(-74.036 -31.576)" fill="#191919"/>
    <path id="Pfad_707" data-name="Pfad 707" d="M98.614,39.108c-1.735-.718-3.234-1.339-3.234-2.719,0-1.241,1.165-2.178,2.709-2.178a6.286,6.286,0,0,1,3.761,1.432l1.24-2.327a7.385,7.385,0,0,0-4.977-1.74c-3.213,0-5.635,2.09-5.635,4.86,0,2.911,2.544,4.008,4.789,4.975,1.777.766,3.313,1.427,3.313,2.835,0,1.521-1.311,2.2-2.611,2.2A6.858,6.858,0,0,1,93.706,44.7l-1.555,2.153a8.344,8.344,0,0,0,5.768,2.236c3.261,0,5.538-2.018,5.538-4.908C103.457,41.111,100.885,40.046,98.614,39.108Z" transform="translate(-71.529 -31.576)" fill="#191919"/>
    <path id="Pfad_708" data-name="Pfad 708" d="M115.935,31.831h-10.98V34.2h4.136V48.759h2.685V34.2h4.16Z" transform="translate(-69.758 -31.541)" fill="#191919"/>
  </g>
  <g id="Gruppe_1238" data-name="Gruppe 1238" transform="translate(0)">
    <path id="Pfad_709" data-name="Pfad 709" d="M62.272,23.5A27.426,27.426,0,1,0,62.2,62.192c4.967-4.966,13.63-11.823,13.63-19.385C75.825,35.284,67.193,28.46,62.272,23.5ZM60.891,58.371A21.876,21.876,0,0,1,45.383,64.8c-.68,0-1.35-.035-2.014-.1-.339-.031-.674-.071-1.009-.116-.663.091-1.334.156-2.014.187-.335.016-.669.026-1.007.026a21.941,21.941,0,1,1,0-43.882c.337,0,.672.01,1,.025.682.031,1.354.1,2.017.188.334-.047.668-.087,1.006-.117.665-.06,1.336-.1,2.016-.1a21.874,21.874,0,0,1,15.57,6.5C64.89,31.385,71.8,36.845,71.8,42.863,71.8,48.913,64.865,54.4,60.891,58.371Z" transform="translate(-15.381 -15.381)" fill="#191919"/>
    <path id="Pfad_710" data-name="Pfad 710" d="M22.951,42.164a21.915,21.915,0,0,1,18.92-21.728h0C28.382,20.76,18.922,30.4,18.922,42.164S30.263,64.211,41.871,63.892h0A21.971,21.971,0,0,1,22.951,42.164Z" transform="translate(-14.891 -14.682)" fill="#d72864"/>
    <path id="Pfad_711" data-name="Pfad 711" d="M53.584,57.7c-4.047,4.047-9.255,5.74-14.5,6.22.335.047.669.087,1.009.117.664.061,1.334.1,2.014.1A21.876,21.876,0,0,0,57.612,57.7c3.974-3.974,10.9-9.458,10.9-15.508,0-6.018-6.905-11.477-10.843-15.445a21.874,21.874,0,0,0-15.57-6.5c-.68,0-1.351.035-2.016.1-.338.031-.673.071-1.006.117,5.278.483,11.03,2.721,14.563,6.282,3.938,3.968,10.843,9.427,10.843,15.445C64.487,48.24,57.557,53.724,53.584,57.7Z" transform="translate(-12.101 -14.708)" fill="#8c195f"/>
    <path id="Pfad_712" data-name="Pfad 712" d="M19.167,42.19c0-11.76,9.455-21.4,22.949-21.728-.664-.092-1.336-.157-2.017-.188-.332-.015-.667-.025-1-.025a21.941,21.941,0,1,0,0,43.882c.338,0,.673-.01,1.007-.026.68-.031,1.351-.1,2.014-.188C30.525,64.237,19.167,53.95,19.167,42.19Z" transform="translate(-15.136 -14.708)" fill="#8c195f"/>
    <path id="Pfad_713" data-name="Pfad 713" d="M51.568,57.672a21.9,21.9,0,0,1-12.487,6.22c5.248-.479,10.456-2.173,14.5-6.22,3.973-3.974,10.9-9.458,10.9-15.508,0-6.018-6.905-11.477-10.843-15.445-3.534-3.562-9.286-5.8-14.563-6.282a21.9,21.9,0,0,1,12.548,6.282c3.937,3.968,10.843,9.427,10.843,15.445C62.472,48.214,55.541,53.7,51.568,57.672Z" transform="translate(-12.101 -14.682)" fill="#d72864"/>
  </g>
  <g id="Gruppe_1239" data-name="Gruppe 1239" transform="translate(68.262 42.626)">
    <path id="Pfad_714" data-name="Pfad 714" d="M75.994,59.062h3.2v.528H75.385V53h3.721v.527H75.994v2.45h2.912v.536H75.994Z" transform="translate(-75.339 -52.719)" fill="#191919"/>
    <path id="Pfad_715" data-name="Pfad 715" d="M83.078,58.619c0,.255.046.364.282.364a.956.956,0,0,0,.282-.055l.035.392a1.155,1.155,0,0,1-.554.127.55.55,0,0,1-.6-.583,2.117,2.117,0,0,1-1.547.609A1.2,1.2,0,0,1,79.6,58.219c0-1.319,1.2-1.565,2.259-1.565.263,0,.428.009.609.017v-.463c0-.71-.2-1.093-1.011-1.093-.737,0-.992.291-1.092.839l-.574-.1c.146-.865.71-1.229,1.7-1.229,1.11,0,1.583.436,1.583,1.592Zm-.6-1.456a4.331,4.331,0,0,0-.574-.027c-.637,0-1.667.046-1.667.991,0,.455.165.856.883.856a1.9,1.9,0,0,0,1.357-.637Z" transform="translate(-74.756 -52.494)" fill="#191919"/>
    <path id="Pfad_716" data-name="Pfad 716" d="M87.208,56.025l-.6.073c-.109-.61-.283-.955-1.046-.955-.811,0-1,.354-1,.756,0,.545.409.673,1.11.846.855.208,1.62.392,1.62,1.4,0,.8-.6,1.328-1.72,1.328-1.019,0-1.665-.39-1.8-1.41l.583-.1a1.079,1.079,0,0,0,1.247.982c.61,0,1.073-.181,1.073-.773,0-.546-.381-.655-1.055-.829-.773-.2-1.684-.318-1.684-1.383,0-.9.774-1.337,1.647-1.337A1.423,1.423,0,0,1,87.208,56.025Z" transform="translate(-74.179 -52.494)" fill="#191919"/>
    <path id="Pfad_717" data-name="Pfad 717" d="M90.366,59.345a2.151,2.151,0,0,1-1.055.291c-.828,0-1.239-.372-1.239-1.245v-3h-.727v-.51h.727V53.54l.61-.091v1.429h1.3v.51h-1.3v2.921c0,.528.109.829.718.829a1.848,1.848,0,0,0,.83-.237Z" transform="translate(-73.684 -52.657)" fill="#191919"/>
    <path id="Pfad_718" data-name="Pfad 718" d="M90.456,57.045c0-1.7.984-2.421,2.157-2.421,1.275,0,1.794.864,1.794,1.975-.009.182-.019.373-.046.565H91.1c.036,1.392.683,1.765,1.492,1.765a1.034,1.034,0,0,0,1.175-.883l.573.109a1.674,1.674,0,0,1-1.793,1.319C90.93,59.474,90.456,58.328,90.456,57.045Zm3.314-.375c.018-.954-.347-1.52-1.21-1.52a1.415,1.415,0,0,0-1.448,1.52Z" transform="translate(-73.254 -52.494)" fill="#191919"/>
    <path id="Pfad_719" data-name="Pfad 719" d="M97.389,55.26a2.126,2.126,0,0,0-1.676.537v3.569H95.1V54.715h.5l.055.647a1.722,1.722,0,0,1,1.583-.738h.146Z" transform="translate(-72.611 -52.494)" fill="#191919"/>
    <path id="Pfad_720" data-name="Pfad 720" d="M101.652,59.366h-.61V56.289c0-.71-.246-1.129-.965-1.129a2.658,2.658,0,0,0-1.547.665v3.541H97.92V54.715h.536l.038.582a2.985,2.985,0,0,1,1.747-.673c.992,0,1.41.555,1.41,1.6Z" transform="translate(-72.221 -52.494)" fill="#191919"/>
    <path id="Pfad_721" data-name="Pfad 721" d="M104.922,54.617c0,1.9,3.642.873,3.642,3.232,0,1.347-1.066,1.865-2.248,1.865a2.027,2.027,0,0,1-2.339-1.828l.61-.091a1.569,1.569,0,0,0,1.729,1.391c.755,0,1.6-.263,1.6-1.254,0-2-3.641-.8-3.641-3.286,0-1.064.9-1.747,2.148-1.747a1.868,1.868,0,0,1,2.1,1.829l-.582.073c-.127-.637-.382-1.356-1.492-1.356C105.314,53.443,104.922,53.962,104.922,54.617Z" transform="translate(-71.383 -52.733)" fill="#191919"/>
    <path id="Pfad_722" data-name="Pfad 722" d="M110,59.355,108.5,54.7h.627l1.237,4.032,1.1-4.032h.665l1.083,4.014,1.228-4.014h.583l-1.465,4.651h-.737l-1.047-3.969-1.055,3.969Z" transform="translate(-70.756 -52.483)" fill="#191919"/>
    <path id="Pfad_723" data-name="Pfad 723" d="M115.379,53.829a.482.482,0,1,1,.493-.481A.443.443,0,0,1,115.379,53.829Zm.291,5.78h-.609V54.958h.609Z" transform="translate(-69.873 -52.738)" fill="#191919"/>
    <path id="Pfad_724" data-name="Pfad 724" d="M119.453,59.345a2.151,2.151,0,0,1-1.055.291c-.829,0-1.239-.372-1.239-1.245v-3h-.729v-.51h.729V53.54l.61-.091v1.429h1.3v.51h-1.3v2.921c0,.528.109.829.719.829a1.847,1.847,0,0,0,.829-.237Z" transform="translate(-69.66 -52.657)" fill="#191919"/>
    <path id="Pfad_725" data-name="Pfad 725" d="M120.15,58.845h2.9v.51H119.44v-.428l2.8-3.713h-2.758V54.7h3.478v.436Z" transform="translate(-69.243 -52.483)" fill="#191919"/>
    <path id="Pfad_726" data-name="Pfad 726" d="M123.151,57.045c0-1.7.984-2.421,2.158-2.421,1.274,0,1.793.864,1.793,1.975-.009.182-.019.373-.046.565H123.8c.035,1.392.682,1.765,1.491,1.765a1.033,1.033,0,0,0,1.175-.883l.573.109a1.674,1.674,0,0,1-1.793,1.319C123.625,59.474,123.151,58.328,123.151,57.045Zm3.314-.375c.018-.954-.346-1.52-1.21-1.52a1.415,1.415,0,0,0-1.448,1.52Z" transform="translate(-68.73 -52.494)" fill="#191919"/>
    <path id="Pfad_727" data-name="Pfad 727" d="M130.084,55.26a2.125,2.125,0,0,0-1.675.537v3.569H127.8V54.715h.5l.055.647a1.724,1.724,0,0,1,1.585-.738h.145Z" transform="translate(-68.086 -52.494)" fill="#191919"/>
    <path id="Pfad_728" data-name="Pfad 728" d="M131.224,59.625h-.609V52.753h.609Z" transform="translate(-67.697 -52.753)" fill="#191919"/>
    <path id="Pfad_729" data-name="Pfad 729" d="M135.789,58.619c0,.255.046.364.282.364a.956.956,0,0,0,.282-.055l.035.392a1.155,1.155,0,0,1-.554.127.55.55,0,0,1-.6-.583,2.117,2.117,0,0,1-1.547.609,1.2,1.2,0,0,1-1.375-1.256c0-1.319,1.2-1.565,2.259-1.565.263,0,.428.009.609.017v-.463c0-.71-.2-1.093-1.011-1.093-.737,0-.992.291-1.092.839l-.574-.1c.146-.865.71-1.229,1.7-1.229,1.111,0,1.585.436,1.585,1.592Zm-.6-1.456a4.331,4.331,0,0,0-.574-.027c-.637,0-1.667.046-1.667.991,0,.455.164.856.883.856a1.9,1.9,0,0,0,1.357-.637Z" transform="translate(-67.462 -52.494)" fill="#191919"/>
    <path id="Pfad_730" data-name="Pfad 730" d="M140.564,59.366h-.61V56.289c0-.71-.246-1.129-.965-1.129a2.658,2.658,0,0,0-1.547.665v3.541h-.609V54.715h.537l.036.582a2.988,2.988,0,0,1,1.747-.673c.992,0,1.41.555,1.41,1.6Z" transform="translate(-66.836 -52.494)" fill="#191919"/>
    <path id="Pfad_731" data-name="Pfad 731" d="M145.139,59.625h-.518l-.056-.519a2.381,2.381,0,0,1-1.6.627c-1.047,0-1.758-.673-1.758-2.376,0-1.81.911-2.475,1.966-2.475a2.284,2.284,0,0,1,1.357.436V52.753h.609Zm-.609-3.742a2.347,2.347,0,0,0-1.357-.481c-.993,0-1.347.773-1.347,1.984,0,1.274.392,1.847,1.283,1.847a2.064,2.064,0,0,0,1.421-.692Z" transform="translate(-66.231 -52.753)" fill="#191919"/>
    <path id="Pfad_732" data-name="Pfad 732" d="M79.431,66.623V62.2h.61v4.451c0,1.511-.855,2.248-2.394,2.248-1.638,0-2.3-.8-2.3-2.257V62.2h.609v4.405A1.529,1.529,0,0,0,77.7,68.363C78.811,68.363,79.431,67.935,79.431,66.623Z" transform="translate(-75.345 -51.446)" fill="#191919"/>
    <path id="Pfad_733" data-name="Pfad 733" d="M84.724,68.566h-.61V65.49c0-.71-.246-1.13-.964-1.13a2.658,2.658,0,0,0-1.548.665v3.541h-.609V63.915h.537l.036.583a2.99,2.99,0,0,1,1.747-.674c.992,0,1.41.555,1.41,1.6Z" transform="translate(-74.564 -51.222)" fill="#191919"/>
    <path id="Pfad_734" data-name="Pfad 734" d="M85.988,63.03a.483.483,0,1,1,.492-.483A.444.444,0,0,1,85.988,63.03Zm.29,5.779h-.609V64.158h.609Z" transform="translate(-73.94 -51.465)" fill="#191919"/>
    <path id="Pfad_735" data-name="Pfad 735" d="M88.775,68.555,86.944,63.9h.665l1.52,4.05,1.5-4.05h.61l-1.784,4.651Z" transform="translate(-73.74 -51.211)" fill="#191919"/>
    <path id="Pfad_736" data-name="Pfad 736" d="M91.16,66.245c0-1.7.984-2.421,2.158-2.421,1.274,0,1.793.865,1.793,1.975-.01.182-.019.373-.046.565H91.807c.036,1.392.683,1.766,1.492,1.766a1.033,1.033,0,0,0,1.175-.882l.573.108a1.675,1.675,0,0,1-1.793,1.32C91.634,68.675,91.16,67.529,91.16,66.245Zm3.314-.372c.018-.956-.347-1.521-1.21-1.521a1.415,1.415,0,0,0-1.448,1.521Z" transform="translate(-73.157 -51.222)" fill="#191919"/>
    <path id="Pfad_737" data-name="Pfad 737" d="M98.093,64.46A2.12,2.12,0,0,0,96.418,65v3.567h-.61V63.915h.5l.055.645a1.724,1.724,0,0,1,1.583-.736h.146Z" transform="translate(-72.513 -51.222)" fill="#191919"/>
    <path id="Pfad_738" data-name="Pfad 738" d="M101.632,65.225l-.6.074c-.108-.61-.282-.956-1.046-.956-.809,0-1,.354-1,.756,0,.545.409.673,1.11.846.855.209,1.62.392,1.62,1.4,0,.8-.6,1.328-1.72,1.328-1.019,0-1.667-.392-1.8-1.411l.583-.1a1.079,1.079,0,0,0,1.247.983c.61,0,1.073-.182,1.073-.774,0-.546-.381-.655-1.055-.829-.773-.2-1.684-.318-1.684-1.382,0-.9.773-1.339,1.647-1.339A1.424,1.424,0,0,1,101.632,65.225Z" transform="translate(-72.183 -51.222)" fill="#191919"/>
    <path id="Pfad_739" data-name="Pfad 739" d="M102.732,63.03a.483.483,0,1,1,.492-.483A.444.444,0,0,1,102.732,63.03Zm.291,5.779h-.61V64.158h.61Z" transform="translate(-71.623 -51.465)" fill="#191919"/>
    <path id="Pfad_740" data-name="Pfad 740" d="M106.805,68.546a2.158,2.158,0,0,1-1.054.291c-.829,0-1.239-.373-1.239-1.246v-3h-.729v-.51h.729V62.74l.61-.091v1.429h1.3v.51h-1.3v2.922c0,.527.109.828.718.828a1.843,1.843,0,0,0,.829-.237Z" transform="translate(-71.41 -51.384)" fill="#191919"/>
    <path id="Pfad_741" data-name="Pfad 741" d="M106.594,63.9h.657l1.365,3.932,1.42-3.932h.619c-.574,1.53-1.274,3.368-1.876,4.924-.491,1.328-.828,1.756-1.637,1.756a2.313,2.313,0,0,1-.838-.165l.091-.472a3.045,3.045,0,0,0,.765.137c.436,0,.809-.319,1.146-1.492Z" transform="translate(-71.061 -51.211)" fill="#191919"/>
    <path id="Pfad_742" data-name="Pfad 742" d="M112.487,66.263c0-1.512.783-2.439,2.213-2.439s2.01.938,2.01,2.321c0,1.53-.609,2.53-2.13,2.53C113.006,68.675,112.487,67.629,112.487,66.263Zm3.587-.064c0-1.383-.519-1.847-1.412-1.847-.919,0-1.547.565-1.547,1.875s.5,1.929,1.511,1.929C115.519,68.156,116.074,67.61,116.074,66.2Z" transform="translate(-70.205 -51.222)" fill="#191919"/>
    <path id="Pfad_743" data-name="Pfad 743" d="M119.433,62.518a2.21,2.21,0,0,0-.665-.12c-.428,0-.727.191-.727.848v.937h1.319v.51H118.04v4.141h-.61V64.694h-.709v-.51h.709v-.846c0-.965.428-1.457,1.256-1.457a1.937,1.937,0,0,1,.774.146Z" transform="translate(-69.619 -51.491)" fill="#191919"/>
    <path id="Pfad_744" data-name="Pfad 744" d="M124.324,62.2l2.276,6.59h-.674l-.71-2.121h-2.658l-.709,2.121h-.6l2.24-6.59Zm-.428.5-1.157,3.431h2.3Z" transform="translate(-68.993 -51.446)" fill="#191919"/>
    <path id="Pfad_745" data-name="Pfad 745" d="M127.031,63.915h.537l.036.565a2.541,2.541,0,0,1,1.675-.656c.973,0,1.684.6,1.684,2.3,0,1.811-.911,2.549-1.966,2.549a2.368,2.368,0,0,1-1.374-.51V70.5h-.592Zm.609,3.686a2.333,2.333,0,0,0,1.357.555c.993,0,1.347-.847,1.347-2.057,0-1.274-.39-1.775-1.219-1.775a2.285,2.285,0,0,0-1.484.692Z" transform="translate(-68.193 -51.222)" fill="#191919"/>
    <path id="Pfad_746" data-name="Pfad 746" d="M131.647,63.915h.537l.036.565a2.539,2.539,0,0,1,1.675-.656c.973,0,1.684.6,1.684,2.3,0,1.811-.91,2.549-1.966,2.549a2.371,2.371,0,0,1-1.374-.51V70.5h-.592Zm.609,3.686a2.337,2.337,0,0,0,1.357.555c.993,0,1.347-.847,1.347-2.057,0-1.274-.391-1.775-1.219-1.775a2.288,2.288,0,0,0-1.484.692Z" transform="translate(-67.554 -51.222)" fill="#191919"/>
    <path id="Pfad_747" data-name="Pfad 747" d="M136.873,68.825h-.609V61.953h.609Z" transform="translate(-66.915 -51.481)" fill="#191919"/>
    <path id="Pfad_748" data-name="Pfad 748" d="M138.538,63.03a.483.483,0,1,1,.493-.483A.444.444,0,0,1,138.538,63.03Zm.291,5.779h-.609V64.158h.609Z" transform="translate(-66.668 -51.465)" fill="#191919"/>
    <path id="Pfad_749" data-name="Pfad 749" d="M139.855,66.245c0-1.7.985-2.421,2.158-2.421,1.274,0,1.793.865,1.793,1.975-.01.182-.019.373-.046.565H140.5c.035,1.392.682,1.766,1.491,1.766a1.033,1.033,0,0,0,1.175-.882l.573.108a1.674,1.674,0,0,1-1.793,1.32C140.329,68.675,139.855,67.529,139.855,66.245Zm3.314-.372c.018-.956-.346-1.521-1.21-1.521a1.416,1.416,0,0,0-1.448,1.521Z" transform="translate(-66.418 -51.222)" fill="#191919"/>
    <path id="Pfad_750" data-name="Pfad 750" d="M148.156,68.825h-.518l-.055-.519a2.389,2.389,0,0,1-1.6.628c-1.045,0-1.757-.674-1.757-2.376,0-1.811.911-2.476,1.967-2.476a2.271,2.271,0,0,1,1.356.437V61.953h.61Zm-.61-3.74a2.334,2.334,0,0,0-1.356-.483c-.993,0-1.348.774-1.348,1.984,0,1.274.392,1.847,1.284,1.847a2.068,2.068,0,0,0,1.42-.691Z" transform="translate(-65.814 -51.481)" fill="#191919"/>
    <path id="Pfad_751" data-name="Pfad 751" d="M151.425,63.817c0,1.9,3.642.874,3.642,3.232,0,1.347-1.066,1.866-2.248,1.866a2.028,2.028,0,0,1-2.339-1.829l.609-.091a1.571,1.571,0,0,0,1.73,1.392c.755,0,1.6-.264,1.6-1.257,0-2-3.641-.8-3.641-3.285,0-1.064.9-1.747,2.148-1.747a1.868,1.868,0,0,1,2.1,1.829l-.582.073c-.127-.636-.383-1.356-1.492-1.356C151.817,62.643,151.425,63.162,151.425,63.817Z" transform="translate(-64.948 -51.461)" fill="#191919"/>
    <path id="Pfad_752" data-name="Pfad 752" d="M155.367,66.272c0-1.629.82-2.448,2.2-2.448a1.56,1.56,0,0,1,1.693,1.556l-.61.082c-.083-.746-.428-1.11-1.137-1.11-.729,0-1.512.4-1.512,1.838,0,1.53.747,1.939,1.492,1.939a1.1,1.1,0,0,0,1.228-1.028l.574.117a1.7,1.7,0,0,1-1.838,1.457C155.932,68.675,155.367,67.675,155.367,66.272Z" transform="translate(-64.272 -51.222)" fill="#191919"/>
    <path id="Pfad_753" data-name="Pfad 753" d="M160.275,63.03a.483.483,0,1,1,.492-.483A.444.444,0,0,1,160.275,63.03Zm.291,5.779h-.61V64.158h.61Z" transform="translate(-63.661 -51.465)" fill="#191919"/>
    <path id="Pfad_754" data-name="Pfad 754" d="M161.591,66.245c0-1.7.984-2.421,2.157-2.421,1.274,0,1.793.865,1.793,1.975-.008.182-.018.373-.046.565h-3.258c.035,1.392.683,1.766,1.492,1.766a1.034,1.034,0,0,0,1.175-.882l.573.108a1.676,1.676,0,0,1-1.793,1.32C162.065,68.675,161.591,67.529,161.591,66.245Zm3.314-.372c.017-.956-.347-1.521-1.211-1.521a1.414,1.414,0,0,0-1.447,1.521Z" transform="translate(-63.41 -51.222)" fill="#191919"/>
    <path id="Pfad_755" data-name="Pfad 755" d="M169.971,68.566h-.61V65.49c0-.71-.246-1.13-.964-1.13a2.658,2.658,0,0,0-1.548.665v3.541h-.609V63.915h.537l.036.583a2.99,2.99,0,0,1,1.747-.674c.992,0,1.41.555,1.41,1.6Z" transform="translate(-62.767 -51.222)" fill="#191919"/>
    <path id="Pfad_756" data-name="Pfad 756" d="M170.614,66.272c0-1.629.82-2.448,2.2-2.448a1.56,1.56,0,0,1,1.693,1.556l-.61.082c-.082-.746-.428-1.11-1.137-1.11-.729,0-1.512.4-1.512,1.838,0,1.53.747,1.939,1.492,1.939a1.106,1.106,0,0,0,1.229-1.028l.573.117a1.7,1.7,0,0,1-1.838,1.457C171.179,68.675,170.614,67.675,170.614,66.272Z" transform="translate(-62.162 -51.222)" fill="#191919"/>
    <path id="Pfad_757" data-name="Pfad 757" d="M174.9,66.245c0-1.7.984-2.421,2.158-2.421,1.274,0,1.793.865,1.793,1.975-.01.182-.019.373-.046.565H175.55c.035,1.392.682,1.766,1.491,1.766a1.033,1.033,0,0,0,1.175-.882l.573.108A1.675,1.675,0,0,1,177,68.675C175.376,68.675,174.9,67.529,174.9,66.245Zm3.314-.372c.018-.956-.346-1.521-1.21-1.521a1.415,1.415,0,0,0-1.448,1.521Z" transform="translate(-61.568 -51.222)" fill="#191919"/>
    <path id="Pfad_758" data-name="Pfad 758" d="M182.632,65.225l-.6.074c-.108-.61-.282-.956-1.046-.956-.809,0-1,.354-1,.756,0,.545.409.673,1.11.846.855.209,1.62.392,1.62,1.4,0,.8-.6,1.328-1.72,1.328-1.019,0-1.667-.392-1.8-1.411l.583-.1a1.079,1.079,0,0,0,1.247.983c.61,0,1.073-.182,1.073-.774,0-.546-.381-.655-1.055-.829-.773-.2-1.684-.318-1.684-1.382,0-.9.773-1.339,1.647-1.339A1.425,1.425,0,0,1,182.632,65.225Z" transform="translate(-60.975 -51.222)" fill="#191919"/>
  </g>
</svg>
