<?xml version="1.0" encoding="UTF-8"?>
<svg width="396px" height="158px" viewBox="0 0 396 158" version="1.1" xmlns="http://www.w3.org/2000/svg" xmlns:xlink="http://www.w3.org/1999/xlink">
    <!-- Generator: Sketch 50.2 (55047) - http://www.bohemiancoding.com/sketch -->
    <title>Serokell</title>
    <desc>Created with Sketch.</desc>
    <defs></defs>
    <g id="Page-1" stroke="none" stroke-width="1" fill="none" fill-rule="evenodd">
        <g id="business-card-white-forward" transform="translate(-252.000000, -171.000000)" fill="#2A282E">
            <path d="M283.531156,328.887679 C291.364983,328.887679 297.436199,322.598004 297.436199,314.932463 L297.436199,297.158517 C297.436199,297.158517 297.632045,292.834366 294.890205,288.11711 L266.296735,238.585923 L266.296735,220.22232 L283.139464,220.22232 L283.139464,240.46721 L297.436199,240.46721 L297.436199,222.187844 C297.436199,214.522303 291.364983,208.232628 283.531156,208.232628 L265.905044,208.232628 C258.267062,208.232628 252,214.522303 252,222.187844 L252,237.210057 C252,237.210057 252,241.927313 254.74184,246.448017 L283.139464,295.979203 L283.139464,316.897986 L266.296735,316.897986 L266.296735,296.653097 L252,296.653097 L252,314.932463 C252,322.598004 258.267062,328.887679 265.905044,328.887679 L283.531156,328.887679 Z M345.026701,305.24524 L324.854595,305.24524 C317.216614,305.24524 310.949552,298.955566 310.949552,291.290025 L310.949552,222.103605 C310.949552,214.438065 317.216614,208.14839 324.854595,208.14839 L345.026701,208.14839 C352.664683,208.14839 358.931745,214.438065 358.931745,222.103605 L358.931745,251.19335 C358.931745,259.055443 352.664683,265.345118 345.026701,265.345118 L324.854595,265.345118 L324.854595,293.058996 L344.830856,293.058996 L344.830856,278.907228 L358.931745,278.907228 L358.931745,291.290025 C358.931745,298.955566 352.664683,305.24524 345.026701,305.24524 Z M344.830856,252.962321 L344.830856,220.531187 L324.854595,220.531187 L324.854595,252.962321 L344.830856,252.962321 Z M387.916907,305.24524 L387.916907,220.531187 L409.264086,220.531187 L409.264086,208.14839 L400.646876,208.14839 C393.400586,208.14839 389.679518,211.882884 387.916907,215.617379 L387.916907,208.14839 L373.816017,208.14839 L373.816017,305.24524 L387.916907,305.24524 Z M451.566755,305.24524 L431.590495,305.24524 C423.756667,305.24524 417.489605,298.955566 417.489605,291.290025 L417.489605,222.300158 C417.489605,214.438065 423.756667,208.14839 431.590495,208.14839 L451.566755,208.14839 C459.400582,208.14839 465.471799,214.438065 465.471799,222.300158 L465.471799,291.290025 C465.471799,298.955566 459.400582,305.24524 451.566755,305.24524 Z M451.566755,293.058996 L451.566755,220.531187 L431.590495,220.531187 L431.590495,293.058996 L451.566755,293.058996 Z M529.121647,305.24524 L524.813042,263.183042 C523.833813,253.945083 519.9169,249.227827 513.0623,248.441617 L530.296721,208.14839 L516.391677,208.14839 L499.548948,248.245065 L494.652806,248.245065 L494.652806,171 L480.747762,171 L480.747762,305.24524 L494.652806,305.24524 L494.652806,260.038205 L510.907998,260.038205 L515.216603,305.24524 L529.121647,305.24524 Z M574.557846,305.24524 L554.38574,305.24524 C546.747759,305.24524 540.480697,298.955566 540.480697,291.290025 L540.480697,222.103605 C540.480697,214.438065 546.747759,208.14839 554.38574,208.14839 L574.557846,208.14839 C582.195828,208.14839 588.46289,214.438065 588.46289,222.103605 L588.46289,251.19335 C588.46289,259.055443 582.195828,265.345118 574.557846,265.345118 L554.38574,265.345118 L554.38574,293.058996 L574.362,293.058996 L574.362,278.907228 L588.46289,278.907228 L588.46289,291.290025 C588.46289,298.955566 582.195828,305.24524 574.557846,305.24524 Z M574.362,252.962321 L574.362,220.531187 L554.38574,220.531187 L554.38574,252.962321 L574.362,252.962321 Z M617.448052,305.24524 L617.448052,171 L603.347162,171 L603.347162,305.24524 L617.448052,305.24524 Z M647.999979,305.24524 L633.899089,305.24524 L633.899089,171 L647.999979,171 L647.999979,305.24524 Z M310.753709,329 L310.753709,317.010308 L648,317.010308 L648,329 L310.753709,329 Z" id="Serokell"></path>
        </g>
    </g>
</svg>