<?xml version="1.0" encoding="utf-8"?>
<!-- Generator: Adobe Illustrator 27.0.0, SVG Export Plug-In . SVG Version: 6.00 Build 0)  -->
<svg version="1.1" id="Layer_1" xmlns="http://www.w3.org/2000/svg" xmlns:xlink="http://www.w3.org/1999/xlink" x="0px" y="0px"
	 viewBox="0 0 580.3 156.4" style="enable-background:new 0 0 580.3 156.4;" xml:space="preserve">
<g>
	<g>
		<path d="M432.2,24.5c0.3,0,0.6,0,0.9,0c5.1,0,10.2,0,15.2,0c5,0,8.6,3.6,8.6,8.6c0,21.6,0,43.1,0,64.7c0,0.2,0,0.5,0,0.7
			c-8.2,0-16.5,0-24.7,0c0-8.2,0-16.4,0-24.6c-16.5,0-32.9,0-49.4,0c0,8.1,0,16.4,0,24.6c-8.2,0-16.5,0-24.7,0c0-0.2,0-0.5,0-0.8
			c0-21.5,0-43.1,0-64.6c0-5.1,3.6-8.6,8.6-8.6c2.5,0,5.1,0,7.7,0c4.8,0,8.4-3.5,8.4-8.4c0-2.5,0-5.1,0-7.7c0-4.4,2.6-7.7,6.9-8.5
			c0.1,0,0.2-0.1,0.2-0.1c11.6,0,23.3,0,34.9,0c0.5,0.1,0.9,0.2,1.4,0.4c3.5,1.1,5.8,4.2,5.9,8c0,5.1,0,10.3,0,15.5
			C432.2,24,432.2,24.3,432.2,24.5c-0.3,0-0.6,0-0.9,0c-13.4,0-26.6,0-40,0c-5,0-8.6,3.6-8.6,8.6c0,7.8,0,15.7,0,23.5
			c0,0.2,0,0.5,0,0.7c16.5,0,33,0,49.4,0c0-0.4,0-0.7,0-1c0-10.3,0-20.6,0-31C432.2,25.2,432.2,24.8,432.2,24.5z"/>
		<path d="M98.8-0.1c0,7.9,0,15.8,0,23.7c0,0.3,0,0.6,0,1c-0.3,0-0.7,0-1,0c-9.2,0-18.4,0-27.6,0c-4.2,0-7.6,2.7-8.3,6.8
			c-0.2,0.7-0.2,1.5-0.2,2.2c0,21.3,0,42.7,0,64c0,0.3,0,0.7,0,1.1c-8.2,0-16.5,0-24.7,0c0-0.2,0-0.5,0-0.7c0-21.6,0-43.1,0-64.7
			c0-5,3.6-8.6,8.6-8.6c2.5,0,5.1,0,7.7,0c4.8,0,8.4-3.5,8.5-8.3c0-2.5,0-5.1,0-7.6c0-4.6,2.4-7.7,7-8.6c0.1,0,0.2-0.1,0.2-0.1
			C78.8-0.1,88.9-0.1,98.8-0.1z"/>
		<path d="M209.9,74c0,0.3,0,0.6,0,0.9c0,7.6,0,15.2,0,22.8c0,0.3,0,0.6,0,1c-0.3,0-0.6,0-0.8,0c-5.1,0-10.3,0-15.4,0
			c-4.9,0-8.5-3.5-8.5-8.5c0-2.9,0.1-5.9-0.1-8.9c-0.2-4-3.7-7.2-7.7-7.3c-2.9-0.1-5.7,0-8.6,0c-4,0-7.2-2.7-8.1-6.6
			c-0.2-0.7-0.2-1.5-0.2-2.2c0-21.4,0-42.8,0-64.2c0-0.3,0-0.7-0.1-1c8.3,0,16.5,0,24.8,0c0,0.2-0.1,0.5-0.1,0.7
			c0,21.6,0,43.2,0,64.8c0,0.6,0,1.2,0.2,1.8c0.7,4,4.1,6.8,8.2,6.8C199,74,204.4,74,209.9,74z"/>
		<path d="M135.8-0.1c0,0.3,0,0.7,0,1c0,21.5,0,43.1,0,64.6c0,4.2,2.6,7.4,6.5,8.2c0.7,0.2,1.4,0.2,2.1,0.2c5.1,0,10,0,15.1,0
			c0.3,0,0.6,0,0.9,0c0,8.2,0,16.4,0,24.7c-0.2,0-0.5,0-0.7,0c-5.1,0-10.3,0-15.4,0c-4.9,0-8.5-3.6-8.5-8.6c0-2.6,0-5.2,0-7.8
			c0-4.7-3.6-8.3-8.3-8.3c-2.6,0-5.2,0-7.8,0c-5,0-8.6-3.6-8.6-8.6c0-21.8,0-43.7,0-65.5C119.3-0.1,127.6-0.1,135.8-0.1z"/>
		<path d="M209.9,74c0-3,0-5.9,0-9c0-21.3,0-42.8,0-64.1c0-0.3,0-0.7,0-1c8.2,0,16.5,0,24.7,0c0,21.8,0,43.7,0,65.6
			c0,4.8-3.6,8.4-8.5,8.4c-5.1,0-10.3,0-15.4,0C210.5,74,210.2,74,209.9,74z"/>
		<path d="M568-0.1c0,8.1,0,16.4,0,24.6c-0.3,0-0.6,0-0.8,0c-24.2,0-48.4,0-72.6,0c-0.2,0-0.5-0.1-0.8-0.1l0,0
			c0-0.3,0.1-0.6,0.1-0.9c0-5,0-9.9,0-14.9c0-4.6,2.4-7.7,7-8.7c0.1,0,0.2-0.1,0.2-0.1C523.4-0.1,545.7-0.1,568-0.1z"/>
		<path d="M271.6,24.5c0-0.2,0.1-0.6,0.1-0.8c0-5,0-9.9,0-14.9c0-4.6,2.4-7.7,7-8.7c0.1,0,0.2-0.1,0.2-0.1c22.3,0,44.6,0,66.9,0
			c0,8.1,0,16.4,0,24.7c-0.3,0-0.6,0-0.8,0c-24.2,0-48.4,0-72.6,0C272.1,24.6,271.8,24.5,271.6,24.5L271.6,24.5z"/>
		<path d="M37-0.1c0,0.2,0,0.3,0,0.5c0,7.8,0,15.7,0,23.5c0,0.2,0,0.3,0,0.6c-0.2,0-0.4,0.1-0.7,0.1c-12,0-24,0-36,0
			c-0.1,0-0.2,0-0.3,0C0,16.4,0,8.1,0-0.1C12.3-0.1,24.7-0.1,37-0.1z"/>
		<path d="M271.5,24.5c0,0.3,0.1,0.7,0.1,0.9c0,4.9,0,9.8,0,14.7c0,0.2,0,0.6,0,0.9c20.6,0,41.1,0,61.7,0c0,5.5,0,10.9,0,16.5
			c-20.5,0-41.1,0-61.7,0c0,0.2-0.1,0.4-0.1,0.6c0,2.9-0.1,5.7,0.1,8.6c0.3,4.2,3.7,7.2,8,7.4c0.3,0,0.7,0,1,0c21.3,0,42.7,0,63.9,0
			c0.3,0,0.7,0,1,0c0,8.2,0,16.4,0,24.7c-0.2,0-0.5,0-0.7,0c-21.6,0-43.2,0-64.8,0c-4.9,0-8.5-3.6-8.6-8.5c0-2.6,0-5.1,0-7.7
			c0-4.9-3.6-8.4-8.4-8.4c-2.6,0-5.2,0-7.7,0c-4.9,0-8.5-3.6-8.5-8.5c0-10.8,0-21.7,0-32.4c0-4.8,3.6-8.4,8.5-8.5
			c5.1,0,10.3,0,15.4,0C271,24.6,271.2,24.5,271.5,24.5C271.6,24.5,271.5,24.5,271.5,24.5z"/>
		<path d="M555.7,74c0,0.3-0.1,0.6-0.1,0.9c0,5.1,0,10.2,0,15.3c0,4.4-2.9,7.7-7.2,8.4c-0.4,0.1-0.9,0.1-1.3,0.1
			c-14.9,0-29.8,0-44.7,0c-4.9,0-8.5-3.6-8.5-8.5c0-2.6,0-5.2,0-7.8c0-4.8-3.6-8.4-8.4-8.4c-2.6,0-5.2,0-7.7,0c-5,0-8.6-3.6-8.6-8.6
			c0-10.8,0-21.5,0-32.3c0-5,3.6-8.6,8.6-8.6c5.1,0,10.2,0,15.2,0c0.2,0,0.5,0,0.8-0.1l0,0c0,0.3,0.1,0.7,0.1,1c0,13.4,0,26.6,0,40
			c0,4.2,2.6,7.4,6.5,8.2c0.7,0.2,1.5,0.2,2.2,0.2c17.3,0,34.7,0,52,0C555,74,555.4,74,555.7,74L555.7,74z"/>
		<path d="M555.7,74c0-0.3-0.1-0.7-0.1-0.9c0-4.9,0-9.8,0-14.7c0-0.3,0-0.6,0-1c-12.4,0-24.7,0-37,0c0-5.5,0-10.9,0-16.5
			c0.3,0,0.6,0,0.8,0c17.4,0,34.9,0,52.3,0c5.1,0,8.6,3.5,8.6,8.6c0,7.8,0,15.6,0,23.4c0,0.2,0,0.5,0,0.9c-0.3,0-0.7,0-0.9,0
			c-7.7,0-15.2,0-22.9,0C556.2,74,556,74,555.7,74L555.7,74z"/>
	</g>
	<g>
		<path d="M290.5,148.9h-4.9v-25.8h4.9v9.5c1.5-1.9,3.4-2.9,5.8-2.9c2.4,0,4.4,0.9,6,2.7c1.5,1.8,2.3,4.2,2.3,7.2
			c0,3-0.8,5.4-2.3,7.2c-1.5,1.7-3.5,2.6-6,2.6c-2.3,0-4.2-1-5.8-2.9V148.9z M290.5,142.9c0.4,0.6,1,1.1,1.8,1.5
			c0.8,0.4,1.6,0.6,2.4,0.6c1.4,0,2.6-0.5,3.4-1.5c0.9-1,1.3-2.3,1.3-3.9c0-1.6-0.4-2.9-1.3-3.9c-0.9-1-2-1.5-3.4-1.5
			c-0.8,0-1.6,0.2-2.4,0.6c-0.8,0.4-1.4,0.9-1.8,1.5V142.9z"/>
		<path d="M307.6,156.2l0.7-4.4c0.5,0.2,1,0.3,1.5,0.3c1.3,0,2.2-0.5,2.6-1.4l0.7-1.6l-7.6-18.9h5.3l4.9,13l4.9-13h5.3l-8.8,21.7
			c-0.6,1.6-1.5,2.8-2.7,3.5c-1.2,0.7-2.6,1-4.4,1.1C309.1,156.4,308.3,156.3,307.6,156.2z"/>
		<path d="M366,148.9h-5.5v-18.1l-7.3,18.1h-2.4l-7.3-18.1v18.1h-5.5v-25.8h7.7l6.3,15.6l6.3-15.6h7.7V148.9z"/>
		<path d="M386.9,146.5c-1.8,1.9-4.2,2.8-7.2,2.8c-3,0-5.4-0.9-7.2-2.8c-1.8-1.9-2.7-4.2-2.7-7c0-2.8,0.9-5.1,2.7-7
			c1.8-1.9,4.2-2.8,7.2-2.8c3,0,5.4,0.9,7.2,2.8c1.8,1.9,2.7,4.2,2.7,7C389.6,142.3,388.7,144.6,386.9,146.5z M376.2,143.4
			c0.9,1,2,1.6,3.5,1.6c1.5,0,2.6-0.5,3.5-1.6c0.9-1,1.3-2.3,1.3-3.9c0-1.5-0.4-2.8-1.3-3.8c-0.9-1-2-1.6-3.5-1.6
			c-1.5,0-2.6,0.5-3.5,1.6c-0.8,1-1.3,2.3-1.3,3.8C374.9,141.1,375.3,142.4,376.2,143.4z"/>
		<path d="M411,148.9H406v-2.4c-1.5,1.9-3.4,2.9-5.8,2.9c-2.4,0-4.4-0.9-6-2.6c-1.5-1.7-2.3-4.1-2.3-7.2c0-3,0.8-5.4,2.3-7.2
			c1.5-1.8,3.5-2.7,6-2.7c2.4,0,4.3,1,5.8,2.9v-9.5h4.9V148.9z M401.8,145c0.8,0,1.6-0.2,2.4-0.6c0.8-0.4,1.4-0.9,1.8-1.5v-6.6
			c-0.4-0.6-1-1.1-1.8-1.5s-1.6-0.6-2.4-0.6c-1.4,0-2.5,0.5-3.4,1.5c-0.9,1-1.3,2.3-1.3,3.9c0,1.6,0.4,2.9,1.3,3.9
			C399.2,144.5,400.4,145,401.8,145z"/>
		<path d="M433.4,148.9h-4.9v-2.4c-1.7,1.9-3.9,2.8-6.6,2.8c-2,0-3.5-0.5-4.5-1.5c-1-1-1.5-2.5-1.5-4.3v-13.3h4.9v11.3
			c0,2.3,1.1,3.4,3.4,3.4c1.7,0,3.1-0.7,4.3-2.1v-12.6h4.9V148.9z"/>
		<path d="M444.9,149.3c-1.6,0-3.2-0.3-4.7-0.8c-1.5-0.5-2.7-1.2-3.7-2.1l2.1-3.4c0.7,0.7,1.7,1.3,2.9,1.8c1.2,0.5,2.4,0.8,3.5,0.8
			c1,0,1.8-0.2,2.3-0.5c0.5-0.4,0.8-0.9,0.8-1.5c0-0.5-0.3-0.8-0.8-1.1c-0.6-0.3-1.2-0.5-2-0.6c-0.8-0.1-1.7-0.3-2.7-0.6
			c-1-0.3-1.9-0.6-2.7-0.9c-0.8-0.4-1.5-0.9-2-1.7c-0.6-0.8-0.8-1.8-0.8-2.9c0-1.6,0.7-3,2-4.2c1.4-1.1,3.2-1.7,5.6-1.7
			c2.9,0,5.4,0.8,7.5,2.6l-2,3.4c-0.6-0.6-1.4-1.1-2.4-1.5c-1-0.4-2-0.6-3.2-0.6c-0.9,0-1.6,0.2-2.1,0.5c-0.5,0.3-0.8,0.8-0.8,1.3
			c0,0.4,0.3,0.8,0.8,1c0.5,0.3,1.2,0.5,2,0.6c0.8,0.1,1.7,0.3,2.7,0.6c1,0.3,1.8,0.6,2.7,1c0.8,0.4,1.5,1,2,1.8s0.8,1.8,0.8,3
			c0,1.8-0.7,3.2-2.1,4.3C449.5,148.8,447.5,149.3,444.9,149.3z"/>
		<path d="M479.2,149.3c-3.9,0-7.2-1.2-9.8-3.7c-2.6-2.5-3.9-5.7-3.9-9.6s1.3-7.1,3.9-9.6c2.6-2.5,5.9-3.7,9.8-3.7
			c4.8,0,8.4,2.1,10.8,6.3l-4.7,2.3c-0.6-1.1-1.4-2-2.5-2.7c-1.1-0.7-2.3-1.1-3.6-1.1c-2.3,0-4.3,0.8-5.8,2.4
			c-1.5,1.6-2.3,3.6-2.3,6.1s0.8,4.5,2.3,6.1c1.5,1.6,3.5,2.4,5.8,2.4c1.3,0,2.5-0.3,3.6-1c1.1-0.7,1.9-1.6,2.5-2.7l4.7,2.3
			C487.5,147.2,483.9,149.3,479.2,149.3z"/>
		<path d="M498,148.9h-4.9v-18.7h4.9v2.6c0.7-0.9,1.6-1.6,2.7-2.2c1.1-0.6,2.2-0.8,3.3-0.8v4.8c-0.3-0.1-0.8-0.1-1.4-0.1
			c-0.8,0-1.7,0.2-2.6,0.6c-0.9,0.4-1.6,0.9-2,1.5V148.9z"/>
		<path d="M515.8,149.3c-2.9,0-5.3-0.9-7.2-2.7c-1.9-1.8-2.8-4.2-2.8-7.1c0-2.8,0.9-5.1,2.7-7c1.8-1.9,4.1-2.8,6.9-2.8
			c2.8,0,5,0.9,6.8,2.8c1.7,1.9,2.6,4.4,2.6,7.4v1.1H511c0.2,1.2,0.7,2.3,1.7,3.1c1,0.8,2.2,1.2,3.7,1.2c0.8,0,1.7-0.2,2.7-0.5
			c1-0.3,1.7-0.8,2.3-1.4l2.2,3.2C521.6,148.5,519,149.3,515.8,149.3z M520.1,137.8c-0.1-1.1-0.5-2-1.3-2.9
			c-0.8-0.8-1.9-1.3-3.3-1.3c-1.4,0-2.5,0.4-3.2,1.3c-0.8,0.8-1.2,1.8-1.4,2.9H520.1z"/>
		<path d="M544.5,148.9h-4.9v-1.9c-1.3,1.6-3.3,2.4-5.9,2.4c-1.7,0-3.2-0.5-4.5-1.6c-1.3-1.1-2-2.6-2-4.5c0-2,0.7-3.5,2-4.5
			c1.3-1,2.8-1.5,4.5-1.5c2.7,0,4.6,0.8,5.9,2.3v-2.5c0-1-0.4-1.7-1.1-2.3c-0.7-0.6-1.7-0.9-3-0.9c-2,0-3.9,0.7-5.5,2.2l-1.9-3.3
			c2.2-2,4.9-2.9,8.2-2.9c2.4,0,4.4,0.6,5.9,1.7c1.5,1.1,2.3,2.9,2.3,5.4V148.9z M535.7,146c1.8,0,3.1-0.5,3.9-1.6v-2.3
			c-0.8-1.1-2.1-1.6-3.9-1.6c-1,0-1.8,0.3-2.5,0.8c-0.7,0.5-1,1.2-1,2.1c0,0.9,0.3,1.5,1,2C533.8,145.8,534.7,146,535.7,146z"/>
		<path d="M555.7,149.3c-1.7,0-3-0.4-3.9-1.3c-0.9-0.9-1.4-2.1-1.4-3.8v-9.7h-3.1v-4.3h3.1v-5.1h4.9v5.1h3.8v4.3h-3.8v8.4
			c0,0.6,0.2,1.1,0.5,1.5c0.3,0.4,0.7,0.6,1.2,0.6c0.8,0,1.3-0.2,1.7-0.5l1,3.7C558.8,148.9,557.5,149.3,555.7,149.3z"/>
		<path d="M571.2,149.3c-2.9,0-5.3-0.9-7.2-2.7c-1.9-1.8-2.8-4.2-2.8-7.1c0-2.8,0.9-5.1,2.7-7c1.8-1.9,4.1-2.8,6.9-2.8
			c2.8,0,5,0.9,6.8,2.8c1.7,1.9,2.6,4.4,2.6,7.4v1.1h-13.9c0.2,1.2,0.7,2.3,1.7,3.1c1,0.8,2.2,1.2,3.7,1.2c0.8,0,1.7-0.2,2.7-0.5
			c1-0.3,1.7-0.8,2.3-1.4l2.2,3.2C577,148.5,574.5,149.3,571.2,149.3z M575.5,137.8c-0.1-1.1-0.5-2-1.3-2.9
			c-0.8-0.8-1.9-1.3-3.3-1.3c-1.4,0-2.5,0.4-3.2,1.3c-0.8,0.8-1.2,1.8-1.4,2.9H575.5z"/>
	</g>
</g>
</svg>
