<svg width="374" height="80" viewBox="0 0 374 80" fill="none" xmlns="http://www.w3.org/2000/svg">
<path d="M129.72 59.87C136.42 59.87 139.55 56.87 139.55 44.87V43.17C139.55 29.87 136.41 25.99 129.55 25.99C122.23 25.99 119.35 31.07 119.35 42.61C119.35 56.4 122.35 59.86 129.76 59.86L129.72 59.87ZM129.29 19.38C143.29 19.38 148.94 28.7 148.94 43.38C148.94 59.24 142.39 66.58 129.47 66.58C116.84 66.58 110.08 59.58 110.08 42.93C110.08 27.41 116.63 19.38 129.29 19.38Z" fill="#C82D48"/>
<path d="M100.33 59.21C100.96 59.94 103.33 59.86 103.97 59.68L105.12 65.12C103.367 65.8894 101.475 66.291 99.56 66.3C95.75 66.3 94.15 65.51 92.44 63.08C91.08 61.18 90.92 59.38 90.92 55.03V14.69C90.92 11.53 90.92 9.09999 90.92 7.01999C90.904 5.13356 90.7166 3.25249 90.36 1.39999L98.65 0C99.0875 1.80229 99.3322 3.64598 99.38 5.5C99.48 7.62 99.48 10.06 99.48 12.82V52.9C99.48 55.25 99.48 56.64 99.59 57.54C99.5952 57.8547 99.6644 58.165 99.7933 58.4521C99.9223 58.7392 100.108 58.9971 100.34 59.21" fill="#C82D48"/>
<path d="M178.06 19.21C179.034 19.1992 180.003 19.3618 180.92 19.69L179.5 27.69C178.35 27.4233 177.17 27.3057 175.99 27.34C171.08 27.34 166.52 32.9 166.52 37.75V65.33H158.14V32.53C158.303 28.5718 157.913 24.6102 156.98 20.76L164.9 19.16C165.682 21.2071 166.089 23.3786 166.1 25.57V26.05C169.62 21.05 173.39 19.19 178.1 19.19" fill="#C82D48"/>
<path d="M0 20.79L8.85 19.33L24.89 65.33H16.34L0 20.79Z" fill="#C82D48"/>
<path d="M22.28 46.52L20.59 41.75L27.54 20.83H31.03L22.28 46.52Z" fill="#C82D48"/>
<path d="M25.17 54.62L23.48 49.88L33.4 20.83H37.06L25.17 54.62Z" fill="#C82D48"/>
<path d="M28.05 62.79L26.4 58.06L39.43 20.83H43.09L28.05 62.79Z" fill="#C82D48"/>
<path d="M61.61 59.84C63.4404 59.8993 65.261 59.5494 66.9391 58.8159C68.6171 58.0824 70.1104 56.9838 71.31 55.6L71.36 43.84C70.16 43.75 69.15 43.7 68.46 43.7C60.46 43.7 58.09 45.4 56.24 47.54C54.9693 49.0017 54.3072 50.8949 54.39 52.83C54.3753 53.7721 54.5537 54.7072 54.9143 55.5776C55.2748 56.4481 55.8097 57.2355 56.4862 57.8914C57.1626 58.5472 57.9662 59.0576 58.8475 59.391C59.7287 59.7244 60.6688 59.8738 61.61 59.83V59.84ZM79.41 50.83C79.41 55.59 78.78 59.46 83.23 62.2L78.55 67.2C76.1121 66.0658 74.1284 64.142 72.92 61.74C72.38 62.11 71.81 62.57 71.15 63.07C70.3707 63.6734 69.541 64.2087 68.67 64.67C66.0459 65.9749 63.1252 66.568 60.2 66.39C51.61 66.19 45.82 60.3 45.82 53.13C45.82 44.77 50.82 36.77 66.61 36.77C67.61 36.77 70.28 36.87 71.49 36.96V34.23C71.49 29.45 71.22 25.94 64.19 25.94C59.4165 26.0193 54.7672 27.4741 50.8 30.13L48.22 23.88C53.3433 20.6595 59.2787 18.9666 65.33 19C70.42 19 75.75 21 77.73 24.43C79.5 27.5 79.73 30.01 79.73 34.36C79.73 37.56 79.38 44.41 79.38 50.89" fill="#C82D48"/>
<path d="M199.71 59.84C201.54 59.8993 203.361 59.5495 205.039 58.8159C206.717 58.0824 208.21 56.9838 209.41 55.6L209.46 43.84C208.26 43.75 207.25 43.7 206.56 43.7C198.56 43.7 196.19 45.4 194.34 47.54C193.069 49.0017 192.407 50.8949 192.49 52.83C192.475 53.7721 192.654 54.7072 193.014 55.5776C193.375 56.4481 193.91 57.2355 194.586 57.8914C195.263 58.5472 196.066 59.0576 196.947 59.391C197.829 59.7244 198.769 59.8738 199.71 59.83V59.84ZM217.51 50.83C217.51 55.59 216.88 59.46 221.33 62.2L216.65 67.2C214.212 66.0659 212.228 64.142 211.02 61.74C210.48 62.11 209.91 62.57 209.25 63.07C208.473 63.6712 207.647 64.2065 206.78 64.67C204.152 65.9735 201.228 66.5665 198.3 66.39C189.71 66.19 183.93 60.3 183.93 53.13C183.93 44.77 188.93 36.77 204.71 36.77C205.71 36.77 208.38 36.87 209.59 36.96V34.23C209.59 29.45 209.32 25.94 202.29 25.94C197.516 26.0193 192.867 27.4741 188.9 30.13L186.33 23.87C191.46 20.6493 197.403 18.9598 203.46 19C208.55 19 213.88 21 215.86 24.43C217.63 27.5 217.86 30.01 217.86 34.36C217.86 37.56 217.51 44.41 217.51 50.89" fill="#C82D48"/>
<path d="M266.19 61H269.522C269.13 59.53 268.934 57.472 268.934 54.14V25.622H265.406V37.382C264.23 36.206 262.613 35.03 260.702 35.03C256.684 35.03 253.352 38.46 253.352 48.26C253.352 58.06 256.684 61.49 260.702 61.49C262.956 61.49 264.72 60.363 265.945 58.55H266.043L266.19 61ZM265.406 56.1C264.328 57.57 262.76 58.55 261.682 58.55C258.742 58.55 256.88 56.1 256.88 48.26C256.88 40.42 258.595 37.97 261.584 37.97C263.152 37.97 264.377 39.195 265.406 40.224V56.1ZM276.447 61H279.975V35.52H276.447V61ZM276.447 29.738H279.975V25.622H276.447V29.738ZM300.099 63.058C300.099 65.116 298.727 66.684 294.807 66.684C290.985 66.684 289.221 65.214 289.221 63.107C289.221 61.686 290.593 60.51 292.651 59.628C295.689 60.314 300.099 60.706 300.099 63.058ZM290.495 44.095C290.495 39.244 292.161 37.676 294.219 37.676C296.277 37.676 297.943 39.244 297.943 44.095C297.943 48.946 296.277 50.514 294.219 50.514C292.161 50.514 290.495 48.946 290.495 44.095ZM303.627 35.03C301.471 35.03 300.099 36.01 299.315 37.382C298.482 35.765 296.326 35.03 294.66 35.03C290.201 35.03 287.261 38.558 287.261 44.634C287.261 47.28 288.29 50.514 290.299 51.935C288.633 52.229 286.967 53.405 286.967 55.316C286.967 57.031 288.192 58.256 289.711 58.746C287.408 59.726 285.987 61.588 285.987 63.842C285.987 67.174 288.927 69.33 294.709 69.33C300.099 69.33 303.333 66.684 303.333 63.352C303.333 59.187 300.05 58.011 296.375 57.227C293.092 56.541 290.201 56.443 290.201 54.63C290.201 53.65 291.377 53.111 291.965 52.964C292.749 52.964 293.533 53.16 294.317 53.16C298.237 53.16 301.177 50.416 301.177 44.046C301.177 41.988 300.883 40.714 300.393 39.146C301.03 38.558 301.667 38.166 302.598 38.166C302.941 38.166 303.235 38.166 303.627 38.264V35.03ZM309.082 61H312.61V35.52H309.082V61ZM309.082 29.738H312.61V25.622H309.082V29.738ZM316.662 38.46H320.092V56.002C320.092 59.922 321.66 61.49 324.992 61.49C326.462 61.49 327.344 61.294 328.324 61V58.354C327.736 58.55 326.854 58.844 326.168 58.844C324.404 58.844 323.62 57.766 323.62 56.296V38.46H328.324V35.52H323.62V26.994H320.092V35.52H316.662V38.46ZM336.179 42.968C336.571 40.665 337.894 37.97 340.589 37.97C342.843 37.97 344.264 39.734 344.264 42.527V44.34C339.168 45.467 332.259 48.652 332.259 54.924C332.259 58.942 334.905 61.49 338.874 61.49C340.491 61.49 342.941 60.216 344.313 58.844L344.754 61H348.429C348.037 60.412 347.792 58.746 347.792 56.492V42.282C347.792 37.774 345.195 35.03 340.491 35.03C335.983 35.03 333.631 38.46 332.945 42.478L336.179 42.968ZM344.264 55.904C342.99 57.227 341.324 58.55 339.413 58.55C336.865 58.55 335.787 57.031 335.787 54.63C335.787 50.612 341.03 48.26 344.264 47.28V55.904ZM355.355 61H358.883V25.622H355.355V61ZM365.923 56.394V61H370.039V56.394H365.923Z" fill="#182C49"/>
</svg>
