<?xml version="1.0" encoding="UTF-8" standalone="no"?>
<svg
   xmlns:dc="http://purl.org/dc/elements/1.1/"
   xmlns:cc="http://creativecommons.org/ns#"
   xmlns:rdf="http://www.w3.org/1999/02/22-rdf-syntax-ns#"
   xmlns:svg="http://www.w3.org/2000/svg"
   xmlns="http://www.w3.org/2000/svg"
   viewBox="0 0 351.23999 100.58667"
   height="100.58667"
   width="351.23999"
   xml:space="preserve"
   id="svg2"
   version="1.1"><metadata
     id="metadata8"><rdf:RDF><cc:Work
         rdf:about=""><dc:format>image/svg+xml</dc:format><dc:type
           rdf:resource="http://purl.org/dc/dcmitype/StillImage" /></cc:Work></rdf:RDF></metadata><defs
     id="defs6" /><g
     transform="matrix(1.3333333,0,0,1.3333333,0,3.1813334e-6)"
     id="g10"><g
       id="g12"><path
         id="path14"
         style="fill:#8bb4e1;fill-opacity:1;fill-rule:nonzero;stroke:none"
         d="m 11.234,43.023 h 7.692 V 0.5 H 11.234 C 5.305,0.5 0.5,5.309 0.5,11.238 v 21.051 c 0,5.926 4.805,10.734 10.734,10.734 z" /><path
         id="path16"
         style="fill:#08274a;fill-opacity:1;fill-rule:nonzero;stroke:none"
         d="M 23.176,19.637 H 43.02 V 11.238 C 43.02,5.309 38.215,0.5 32.285,0.5 h -9.109 z" /><path
         id="path18"
         style="fill:#32659c;fill-opacity:1;fill-rule:nonzero;stroke:none"
         d="M 23.176,23.887 H 43.02 V 43.024 H 23.176 Z" /><path
         id="path20"
         style="fill:#000000;fill-opacity:1;fill-rule:nonzero;stroke:none"
         d="M 91.504,13.523 H 87.473 L 80.02,33.258 78.863,37.023 77.926,33.258 70.879,13.523 H 66.27 l 3,7.938 -4.485,11.797 -1.172,3.765 -0.937,-3.765 -7.031,-19.735 h -5.297 l 2.609,4.938 8.922,24.562 2.5,0.579 5.828,-15.141 0.766,-2.828 0.812,2.781 5.328,14.609 2.782,0.579 z" /><path
         id="path22"
         style="fill:#000000;fill-opacity:1;fill-rule:nonzero;stroke:none"
         d="m 102.262,20.289 c -6.86,0 -9.907,5.797 -9.907,12.109 0,5.563 3.36,11.204 9.235,11.204 5.562,0 8.75,-3.094 8.75,-3.094 l -0.625,-3.406 c 0,0 -3.235,3.046 -7.047,3.046 -4.344,0 -6.234,-4.125 -6.313,-8.156 h 12.5 l 1.032,-1.156 c -0.094,-2.781 -0.625,-10.547 -7.625,-10.547 z m -0.532,2.922 c 3.094,0 3.938,3.578 4.079,5.922 h -9.235 c 0.625,-3.235 2.11,-5.922 5.156,-5.922 z" /><path
         id="path24"
         style="fill:#000000;fill-opacity:1;fill-rule:nonzero;stroke:none"
         d="m 120.16,9.18 -4.359,0.484 0.594,4.125 v 29.234 h 4.203 l -0.438,-3.359 z" /><path
         id="path26"
         style="fill:#000000;fill-opacity:1;fill-rule:nonzero;stroke:none"
         d="m 132.445,9.18 -4.359,0.484 0.594,4.125 v 29.234 h 4.203 l -0.438,-3.359 z" /><path
         id="path28"
         style="fill:#000000;fill-opacity:1;fill-rule:nonzero;stroke:none"
         d="m 138.09,30.289 v 3.328 h 10.172 l 0.906,-3.328 z" /><path
         id="path30"
         style="fill:#000000;fill-opacity:1;fill-rule:nonzero;stroke:none"
         d="m 146.062,16.93 h 9.422 v 26.093 h 4.485 l -0.453,-3.359 V 16.93 h 9.687 v -3.407 h -23.141 z" /><path
         id="path32"
         style="fill:#000000;fill-opacity:1;fill-rule:nonzero;stroke:none"
         d="m 188.035,20.383 -3.953,0.578 -5.641,14.359 -0.953,3.266 -0.578,-3.266 -5.25,-14.937 -4.39,0.578 1.968,3.734 6.157,18.157 -0.954,2.453 c -1.25,3.281 -3.453,4.75 -5.781,4.75 -0.765,0 -1.515,-0.172 -2.281,-0.438 l 0.625,3.813 c 0.812,0.312 1.562,0.484 2.328,0.484 3.188,0 6.234,-2.469 8.109,-7.125 z" /><path
         id="path34"
         style="fill:#000000;fill-opacity:1;fill-rule:nonzero;stroke:none"
         d="m 192.566,53.789 h 4.204 l -0.438,-3.375 v -7.078 c 1.25,0.141 2.5,0.266 3.484,0.266 6.454,0 10.938,-5.641 10.938,-12.094 0,-7.172 -3.766,-11.125 -8.063,-11.125 -4.218,0 -6.359,2.734 -6.359,2.734 v -2.64 l -4.359,0.484 0.593,4.125 z m 3.766,-13.406 V 26.477 c 0,0 2.063,-2.907 5.063,-2.907 2.953,0 5.203,3.266 5.203,8.328 0,4.719 -2.735,8.797 -6.063,8.797 -1.75,0 -4.297,-0.312 -4.203,-0.312 z" /><path
         id="path36"
         style="fill:#000000;fill-opacity:1;fill-rule:nonzero;stroke:none"
         d="m 225.277,20.289 c -6.859,0 -9.906,5.797 -9.906,12.109 0,5.563 3.359,11.204 9.234,11.204 5.563,0 8.75,-3.094 8.75,-3.094 l -0.625,-3.406 c 0,0 -3.234,3.046 -7.046,3.046 -4.344,0 -6.235,-4.125 -6.313,-8.156 h 12.5 l 1.031,-1.156 c -0.093,-2.781 -0.625,-10.547 -7.625,-10.547 z m -0.531,2.922 c 3.094,0 3.938,3.578 4.078,5.922 h -9.234 c 0.625,-3.235 2.109,-5.922 5.156,-5.922 z" /><path
         id="path38"
         style="fill:#000000;fill-opacity:1;fill-rule:nonzero;stroke:none"
         d="m 255.539,9.18 -4.344,0.484 0.578,4.125 v 6.859 c -1.25,-0.125 -2.5,-0.265 -3.484,-0.265 -6.469,0 -10.937,5.656 -10.937,12.109 0,7.172 3.765,11.11 8.062,11.11 2.156,0 4.531,-1.079 6.672,-3.266 0.234,1.797 1.312,3.266 1.312,3.266 l 4.172,-0.579 c 0,0 -2.031,-2.375 -2.031,-5.062 z m -8.687,31.375 c -2.922,0 -5.344,-3.313 -5.344,-8.469 0,-4.703 2.734,-8.781 6.062,-8.781 1.75,0 4.297,0.312 4.203,0.312 v 13.938 c -1.515,1.968 -3.359,3 -4.921,3 z" /><path
         id="path40"
         style="fill:#000000;fill-opacity:1;fill-rule:nonzero;stroke:none"
         d="m 50.176,60.117 h 4.062 v 11.25 h 1.938 l -0.203,-1.453 v -9.797 h 4.172 v -1.469 h -9.969 z" /><path
         id="path42"
         style="fill:#000000;fill-opacity:1;fill-rule:nonzero;stroke:none"
         d="m 69.891,71.367 -0.188,-1.406 v -6.094 c 0,-1.547 -1.265,-2.281 -2.531,-2.281 -1.281,0 -2.656,0.625 -3.469,1.516 v -6.329 l -1.875,0.219 0.266,1.766 v 12.609 h 1.812 l -0.203,-1.453 v -5.391 c 0,0 0.938,-1.421 2.969,-1.421 1.187,0 1.406,0.859 1.406,2.703 v 5.562 z" /><path
         id="path44"
         style="fill:#000000;fill-opacity:1;fill-rule:nonzero;stroke:none"
         d="m 76.672,61.57 c -2.953,0 -4.266,2.485 -4.266,5.219 0,2.391 1.453,4.828 3.985,4.828 2.39,0 3.765,-1.328 3.765,-1.328 L 79.891,68.82 c 0,0 -1.391,1.313 -3.032,1.313 -1.875,0 -2.687,-1.781 -2.734,-3.516 h 5.391 l 0.453,-0.5 C 79.922,64.914 79.688,61.57 76.672,61.57 Z m -0.219,1.25 c 1.328,0 1.688,1.547 1.75,2.563 H 74.219 C 74.5,63.977 75.141,62.82 76.453,62.82 Z" /><path
         id="path46"
         style="fill:#000000;fill-opacity:1;fill-rule:nonzero;stroke:none"
         d="m 98.582,58.648 h -2 l 0.25,1.782 v 3.593 h -6.797 v -5.375 h -2 l 0.266,1.782 v 10.937 h 1.922 L 90.035,69.914 V 65.57 h 6.797 v 5.797 h 1.938 l -0.188,-1.453 z" /><path
         id="path48"
         style="fill:#000000;fill-opacity:1;fill-rule:nonzero;stroke:none"
         d="m 102.91,64.336 c 0,0 0.969,-1.453 2.735,-1.453 0.796,0 1.453,0.515 1.453,2.062 v 0.703 c -3.188,0 -5.422,1.422 -5.422,3.579 0,1.421 1.172,2.39 2.484,2.39 1.203,0 2.547,-0.797 3.078,-1.578 0.016,0.844 0.563,1.578 0.563,1.578 l 1.797,-0.25 c 0,0 -0.875,-1.031 -0.875,-2.187 v -5.125 c 0,-1.813 -1.391,-2.469 -2.891,-2.469 -2.562,0 -3.797,1.484 -3.797,1.484 z m 1.969,5.891 c -1.031,0 -1.469,-0.672 -1.469,-1.297 0,-1.969 3.188,-2.032 3.688,-2.047 v 2.14 c -0.391,0.454 -1.375,1.204 -2.219,1.204 z" /><path
         id="path50"
         style="fill:#000000;fill-opacity:1;fill-rule:nonzero;stroke:none"
         d="m 111.547,70.492 c 0,0 0.922,1.125 2.891,1.125 2.046,0 3.374,-1.219 3.374,-2.937 0,-3.11 -4.718,-2.672 -4.718,-4.735 0,-0.64 0.64,-1.14 1.422,-1.14 0.718,0 1.718,0.187 2.484,0.968 l 0.453,-1.546 c -0.484,-0.297 -1.297,-0.657 -2.781,-0.657 -1.813,0 -3.219,1.094 -3.219,2.844 0,2.875 4.703,2.781 4.703,4.516 0,0.968 -0.765,1.297 -1.687,1.297 -1.657,0 -2.75,-1.297 -2.75,-1.297 z" /><path
         id="path52"
         style="fill:#000000;fill-opacity:1;fill-rule:nonzero;stroke:none"
         d="m 128.598,71.367 -4.594,-5.328 4.297,-4.187 h -2.453 l -0.516,0.953 -3.125,3.312 v -9.344 l -1.875,0.219 0.266,1.766 v 12.609 h 1.812 l -0.203,-1.453 V 66.32 l 4.188,5.047 z" /><path
         id="path54"
         style="fill:#000000;fill-opacity:1;fill-rule:nonzero;stroke:none"
         d="m 133.879,61.57 c -2.953,0 -4.266,2.485 -4.266,5.219 0,2.391 1.453,4.828 3.985,4.828 2.39,0 3.765,-1.328 3.765,-1.328 l -0.265,-1.469 c 0,0 -1.391,1.313 -3.032,1.313 -1.875,0 -2.687,-1.781 -2.734,-3.516 h 5.391 l 0.453,-0.5 c -0.047,-1.203 -0.281,-4.547 -3.297,-4.547 z m -0.219,1.25 c 1.328,0 1.688,1.547 1.75,2.563 h -3.984 c 0.281,-1.406 0.922,-2.563 2.234,-2.563 z" /><path
         id="path56"
         style="fill:#000000;fill-opacity:1;fill-rule:nonzero;stroke:none"
         d="m 141.594,56.773 -1.875,0.219 0.265,1.766 v 12.609 h 1.813 l -0.203,-1.453 z" /><path
         id="path58"
         style="fill:#000000;fill-opacity:1;fill-rule:nonzero;stroke:none"
         d="m 146.887,56.773 -1.875,0.219 0.265,1.766 v 12.609 h 1.813 l -0.203,-1.453 z" /><path
         id="path60"
         style="fill:#000000;fill-opacity:1;fill-rule:nonzero;stroke:none"
         d="m 165.027,60.008 c -1.14,-1.047 -2.453,-1.594 -4.062,-1.594 -3.406,0 -6.141,2.906 -6.141,6.859 0,4.141 2.891,6.344 5.891,6.344 2.625,0 4.484,-1.687 4.484,-1.687 l -0.422,-1.422 c 0,0 -2,1.625 -3.75,1.625 -2.172,0 -4.359,-1.938 -4.359,-5.047 0,-2.688 1.734,-5.234 4.219,-5.234 1.281,0 2.343,0.515 3.25,1.468 z" /><path
         id="path62"
         style="fill:#000000;fill-opacity:1;fill-rule:nonzero;stroke:none"
         d="m 166.828,66.773 c 0,0.297 0.094,4.844 4.078,4.844 2.969,0 4.703,-2.437 4.703,-5.219 0,-3.281 -1.734,-4.828 -4.047,-4.828 -2.937,0 -4.734,2.203 -4.734,5.203 z m 1.766,-0.187 c 0,-2.016 1,-3.719 2.609,-3.719 1.625,0 2.641,1.703 2.641,3.719 0,2.031 -1.016,3.734 -2.641,3.734 -1.609,0 -2.609,-1.703 -2.609,-3.734 z" /><path
         id="path64"
         style="fill:#000000;fill-opacity:1;fill-rule:nonzero;stroke:none"
         d="m 186.203,71.367 -0.187,-1.406 v -6.094 c 0,-1.547 -1.266,-2.281 -2.532,-2.281 -1.281,0 -2.656,0.625 -3.468,1.516 v -1.454 l -1.875,0.204 0.265,1.781 v 7.734 h 1.813 l -0.203,-1.453 v -5.391 c 0,0 0.937,-1.421 2.968,-1.421 1.188,0 1.407,0.859 1.407,2.703 v 5.562 z" /><path
         id="path66"
         style="fill:#000000;fill-opacity:1;fill-rule:nonzero;stroke:none"
         d="m 188.84,70.492 c 0,0 0.922,1.125 2.89,1.125 2.047,0 3.375,-1.219 3.375,-2.937 0,-3.11 -4.718,-2.672 -4.718,-4.735 0,-0.64 0.64,-1.14 1.422,-1.14 0.718,0 1.718,0.187 2.484,0.968 l 0.453,-1.546 c -0.484,-0.297 -1.297,-0.657 -2.781,-0.657 -1.813,0 -3.219,1.094 -3.219,2.844 0,2.875 4.703,2.781 4.703,4.516 0,0.968 -0.765,1.297 -1.687,1.297 -1.657,0 -2.75,-1.297 -2.75,-1.297 z" /><path
         id="path68"
         style="fill:#000000;fill-opacity:1;fill-rule:nonzero;stroke:none"
         d="m 203.902,69.93 c 0,0.89 0.563,1.687 0.563,1.687 l 1.797,-0.25 c 0,0 -0.86,-1.031 -0.86,-2.187 v -7.532 l -1.875,0.204 0.25,1.781 v 5.031 c 0,0 -0.937,1.453 -2.953,1.453 -1.203,0 -1.422,-0.875 -1.422,-2.719 v -5.75 l -1.875,0.204 0.25,1.781 v 5.703 c 0,1.547 1.266,2.281 2.532,2.281 1.281,0 2.843,-0.719 3.593,-1.687 z" /><path
         id="path70"
         style="fill:#000000;fill-opacity:1;fill-rule:nonzero;stroke:none"
         d="m 210.609,56.773 -1.875,0.219 0.266,1.766 v 12.609 h 1.812 l -0.203,-1.453 z" /><path
         id="path72"
         style="fill:#000000;fill-opacity:1;fill-rule:nonzero;stroke:none"
         d="m 216.203,59.898 -1.812,0.219 v 1.735 h -1.188 v 1.328 h 1.188 v 5.5 c 0,2.125 1.031,2.937 2.297,2.937 0.89,0 1.906,-0.219 2.75,-0.875 l -0.282,-1.469 c -0.5,0.485 -1.344,0.797 -2.078,0.797 -0.609,0 -1.062,-0.328 -1.062,-1.234 V 63.18 h 2.375 l 0.578,-1.328 h -2.953 z" /><path
         id="path74"
         style="fill:#000000;fill-opacity:1;fill-rule:nonzero;stroke:none"
         d="m 221.734,64.336 c 0,0 0.969,-1.453 2.735,-1.453 0.797,0 1.453,0.515 1.453,2.062 v 0.703 c -3.188,0 -5.422,1.422 -5.422,3.579 0,1.421 1.172,2.39 2.484,2.39 1.204,0 2.547,-0.797 3.078,-1.578 0.016,0.844 0.563,1.578 0.563,1.578 l 1.797,-0.25 c 0,0 -0.875,-1.031 -0.875,-2.187 v -5.125 c 0,-1.813 -1.391,-2.469 -2.891,-2.469 -2.562,0 -3.797,1.484 -3.797,1.484 z m 1.969,5.891 c -1.031,0 -1.469,-0.672 -1.469,-1.297 0,-1.969 3.188,-2.032 3.688,-2.047 v 2.14 c -0.391,0.454 -1.375,1.204 -2.219,1.204 z" /><path
         id="path76"
         style="fill:#000000;fill-opacity:1;fill-rule:nonzero;stroke:none"
         d="m 238.969,71.367 -0.188,-1.406 v -6.094 c 0,-1.547 -1.265,-2.281 -2.531,-2.281 -1.281,0 -2.656,0.625 -3.469,1.516 v -1.454 l -1.875,0.204 0.266,1.781 v 7.734 h 1.812 l -0.203,-1.453 v -5.391 c 0,0 0.938,-1.421 2.969,-1.421 1.188,0 1.406,0.859 1.406,2.703 v 5.562 z" /><path
         id="path78"
         style="fill:#000000;fill-opacity:1;fill-rule:nonzero;stroke:none"
         d="m 244.305,59.898 -1.813,0.219 v 1.735 h -1.187 v 1.328 h 1.187 v 5.5 c 0,2.125 1.031,2.937 2.297,2.937 0.891,0 1.906,-0.219 2.75,-0.875 l -0.281,-1.469 c -0.5,0.485 -1.344,0.797 -2.078,0.797 -0.61,0 -1.063,-0.328 -1.063,-1.234 V 63.18 h 2.375 l 0.578,-1.328 h -2.953 z" /><path
         id="path80"
         style="fill:#000000;fill-opacity:1;fill-rule:nonzero;stroke:none"
         d="m 248.695,70.492 c 0,0 0.922,1.125 2.891,1.125 2.047,0 3.375,-1.219 3.375,-2.937 0,-3.11 -4.719,-2.672 -4.719,-4.735 0,-0.64 0.641,-1.14 1.422,-1.14 0.719,0 1.719,0.187 2.484,0.968 l 0.454,-1.546 c -0.485,-0.297 -1.297,-0.657 -2.782,-0.657 -1.812,0 -3.218,1.094 -3.218,2.844 0,2.875 4.703,2.781 4.703,4.516 0,0.968 -0.766,1.297 -1.688,1.297 -1.656,0 -2.75,-1.297 -2.75,-1.297 z" /></g></g></svg>