<?xml version="1.0" encoding="UTF-8" standalone="no"?>
<svg
   width="191.51801"
   height="68.036301"
   viewBox="0 0 191.51801 68.036301"
   fill="none"
   version="1.1"
   id="svg1"
   sodipodi:docname="wire.svg"
   inkscape:version="1.4.2 (ebf0e940d0, 2025-05-08)"
   xmlns:inkscape="http://www.inkscape.org/namespaces/inkscape"
   xmlns:sodipodi="http://sodipodi.sourceforge.net/DTD/sodipodi-0.dtd"
   xmlns="http://www.w3.org/2000/svg"
   xmlns:svg="http://www.w3.org/2000/svg">
  <defs
     id="defs1" />
  <sodipodi:namedview
     id="namedview1"
     pagecolor="#ffffff"
     bordercolor="#000000"
     borderopacity="0.25"
     inkscape:showpageshadow="2"
     inkscape:pageopacity="0.0"
     inkscape:pagecheckerboard="0"
     inkscape:deskcolor="#d1d1d1"
     inkscape:zoom="4.0033122"
     inkscape:cx="96.420159"
     inkscape:cy="3.4971042"
     inkscape:window-width="1860"
     inkscape:window-height="1091"
     inkscape:window-x="26"
     inkscape:window-y="23"
     inkscape:window-maximized="0"
     inkscape:current-layer="svg1" />
  <path
     fill-rule="evenodd"
     clip-rule="evenodd"
     d="m 61.633333,56.970912 c 8.994343,0 16.230627,-7.285244 16.230627,-16.240786 h 2.45e-4 V 9.2035351 h 3.837913 V 40.729882 c 0,11.062079 -8.978431,20.06242 -20.088981,20.06242 -4.710641,0 -8.978186,-1.629905 -12.412909,-4.336825 -3.434722,2.70692 -7.803616,4.336825 -12.514011,4.336825 -11.110429,0 -20.230235,-9.000341 -20.230235,-20.06242 V 9.2035351 h 3.838037 V 40.730126 c 0,8.955297 7.35734,16.240786 16.351682,16.240786 3.623099,0 7.002618,-1.196479 9.71272,-3.193591 -3.030061,-3.511712 -4.955567,-8.065312 -4.955567,-13.047195 l 0.0068,-25.843222 c 0,-4.2143 3.443413,-7.6429024 7.675951,-7.6429024 4.232539,0 7.675951,3.4288474 7.675951,7.6429024 l -0.0068,25.843222 c 0,4.981761 -1.804083,9.535483 -4.834144,13.047195 2.710102,1.997112 6.089866,3.193591 9.712721,3.193591 z M 45.240892,40.729882 c 0,3.975739 1.447158,7.61781 3.837914,10.443949 2.390878,-2.826139 3.838037,-6.46821 3.838037,-10.443705 l 0.0068,-25.843466 c 0,-2.107518 -1.721829,-3.82139 -3.838037,-3.82139 -2.116208,0 -3.838037,1.713872 -3.838037,3.82139 z M 93.221614,9.0999831 h 3.83853 V 59.780037 h -3.83853 z m 19.190176,8.7335039 c 3.98174,-5.801364 10.6759,-9.6170013 18.24891,-9.6170013 v 3.8284893 c -10.06144,0 -18.24646,8.149402 -18.24646,18.166414 h -0.002 v 29.568648 h -3.83853 V 9.0999831 h 3.83853 z m 62.65023,-0.517515 c -0.41493,-0.479081 -0.85069,-0.946902 -1.30725,-1.40187 -10.28788,-10.2528803 -27.02758,-10.2528803 -37.31547,0 -10.28789,10.252881 -10.28789,26.935537 0,37.188418 10.28666,10.251408 27.02269,10.25288 37.31058,0.0042 l -2.71366,-2.704717 c -8.33435,8.301826 -21.61986,8.730845 -30.4683,1.290028 l 15.88166,-15.826944 z m -35.90907,1.302846 c -8.33435,8.305955 -8.76643,21.549239 -1.29869,30.368792 l 31.7719,-31.66307 c -8.84967,-7.4422858 -22.13886,-7.011798 -30.47321,1.294278 z"
     fill="#000000"
     id="path1"
     style="stroke-width:1.22402" />
</svg>
