<svg id="Ebene_1" data-name="Ebene 1" xmlns="http://www.w3.org/2000/svg" viewBox="0 0 5265.65 1067.45"><defs><style>.cls-1{fill:#073642;}</style></defs><g id="Ebene_1_Kopie_2_Kopie_2_Kopie_Kopie_3_Kopie" data-name="Ebene 1 Kopie 2 Kopie 2 Kopie Kopie 3 Kopie"><path class="cls-1" d="M3.41,530.91a10,10,0,0,0,0,14.14L197.93,739.57a10,10,0,0,0,14.14,0L406.59,545a10,10,0,0,0,0-14.14L212.07,336.39a10,10,0,0,0-14.14,0Z" transform="translate(-0.48 -1.59)"/><path class="cls-1" d="M542.43,4.53a10,10,0,0,0-14.15,0h0L333.76,199a10,10,0,0,0,0,14.14h0L528.28,407.71a10,10,0,0,0,14.14,0h0L736.94,213.2a10,10,0,0,0,0-14.15h0Z" transform="translate(-0.48 -1.59)"/><rect class="cls-1" x="387.79" y="716.98" width="295.1" height="295.09" rx="10" transform="translate(-454.99 630.17) rotate(-45)"/><path class="cls-1" d="M1034.7,270V680H935.59V641.55Q923.32,661.61,899.94,673a115.19,115.19,0,0,1-51.24,11.42q-36.21,0-64.61-18.66t-44.28-52.36q-15.88-33.69-15.88-77.7,0-43.46,15.88-76.87t44.28-51.52q28.41-18.09,64.61-18.1A109.74,109.74,0,0,1,898,400.37q22.56,11.13,35.93,30.08V270ZM921.07,590.58q14.52-18.65,14.52-53.75,0-34-14.76-52.63t-40.94-18.66q-27.3,0-41.77,18.1t-14.53,52.08q0,35.09,14.76,54.31t41.5,19.21Q906.58,609.24,921.07,590.58Z" transform="translate(-0.48 -1.59)"/><path class="cls-1" d="M1092.06,269.64h105.28v79.48H1092.06ZM1094.85,680V397h100.81V680Z" transform="translate(-0.48 -1.59)"/><path class="cls-1" d="M1557.15,397V662.16q0,69.6-41.78,106.11t-122.54,36.48q-69.06,0-119.75-24.51l15-73.53a302,302,0,0,0,51.52,17.55,212.62,212.62,0,0,0,49.85,6.41q34.53,0,51-14.76t16.43-46V628.18q-13.94,18.38-37.6,31.19a104.35,104.35,0,0,1-50.41,12.81q-36.21,0-64.89-17.54t-44.84-49.58q-16.16-32-16.15-74.35,0-41.79,16.15-73.81T1304,407q28.68-17.83,64.89-17.82,28.41,0,51.8,11.69t36.21,31.75V397Zm-115.3,182.41q15-17.53,15-48.73,0-30.09-15-47.63t-41.77-17.54q-26.74,0-42.06,17.26t-15.32,47.91q0,30.63,15.6,48.45T1400.08,597q26.73,0,41.77-17.57Z" transform="translate(-0.48 -1.59)"/><path class="cls-1" d="M1613.4,269.48h105.27v79.64H1613.4ZM1616.18,680V397H1717V680Z" transform="translate(-0.48 -1.59)"/><path class="cls-1" d="M1971,599.77v76.31q-20.62,8.34-52.36,8.36-57.37,0-87.17-32.31t-29.8-89.68V471.11h-52.92V397h52.92V333l100.81-32.31V397h68v74.1h-68v91.33q0,20.05,12,30.36t29.8,10.31Q1954.26,603.11,1971,599.77Z" transform="translate(-0.48 -1.59)"/><path class="cls-1" d="M2306.85,397V680H2207.7V641.55q-12.27,20.06-35.65,31.46a115.19,115.19,0,0,1-51.24,11.42q-36.21,0-64.61-17.83t-44.28-51Q1996,582.46,1996,539q0-44,16.16-78t44.56-52.91q28.38-18.93,64-18.94,27.84,0,51,12t35.92,32V397ZM2193.22,590.86q14.47-18.37,14.48-52.91,0-35.1-14.48-53.75T2152,465.54q-26.19,0-41.22,19.21t-15,54.31q0,34,14.48,52.08t41.77,18.1Q2178.73,609.24,2193.22,590.86Z" transform="translate(-0.48 -1.59)"/><path class="cls-1" d="M2367,680V270h100.82V680Z" transform="translate(-0.48 -1.59)"/><path class="cls-1" d="M2528,680V270h100.82V680Z" transform="translate(-0.48 -1.59)"/><path class="cls-1" d="M2981.35,397,2851.59,690q-25.62,57.36-64.33,83.82T2691.71,807l-23.39-76.87q39-7.8,58.48-20a77.65,77.65,0,0,0,29.53-34l7.24-15.59L2648.27,397H2753l63.5,163.2L2882.21,397Z" transform="translate(-0.48 -1.59)"/><path class="cls-1" d="M3159,269.64H3264.3v79.48H3159ZM3161.81,680V397h100.78V680Z" transform="translate(-0.48 -1.59)"/><path class="cls-1" d="M3587.07,419.58q24.78,30.38,24.79,91.63V680H3511V515.66q0-26.16-8.91-37.59t-27.85-11.42q-22.84,0-36.76,15.32t-13.93,40.38V680H3322.78V478.35q0-45.69-4.46-81.32H3413l5,41.77q16.15-23.94,40.11-36.76t54-12.81Q3562.28,389.22,3587.07,419.58Z" transform="translate(-0.48 -1.59)"/><path class="cls-1" d="M3968.34,270V680h-99.15V641.55q-12.26,20.06-35.6,31.46a115.46,115.46,0,0,1-51.24,11.42q-36.21,0-64.61-18.66t-44.28-52.36q-15.9-33.69-15.88-77.7,0-43.47,15.88-76.87t44.28-51.52q28.41-18.09,64.61-18.1a109.56,109.56,0,0,1,49.24,11.15q22.56,11.13,35.93,30.08V270ZM3854.71,590.58q14.48-18.66,14.48-53.75,0-34-14.76-52.63t-40.94-18.66q-27.3,0-41.77,18.1t-14.49,52.08q0,35.09,14.76,54.31t41.5,19.21Q3840.22,609.24,3854.71,590.58Z" transform="translate(-0.48 -1.59)"/><path class="cls-1" d="M4313.11,397V680h-98.58v-37.9q-27.3,42.33-80.77,42.33-54,0-80.49-30.08t-26.45-91.92V397h100.77V565.24q0,41.78,36.21,41.77,21.15,0,34.25-15t13.09-40.11V397Z" transform="translate(-0.48 -1.59)"/><path class="cls-1" d="M4401.11,645.45q-40.68-39-40.66-106.39,0-44.55,19.78-78.54t55.42-52.63q35.64-18.66,82.43-18.66a208.33,208.33,0,0,1,61.27,9.19q30.09,9.18,47.91,24.78l-25.67,69.63a119,119,0,0,0-35.09-19.5q-20.06-7.23-38.43-7.24-31.2,0-47.9,17.83t-16.71,52.91q0,35.64,16.71,53.75t48.46,18.11a110.85,110.85,0,0,0,38.15-7.25A119.81,119.81,0,0,0,4601.59,582l25.63,68.51q-18.39,16.17-48.74,25.07a230.1,230.1,0,0,1-64.89,8.91Q4441.77,684.44,4401.11,645.45Z" transform="translate(-0.48 -1.59)"/><path class="cls-1" d="M4921.35,548.53H4743.67q2.78,32.87,18.94,47.34T4810,610.36a134.83,134.83,0,0,0,42.33-7,143.59,143.59,0,0,0,38.44-19.21L4916.34,651q-21.18,15.59-51.25,24.51a211.7,211.7,0,0,1-60.15,8.91q-48.48,0-84.11-17.84t-54.58-51q-18.94-33.14-18.94-78.26,0-42.89,18.1-76.58t50.18-52.59q32-18.92,73.25-18.94,40.09,0,70.18,17.83t46.23,51q16.14,33.12,16.15,77.14Zm-176.57-46.79H4835q-5.58-43.44-43.45-43.44-37.32,0-46.79,43.44Z" transform="translate(-0.48 -1.59)"/><path class="cls-1" d="M5266.13,270V680H5167V641.55q-12.27,20.06-35.64,31.46a115.23,115.23,0,0,1-51.25,11.42q-36.21,0-64.61-18.66t-44.28-52.36q-15.87-33.69-15.88-77.7,0-43.46,15.88-76.87t44.28-51.52q28.41-18.09,64.61-18.1a109.81,109.81,0,0,1,49.3,11.15q22.56,11.13,35.92,30.08V270ZM5152.5,590.58Q5167,571.92,5167,536.83q0-34-14.76-52.63t-40.94-18.66q-27.28,0-41.77,18.1T5055,535.72q0,35.09,14.76,54.31t41.49,19.21Q5138,609.24,5152.5,590.58Z" transform="translate(-0.48 -1.59)"/></g></svg>