<?xml version="1.0" encoding="UTF-8" standalone="no"?>
<svg
   xmlns:dc="http://purl.org/dc/elements/1.1/"
   xmlns:cc="http://creativecommons.org/ns#"
   xmlns:rdf="http://www.w3.org/1999/02/22-rdf-syntax-ns#"
   xmlns:svg="http://www.w3.org/2000/svg"
   xmlns="http://www.w3.org/2000/svg"
   xmlns:sodipodi="http://sodipodi.sourceforge.net/DTD/sodipodi-0.dtd"
   xmlns:inkscape="http://www.inkscape.org/namespaces/inkscape"
   width="190.74289"
   height="52.000084"
   version="1.1"
   id="svg8"
   sodipodi:docname="fretlink.svg"
   inkscape:version="0.92.4 5da689c313, 2019-01-14">
  <metadata
     id="metadata14">
    <rdf:RDF>
      <cc:Work
         rdf:about="">
        <dc:format>image/svg+xml</dc:format>
        <dc:type
           rdf:resource="http://purl.org/dc/dcmitype/StillImage" />
        <dc:title></dc:title>
      </cc:Work>
    </rdf:RDF>
  </metadata>
  <defs
     id="defs12" />
  <sodipodi:namedview
     pagecolor="#ffffff"
     bordercolor="#666666"
     borderopacity="1"
     objecttolerance="10"
     gridtolerance="10"
     guidetolerance="10"
     inkscape:pageopacity="0"
     inkscape:pageshadow="2"
     inkscape:window-width="1729"
     inkscape:window-height="1112"
     id="namedview10"
     showgrid="false"
     fit-margin-top="10"
     fit-margin-left="10"
     fit-margin-right="10"
     fit-margin-bottom="10"
     inkscape:zoom="2.2569444"
     inkscape:cx="19.048235"
     inkscape:cy="108.76298"
     inkscape:window-x="0"
     inkscape:window-y="0"
     inkscape:window-maximized="0"
     inkscape:current-layer="svg8" />
  <g
     id="g6"
     style="fill:none;fill-rule:evenodd"
     transform="translate(9.9988905,10)">
    <path
       d="M 26.256,4.245 C 24.11,2.533 20.987,2.555 18.863,4.295 a 5.879,5.879 0 0 0 -2.173,4.575 10.735,10.735 0 0 1 -3.16,7.615 10.766,10.766 0 0 1 -7.627,3.157 5.894,5.894 0 0 0 -4.58,2.17 c -1.743,2.122 -1.765,5.24 -0.05,7.383 a 5.908,5.908 0 0 0 8.8,0.508 5.872,5.872 0 0 0 1.728,-4.168 10.74,10.74 0 0 1 3.16,-7.62 10.763,10.763 0 0 1 7.63,-3.156 5.888,5.888 0 0 0 4.174,-1.726 5.89,5.89 0 0 0 -0.508,-8.788"
       id="path2"
       inkscape:connector-curvature="0"
       style="fill:#288cff" />
    <path
       d="M 102.897,31.429 V 4.995 l 4.943,-4.936 h 1.164 v 31.37 z M 119.128,3.295 a 3.239,3.239 0 0 1 -3.24,3.237 3.239,3.239 0 0 1 -3.242,-3.237 3.239,3.239 0 0 1 3.241,-3.235 3.239,3.239 0 0 1 3.241,3.236 z m -6.284,28.134 V 8.87 h 6.107 v 22.56 h -6.107 z m 57.9,0 h -7.977 l -8.372,-8.362 v 8.362 h -6.107 V 4.995 l 4.942,-4.936 h 1.165 v 16.724 l 7.923,-7.913 h 7.609 l -10.879,10.88 z m -26.377,0 h -6.118 V 18.933 a 4.513,4.513 0 0 0 -1.333,-3.214 4.554,4.554 0 0 0 -7.771,3.215 v 12.493 h -6.117 V 18.934 c 0,-5.875 4.786,-10.655 10.67,-10.655 2.85,0 5.53,1.108 7.544,3.12 a 10.579,10.579 0 0 1 3.125,7.536 v 12.493 z m -85.433,0 H 52.816 V 18.933 c 0,-5.875 4.787,-10.655 10.67,-10.655 v 6.11 a 4.554,4.554 0 0 0 -4.552,4.545 v 12.494 z m 38.898,-6.11 h 1.494 v 6.11 h -1.494 c -5.06,0 -9.176,-4.111 -9.176,-9.165 V 7.918 l 4.949,-4.943 h 1.169 V 8.87 h 4.552 v 4.895 h -4.552 v 8.5 a 3.06,3.06 0 0 0 3.058,3.054 z m -22.3,-11.502 a 4.854,4.854 0 0 0 -4.708,3.697 h 9.415 a 4.854,4.854 0 0 0 -4.708,-3.697 z m 3.979,10.578 h 6.032 A 10.277,10.277 0 0 1 83.817,27.882 10.313,10.313 0 0 1 75.53,32 C 69.804,32 65.144,27.347 65.144,21.628 v -2.967 c 0,-5.72 4.66,-10.372 10.386,-10.372 5.727,0 10.386,4.653 10.386,10.372 0,0 0,1.83 -0.072,3.485 l -15.132,0.023 a 4.854,4.854 0 0 0 4.818,4.303 4.82,4.82 0 0 0 3.872,-1.925 c 0.038,-0.05 0.072,-0.101 0.108,-0.152 z M 49.737,5.208 c -2.293,0 -3.361,1.83 -3.417,3.662 h 5.696 v 4.895 H 46.318 V 31.43 H 40.3 V 13.765 H 37.085 V 8.87 H 40.3 C 40.383,3.752 44.585,0 49.737,0 h 2.28 v 5.208 z"
       id="path4"
       inkscape:connector-curvature="0"
       style="fill:#001428" />
  </g>
</svg>
