<?xml version="1.0" encoding="UTF-8" standalone="no"?>
<svg
   width="248"
   height="248"
   viewBox="0 0 232.5 232.50001"
   version="1.1"
   id="svg2"
   xmlns="http://www.w3.org/2000/svg"
   xmlns:svg="http://www.w3.org/2000/svg">
  <defs
     id="defs2" />
  <path
     id="path1"
     style="fill:#000000"
     d="M 115.9076 0 C 86.246372 0.24249976 57.71452 3.4544561 41.087037 11.090698 C 41.087037 11.090698 8.1115724 25.841927 8.1115724 76.171877 C 8.1115724 87.696865 7.885733 101.47697 8.2507326 116.0907 C 9.4482314 165.31065 17.275749 213.81927 62.783204 225.86426 C 83.765683 231.41801 101.77972 232.58156 116.28845 231.78406 C 142.59968 230.32531 157.37 222.39441 157.37 222.39441 L 156.50208 203.30384 C 156.50208 203.30384 137.69948 209.23203 116.58325 208.50953 C 95.662022 207.79203 73.57723 206.25386 70.193483 180.56763 C 69.880983 178.31138 69.724733 175.89801 69.724733 173.36426 C 69.724733 173.36426 90.260978 178.38453 116.28845 179.57703 C 132.20344 180.30703 147.12948 178.64469 162.28821 176.83594 C 191.35818 173.36469 216.668 155.45315 219.84925 139.08692 C 224.86174 113.30569 224.44886 76.171877 224.44886 76.171877 C 224.44886 25.841927 191.47339 11.090698 191.47339 11.090698 C 174.84716 3.4544561 146.29758 0.24249976 116.63636 0 L 115.9076 0 z M 82.338869 39.325562 C 94.693857 39.325562 104.05057 44.074259 110.23682 53.572999 L 116.25 63.654787 L 122.26502 53.572999 C 128.45001 44.074259 137.80673 39.325562 150.16297 39.325562 C 160.84046 39.325562 169.44197 43.07912 176.01197 50.401612 C 182.38071 57.724105 185.55176 67.622529 185.55176 80.077516 L 185.55176 141.01868 L 161.40931 141.01868 L 161.40931 81.868288 C 161.40931 69.39955 156.1633 63.07068 145.66956 63.07068 C 134.06707 63.07068 128.25074 70.57738 128.25074 85.422365 L 128.25074 117.79907 L 104.24927 117.79907 L 104.24927 85.422365 C 104.24927 70.57738 98.434767 63.07068 86.832277 63.07068 C 76.338538 63.07068 71.0907 69.39955 71.0907 81.868288 L 71.0907 141.01868 L 46.948243 141.01868 L 46.948243 80.077516 C 46.948243 67.622529 50.118045 57.724105 56.488038 50.401612 C 63.056782 43.07912 71.66013 39.325562 82.338869 39.325562 z " />
</svg>
