<svg  version="1.1" xmlns="http://www.w3.org/2000/svg" width="627" height="724" viewBox="0 0 627 724">
<style type="text/css">
      svg { background: #f0fef8; }
      polygon { fill: #deede6; }
    </style><g transform="translate(-104.5 0)"><g transform="rotate(0)"><polygon points="5.329070518200751e-15,25.85704419870681 82.10714285714285,168.07147790064658 52.249999999999986,168.07147790064658 14.928571428571448,103.42817679482724 -22.392857142857142,168.07147790064658 -52.25,168.07147790064658 1.5987211554602254e-14,77.57113259612044 -14.928571428571416,51.71408839741362" fill="#def5eb"></polygon></g><g transform="rotate(60)"><polygon points="5.329070518200751e-15,25.85704419870681 82.10714285714285,168.07147790064658 52.249999999999986,168.07147790064658 14.928571428571448,103.42817679482724 -22.392857142857142,168.07147790064658 -52.25,168.07147790064658 1.5987211554602254e-14,77.57113259612044 -14.928571428571416,51.71408839741362" fill="#def5eb"></polygon></g><g transform="rotate(120)"><polygon points="5.329070518200751e-15,25.85704419870681 82.10714285714285,168.07147790064658 52.249999999999986,168.07147790064658 14.928571428571448,103.42817679482724 -22.392857142857142,168.07147790064658 -52.25,168.07147790064658 1.5987211554602254e-14,77.57113259612044 -14.928571428571416,51.71408839741362" fill="#def5eb"></polygon></g><g transform="rotate(180)"><polygon points="5.329070518200751e-15,25.85704419870681 82.10714285714285,168.07147790064658 52.249999999999986,168.07147790064658 14.928571428571448,103.42817679482724 -22.392857142857142,168.07147790064658 -52.25,168.07147790064658 1.5987211554602254e-14,77.57113259612044 -14.928571428571416,51.71408839741362" fill="#def5eb"></polygon></g><g transform="rotate(240)"><polygon points="5.329070518200751e-15,25.85704419870681 82.10714285714285,168.07147790064658 52.249999999999986,168.07147790064658 14.928571428571448,103.42817679482724 -22.392857142857142,168.07147790064658 -52.25,168.07147790064658 1.5987211554602254e-14,77.57113259612044 -14.928571428571416,51.71408839741362" fill="#def5eb"></polygon></g><g transform="rotate(300)"><polygon points="5.329070518200751e-15,25.85704419870681 82.10714285714285,168.07147790064658 52.249999999999986,168.07147790064658 14.928571428571448,103.42817679482724 -22.392857142857142,168.07147790064658 -52.25,168.07147790064658 1.5987211554602254e-14,77.57113259612044 -14.928571428571416,51.71408839741362" fill="#def5eb"></polygon></g></g><g transform="translate(522.5 0)"><g transform="rotate(0)"><polygon points="5.329070518200751e-15,25.85704419870681 82.10714285714285,168.07147790064658 52.249999999999986,168.07147790064658 14.928571428571448,103.42817679482724 -22.392857142857142,168.07147790064658 -52.25,168.07147790064658 1.5987211554602254e-14,77.57113259612044 -14.928571428571416,51.71408839741362" fill="#def5eb"></polygon></g><g transform="rotate(60)"><polygon points="5.329070518200751e-15,25.85704419870681 82.10714285714285,168.07147790064658 52.249999999999986,168.07147790064658 14.928571428571448,103.42817679482724 -22.392857142857142,168.07147790064658 -52.25,168.07147790064658 1.5987211554602254e-14,77.57113259612044 -14.928571428571416,51.71408839741362" fill="#def5eb"></polygon></g><g transform="rotate(120)"><polygon points="5.329070518200751e-15,25.85704419870681 82.10714285714285,168.07147790064658 52.249999999999986,168.07147790064658 14.928571428571448,103.42817679482724 -22.392857142857142,168.07147790064658 -52.25,168.07147790064658 1.5987211554602254e-14,77.57113259612044 -14.928571428571416,51.71408839741362" fill="#def5eb"></polygon></g><g transform="rotate(180)"><polygon points="5.329070518200751e-15,25.85704419870681 82.10714285714285,168.07147790064658 52.249999999999986,168.07147790064658 14.928571428571448,103.42817679482724 -22.392857142857142,168.07147790064658 -52.25,168.07147790064658 1.5987211554602254e-14,77.57113259612044 -14.928571428571416,51.71408839741362" fill="#def5eb"></polygon></g><g transform="rotate(240)"><polygon points="5.329070518200751e-15,25.85704419870681 82.10714285714285,168.07147790064658 52.249999999999986,168.07147790064658 14.928571428571448,103.42817679482724 -22.392857142857142,168.07147790064658 -52.25,168.07147790064658 1.5987211554602254e-14,77.57113259612044 -14.928571428571416,51.71408839741362" fill="#def5eb"></polygon></g><g transform="rotate(300)"><polygon points="5.329070518200751e-15,25.85704419870681 82.10714285714285,168.07147790064658 52.249999999999986,168.07147790064658 14.928571428571448,103.42817679482724 -22.392857142857142,168.07147790064658 -52.25,168.07147790064658 1.5987211554602254e-14,77.57113259612044 -14.928571428571416,51.71408839741362" fill="#def5eb"></polygon></g></g><g transform="translate(209 181)"><g transform="rotate(0)"><polygon points="5.329070518200751e-15,25.85704419870681 82.10714285714285,168.07147790064658 52.249999999999986,168.07147790064658 14.928571428571448,103.42817679482724 -22.392857142857142,168.07147790064658 -52.25,168.07147790064658 1.5987211554602254e-14,77.57113259612044 -14.928571428571416,51.71408839741362" fill="#def5eb"></polygon></g><g transform="rotate(60)"><polygon points="5.329070518200751e-15,25.85704419870681 82.10714285714285,168.07147790064658 52.249999999999986,168.07147790064658 14.928571428571448,103.42817679482724 -22.392857142857142,168.07147790064658 -52.25,168.07147790064658 1.5987211554602254e-14,77.57113259612044 -14.928571428571416,51.71408839741362" fill="#def5eb"></polygon></g><g transform="rotate(120)"><polygon points="5.329070518200751e-15,25.85704419870681 82.10714285714285,168.07147790064658 52.249999999999986,168.07147790064658 14.928571428571448,103.42817679482724 -22.392857142857142,168.07147790064658 -52.25,168.07147790064658 1.5987211554602254e-14,77.57113259612044 -14.928571428571416,51.71408839741362" fill="#def5eb"></polygon></g><g transform="rotate(180)"><polygon points="5.329070518200751e-15,25.85704419870681 82.10714285714285,168.07147790064658 52.249999999999986,168.07147790064658 14.928571428571448,103.42817679482724 -22.392857142857142,168.07147790064658 -52.25,168.07147790064658 1.5987211554602254e-14,77.57113259612044 -14.928571428571416,51.71408839741362" fill="#def5eb"></polygon></g><g transform="rotate(240)"><polygon points="5.329070518200751e-15,25.85704419870681 82.10714285714285,168.07147790064658 52.249999999999986,168.07147790064658 14.928571428571448,103.42817679482724 -22.392857142857142,168.07147790064658 -52.25,168.07147790064658 1.5987211554602254e-14,77.57113259612044 -14.928571428571416,51.71408839741362" fill="#def5eb"></polygon></g><g transform="rotate(300)"><polygon points="5.329070518200751e-15,25.85704419870681 82.10714285714285,168.07147790064658 52.249999999999986,168.07147790064658 14.928571428571448,103.42817679482724 -22.392857142857142,168.07147790064658 -52.25,168.07147790064658 1.5987211554602254e-14,77.57113259612044 -14.928571428571416,51.71408839741362" fill="#def5eb"></polygon></g></g><g transform="translate(-104.5 362)"><g transform="rotate(0)"><polygon points="5.329070518200751e-15,25.85704419870681 82.10714285714285,168.07147790064658 52.249999999999986,168.07147790064658 14.928571428571448,103.42817679482724 -22.392857142857142,168.07147790064658 -52.25,168.07147790064658 1.5987211554602254e-14,77.57113259612044 -14.928571428571416,51.71408839741362" fill="#def5eb"></polygon></g><g transform="rotate(60)"><polygon points="5.329070518200751e-15,25.85704419870681 82.10714285714285,168.07147790064658 52.249999999999986,168.07147790064658 14.928571428571448,103.42817679482724 -22.392857142857142,168.07147790064658 -52.25,168.07147790064658 1.5987211554602254e-14,77.57113259612044 -14.928571428571416,51.71408839741362" fill="#def5eb"></polygon></g><g transform="rotate(120)"><polygon points="5.329070518200751e-15,25.85704419870681 82.10714285714285,168.07147790064658 52.249999999999986,168.07147790064658 14.928571428571448,103.42817679482724 -22.392857142857142,168.07147790064658 -52.25,168.07147790064658 1.5987211554602254e-14,77.57113259612044 -14.928571428571416,51.71408839741362" fill="#def5eb"></polygon></g><g transform="rotate(180)"><polygon points="5.329070518200751e-15,25.85704419870681 82.10714285714285,168.07147790064658 52.249999999999986,168.07147790064658 14.928571428571448,103.42817679482724 -22.392857142857142,168.07147790064658 -52.25,168.07147790064658 1.5987211554602254e-14,77.57113259612044 -14.928571428571416,51.71408839741362" fill="#def5eb"></polygon></g><g transform="rotate(240)"><polygon points="5.329070518200751e-15,25.85704419870681 82.10714285714285,168.07147790064658 52.249999999999986,168.07147790064658 14.928571428571448,103.42817679482724 -22.392857142857142,168.07147790064658 -52.25,168.07147790064658 1.5987211554602254e-14,77.57113259612044 -14.928571428571416,51.71408839741362" fill="#def5eb"></polygon></g><g transform="rotate(300)"><polygon points="5.329070518200751e-15,25.85704419870681 82.10714285714285,168.07147790064658 52.249999999999986,168.07147790064658 14.928571428571448,103.42817679482724 -22.392857142857142,168.07147790064658 -52.25,168.07147790064658 1.5987211554602254e-14,77.57113259612044 -14.928571428571416,51.71408839741362" fill="#def5eb"></polygon></g></g><g transform="translate(522.5 362)"><g transform="rotate(0)"><polygon points="5.329070518200751e-15,25.85704419870681 82.10714285714285,168.07147790064658 52.249999999999986,168.07147790064658 14.928571428571448,103.42817679482724 -22.392857142857142,168.07147790064658 -52.25,168.07147790064658 1.5987211554602254e-14,77.57113259612044 -14.928571428571416,51.71408839741362" fill="#def5eb"></polygon></g><g transform="rotate(60)"><polygon points="5.329070518200751e-15,25.85704419870681 82.10714285714285,168.07147790064658 52.249999999999986,168.07147790064658 14.928571428571448,103.42817679482724 -22.392857142857142,168.07147790064658 -52.25,168.07147790064658 1.5987211554602254e-14,77.57113259612044 -14.928571428571416,51.71408839741362" fill="#def5eb"></polygon></g><g transform="rotate(120)"><polygon points="5.329070518200751e-15,25.85704419870681 82.10714285714285,168.07147790064658 52.249999999999986,168.07147790064658 14.928571428571448,103.42817679482724 -22.392857142857142,168.07147790064658 -52.25,168.07147790064658 1.5987211554602254e-14,77.57113259612044 -14.928571428571416,51.71408839741362" fill="#def5eb"></polygon></g><g transform="rotate(180)"><polygon points="5.329070518200751e-15,25.85704419870681 82.10714285714285,168.07147790064658 52.249999999999986,168.07147790064658 14.928571428571448,103.42817679482724 -22.392857142857142,168.07147790064658 -52.25,168.07147790064658 1.5987211554602254e-14,77.57113259612044 -14.928571428571416,51.71408839741362" fill="#def5eb"></polygon></g><g transform="rotate(240)"><polygon points="5.329070518200751e-15,25.85704419870681 82.10714285714285,168.07147790064658 52.249999999999986,168.07147790064658 14.928571428571448,103.42817679482724 -22.392857142857142,168.07147790064658 -52.25,168.07147790064658 1.5987211554602254e-14,77.57113259612044 -14.928571428571416,51.71408839741362" fill="#def5eb"></polygon></g><g transform="rotate(300)"><polygon points="5.329070518200751e-15,25.85704419870681 82.10714285714285,168.07147790064658 52.249999999999986,168.07147790064658 14.928571428571448,103.42817679482724 -22.392857142857142,168.07147790064658 -52.25,168.07147790064658 1.5987211554602254e-14,77.57113259612044 -14.928571428571416,51.71408839741362" fill="#def5eb"></polygon></g></g><g transform="translate(209 543)"><g transform="rotate(0)"><polygon points="5.329070518200751e-15,25.85704419870681 82.10714285714285,168.07147790064658 52.249999999999986,168.07147790064658 14.928571428571448,103.42817679482724 -22.392857142857142,168.07147790064658 -52.25,168.07147790064658 1.5987211554602254e-14,77.57113259612044 -14.928571428571416,51.71408839741362" fill="#def5eb"></polygon></g><g transform="rotate(60)"><polygon points="5.329070518200751e-15,25.85704419870681 82.10714285714285,168.07147790064658 52.249999999999986,168.07147790064658 14.928571428571448,103.42817679482724 -22.392857142857142,168.07147790064658 -52.25,168.07147790064658 1.5987211554602254e-14,77.57113259612044 -14.928571428571416,51.71408839741362" fill="#def5eb"></polygon></g><g transform="rotate(120)"><polygon points="5.329070518200751e-15,25.85704419870681 82.10714285714285,168.07147790064658 52.249999999999986,168.07147790064658 14.928571428571448,103.42817679482724 -22.392857142857142,168.07147790064658 -52.25,168.07147790064658 1.5987211554602254e-14,77.57113259612044 -14.928571428571416,51.71408839741362" fill="#def5eb"></polygon></g><g transform="rotate(180)"><polygon points="5.329070518200751e-15,25.85704419870681 82.10714285714285,168.07147790064658 52.249999999999986,168.07147790064658 14.928571428571448,103.42817679482724 -22.392857142857142,168.07147790064658 -52.25,168.07147790064658 1.5987211554602254e-14,77.57113259612044 -14.928571428571416,51.71408839741362" fill="#def5eb"></polygon></g><g transform="rotate(240)"><polygon points="5.329070518200751e-15,25.85704419870681 82.10714285714285,168.07147790064658 52.249999999999986,168.07147790064658 14.928571428571448,103.42817679482724 -22.392857142857142,168.07147790064658 -52.25,168.07147790064658 1.5987211554602254e-14,77.57113259612044 -14.928571428571416,51.71408839741362" fill="#def5eb"></polygon></g><g transform="rotate(300)"><polygon points="5.329070518200751e-15,25.85704419870681 82.10714285714285,168.07147790064658 52.249999999999986,168.07147790064658 14.928571428571448,103.42817679482724 -22.392857142857142,168.07147790064658 -52.25,168.07147790064658 1.5987211554602254e-14,77.57113259612044 -14.928571428571416,51.71408839741362" fill="#def5eb"></polygon></g></g><g transform="translate(-104.5 724)"><g transform="rotate(0)"><polygon points="5.329070518200751e-15,25.85704419870681 82.10714285714285,168.07147790064658 52.249999999999986,168.07147790064658 14.928571428571448,103.42817679482724 -22.392857142857142,168.07147790064658 -52.25,168.07147790064658 1.5987211554602254e-14,77.57113259612044 -14.928571428571416,51.71408839741362" fill="#def5eb"></polygon></g><g transform="rotate(60)"><polygon points="5.329070518200751e-15,25.85704419870681 82.10714285714285,168.07147790064658 52.249999999999986,168.07147790064658 14.928571428571448,103.42817679482724 -22.392857142857142,168.07147790064658 -52.25,168.07147790064658 1.5987211554602254e-14,77.57113259612044 -14.928571428571416,51.71408839741362" fill="#def5eb"></polygon></g><g transform="rotate(120)"><polygon points="5.329070518200751e-15,25.85704419870681 82.10714285714285,168.07147790064658 52.249999999999986,168.07147790064658 14.928571428571448,103.42817679482724 -22.392857142857142,168.07147790064658 -52.25,168.07147790064658 1.5987211554602254e-14,77.57113259612044 -14.928571428571416,51.71408839741362" fill="#def5eb"></polygon></g><g transform="rotate(180)"><polygon points="5.329070518200751e-15,25.85704419870681 82.10714285714285,168.07147790064658 52.249999999999986,168.07147790064658 14.928571428571448,103.42817679482724 -22.392857142857142,168.07147790064658 -52.25,168.07147790064658 1.5987211554602254e-14,77.57113259612044 -14.928571428571416,51.71408839741362" fill="#def5eb"></polygon></g><g transform="rotate(240)"><polygon points="5.329070518200751e-15,25.85704419870681 82.10714285714285,168.07147790064658 52.249999999999986,168.07147790064658 14.928571428571448,103.42817679482724 -22.392857142857142,168.07147790064658 -52.25,168.07147790064658 1.5987211554602254e-14,77.57113259612044 -14.928571428571416,51.71408839741362" fill="#def5eb"></polygon></g><g transform="rotate(300)"><polygon points="5.329070518200751e-15,25.85704419870681 82.10714285714285,168.07147790064658 52.249999999999986,168.07147790064658 14.928571428571448,103.42817679482724 -22.392857142857142,168.07147790064658 -52.25,168.07147790064658 1.5987211554602254e-14,77.57113259612044 -14.928571428571416,51.71408839741362" fill="#def5eb"></polygon></g></g><g transform="translate(522.5 724)"><g transform="rotate(0)"><polygon points="5.329070518200751e-15,25.85704419870681 82.10714285714285,168.07147790064658 52.249999999999986,168.07147790064658 14.928571428571448,103.42817679482724 -22.392857142857142,168.07147790064658 -52.25,168.07147790064658 1.5987211554602254e-14,77.57113259612044 -14.928571428571416,51.71408839741362" fill="#def5eb"></polygon></g><g transform="rotate(60)"><polygon points="5.329070518200751e-15,25.85704419870681 82.10714285714285,168.07147790064658 52.249999999999986,168.07147790064658 14.928571428571448,103.42817679482724 -22.392857142857142,168.07147790064658 -52.25,168.07147790064658 1.5987211554602254e-14,77.57113259612044 -14.928571428571416,51.71408839741362" fill="#def5eb"></polygon></g><g transform="rotate(120)"><polygon points="5.329070518200751e-15,25.85704419870681 82.10714285714285,168.07147790064658 52.249999999999986,168.07147790064658 14.928571428571448,103.42817679482724 -22.392857142857142,168.07147790064658 -52.25,168.07147790064658 1.5987211554602254e-14,77.57113259612044 -14.928571428571416,51.71408839741362" fill="#def5eb"></polygon></g><g transform="rotate(180)"><polygon points="5.329070518200751e-15,25.85704419870681 82.10714285714285,168.07147790064658 52.249999999999986,168.07147790064658 14.928571428571448,103.42817679482724 -22.392857142857142,168.07147790064658 -52.25,168.07147790064658 1.5987211554602254e-14,77.57113259612044 -14.928571428571416,51.71408839741362" fill="#def5eb"></polygon></g><g transform="rotate(240)"><polygon points="5.329070518200751e-15,25.85704419870681 82.10714285714285,168.07147790064658 52.249999999999986,168.07147790064658 14.928571428571448,103.42817679482724 -22.392857142857142,168.07147790064658 -52.25,168.07147790064658 1.5987211554602254e-14,77.57113259612044 -14.928571428571416,51.71408839741362" fill="#def5eb"></polygon></g><g transform="rotate(300)"><polygon points="5.329070518200751e-15,25.85704419870681 82.10714285714285,168.07147790064658 52.249999999999986,168.07147790064658 14.928571428571448,103.42817679482724 -22.392857142857142,168.07147790064658 -52.25,168.07147790064658 1.5987211554602254e-14,77.57113259612044 -14.928571428571416,51.71408839741362" fill="#def5eb"></polygon></g></g>
</svg>
