<svg  version="1.1" xmlns="http://www.w3.org/2000/svg" width="627" height="724" viewBox="0 0 627 724">
<style type="text/css"> svg { background: #f0fef8; } polygon { fill: #deede6; } </style><g transform="translate(-104.5 0)"><g transform="rotate(0)"><polygon points="7.105427357601002e-15,40.22206875354392 69.66666666666666,160.88896562322805 46.444444444444436,160.88896562322805 11.611111111111127,100.5551718838598 -23.22222222222223,160.88896562322805 -46.44444444444445,160.88896562322805 1.4210854715202004e-14,80.44413750708785 -11.611111111111098,60.33310313031589" fill="#def5eb"></polygon></g><g transform="rotate(60)"><polygon points="7.105427357601002e-15,40.22206875354392 69.66666666666666,160.88896562322805 46.444444444444436,160.88896562322805 11.611111111111127,100.5551718838598 -23.22222222222223,160.88896562322805 -46.44444444444445,160.88896562322805 1.4210854715202004e-14,80.44413750708785 -11.611111111111098,60.33310313031589" fill="#def5eb"></polygon></g><g transform="rotate(120)"><polygon points="7.105427357601002e-15,40.22206875354392 69.66666666666666,160.88896562322805 46.444444444444436,160.88896562322805 11.611111111111127,100.5551718838598 -23.22222222222223,160.88896562322805 -46.44444444444445,160.88896562322805 1.4210854715202004e-14,80.44413750708785 -11.611111111111098,60.33310313031589" fill="#def5eb"></polygon></g><g transform="rotate(180)"><polygon points="7.105427357601002e-15,40.22206875354392 69.66666666666666,160.88896562322805 46.444444444444436,160.88896562322805 11.611111111111127,100.5551718838598 -23.22222222222223,160.88896562322805 -46.44444444444445,160.88896562322805 1.4210854715202004e-14,80.44413750708785 -11.611111111111098,60.33310313031589" fill="#def5eb"></polygon></g><g transform="rotate(240)"><polygon points="7.105427357601002e-15,40.22206875354392 69.66666666666666,160.88896562322805 46.444444444444436,160.88896562322805 11.611111111111127,100.5551718838598 -23.22222222222223,160.88896562322805 -46.44444444444445,160.88896562322805 1.4210854715202004e-14,80.44413750708785 -11.611111111111098,60.33310313031589" fill="#def5eb"></polygon></g><g transform="rotate(300)"><polygon points="7.105427357601002e-15,40.22206875354392 69.66666666666666,160.88896562322805 46.444444444444436,160.88896562322805 11.611111111111127,100.5551718838598 -23.22222222222223,160.88896562322805 -46.44444444444445,160.88896562322805 1.4210854715202004e-14,80.44413750708785 -11.611111111111098,60.33310313031589" fill="#def5eb"></polygon></g></g><g transform="translate(522.5 0)"><g transform="rotate(0)"><polygon points="7.105427357601002e-15,40.22206875354392 69.66666666666666,160.88896562322805 46.444444444444436,160.88896562322805 11.611111111111127,100.5551718838598 -23.22222222222223,160.88896562322805 -46.44444444444445,160.88896562322805 1.4210854715202004e-14,80.44413750708785 -11.611111111111098,60.33310313031589" fill="#def5eb"></polygon></g><g transform="rotate(60)"><polygon points="7.105427357601002e-15,40.22206875354392 69.66666666666666,160.88896562322805 46.444444444444436,160.88896562322805 11.611111111111127,100.5551718838598 -23.22222222222223,160.88896562322805 -46.44444444444445,160.88896562322805 1.4210854715202004e-14,80.44413750708785 -11.611111111111098,60.33310313031589" fill="#def5eb"></polygon></g><g transform="rotate(120)"><polygon points="7.105427357601002e-15,40.22206875354392 69.66666666666666,160.88896562322805 46.444444444444436,160.88896562322805 11.611111111111127,100.5551718838598 -23.22222222222223,160.88896562322805 -46.44444444444445,160.88896562322805 1.4210854715202004e-14,80.44413750708785 -11.611111111111098,60.33310313031589" fill="#def5eb"></polygon></g><g transform="rotate(180)"><polygon points="7.105427357601002e-15,40.22206875354392 69.66666666666666,160.88896562322805 46.444444444444436,160.88896562322805 11.611111111111127,100.5551718838598 -23.22222222222223,160.88896562322805 -46.44444444444445,160.88896562322805 1.4210854715202004e-14,80.44413750708785 -11.611111111111098,60.33310313031589" fill="#def5eb"></polygon></g><g transform="rotate(240)"><polygon points="7.105427357601002e-15,40.22206875354392 69.66666666666666,160.88896562322805 46.444444444444436,160.88896562322805 11.611111111111127,100.5551718838598 -23.22222222222223,160.88896562322805 -46.44444444444445,160.88896562322805 1.4210854715202004e-14,80.44413750708785 -11.611111111111098,60.33310313031589" fill="#def5eb"></polygon></g><g transform="rotate(300)"><polygon points="7.105427357601002e-15,40.22206875354392 69.66666666666666,160.88896562322805 46.444444444444436,160.88896562322805 11.611111111111127,100.5551718838598 -23.22222222222223,160.88896562322805 -46.44444444444445,160.88896562322805 1.4210854715202004e-14,80.44413750708785 -11.611111111111098,60.33310313031589" fill="#def5eb"></polygon></g></g><g transform="translate(209 181)"><g transform="rotate(0)"><polygon points="7.105427357601002e-15,40.22206875354392 69.66666666666666,160.88896562322805 46.444444444444436,160.88896562322805 11.611111111111127,100.5551718838598 -23.22222222222223,160.88896562322805 -46.44444444444445,160.88896562322805 1.4210854715202004e-14,80.44413750708785 -11.611111111111098,60.33310313031589" fill="#def5eb"></polygon></g><g transform="rotate(60)"><polygon points="7.105427357601002e-15,40.22206875354392 69.66666666666666,160.88896562322805 46.444444444444436,160.88896562322805 11.611111111111127,100.5551718838598 -23.22222222222223,160.88896562322805 -46.44444444444445,160.88896562322805 1.4210854715202004e-14,80.44413750708785 -11.611111111111098,60.33310313031589" fill="#def5eb"></polygon></g><g transform="rotate(120)"><polygon points="7.105427357601002e-15,40.22206875354392 69.66666666666666,160.88896562322805 46.444444444444436,160.88896562322805 11.611111111111127,100.5551718838598 -23.22222222222223,160.88896562322805 -46.44444444444445,160.88896562322805 1.4210854715202004e-14,80.44413750708785 -11.611111111111098,60.33310313031589" fill="#def5eb"></polygon></g><g transform="rotate(180)"><polygon points="7.105427357601002e-15,40.22206875354392 69.66666666666666,160.88896562322805 46.444444444444436,160.88896562322805 11.611111111111127,100.5551718838598 -23.22222222222223,160.88896562322805 -46.44444444444445,160.88896562322805 1.4210854715202004e-14,80.44413750708785 -11.611111111111098,60.33310313031589" fill="#def5eb"></polygon></g><g transform="rotate(240)"><polygon points="7.105427357601002e-15,40.22206875354392 69.66666666666666,160.88896562322805 46.444444444444436,160.88896562322805 11.611111111111127,100.5551718838598 -23.22222222222223,160.88896562322805 -46.44444444444445,160.88896562322805 1.4210854715202004e-14,80.44413750708785 -11.611111111111098,60.33310313031589" fill="#def5eb"></polygon></g><g transform="rotate(300)"><polygon points="7.105427357601002e-15,40.22206875354392 69.66666666666666,160.88896562322805 46.444444444444436,160.88896562322805 11.611111111111127,100.5551718838598 -23.22222222222223,160.88896562322805 -46.44444444444445,160.88896562322805 1.4210854715202004e-14,80.44413750708785 -11.611111111111098,60.33310313031589" fill="#def5eb"></polygon></g></g><g transform="translate(-104.5 362)"><g transform="rotate(0)"><polygon points="7.105427357601002e-15,40.22206875354392 69.66666666666666,160.88896562322805 46.444444444444436,160.88896562322805 11.611111111111127,100.5551718838598 -23.22222222222223,160.88896562322805 -46.44444444444445,160.88896562322805 1.4210854715202004e-14,80.44413750708785 -11.611111111111098,60.33310313031589" fill="#def5eb"></polygon></g><g transform="rotate(60)"><polygon points="7.105427357601002e-15,40.22206875354392 69.66666666666666,160.88896562322805 46.444444444444436,160.88896562322805 11.611111111111127,100.5551718838598 -23.22222222222223,160.88896562322805 -46.44444444444445,160.88896562322805 1.4210854715202004e-14,80.44413750708785 -11.611111111111098,60.33310313031589" fill="#def5eb"></polygon></g><g transform="rotate(120)"><polygon points="7.105427357601002e-15,40.22206875354392 69.66666666666666,160.88896562322805 46.444444444444436,160.88896562322805 11.611111111111127,100.5551718838598 -23.22222222222223,160.88896562322805 -46.44444444444445,160.88896562322805 1.4210854715202004e-14,80.44413750708785 -11.611111111111098,60.33310313031589" fill="#def5eb"></polygon></g><g transform="rotate(180)"><polygon points="7.105427357601002e-15,40.22206875354392 69.66666666666666,160.88896562322805 46.444444444444436,160.88896562322805 11.611111111111127,100.5551718838598 -23.22222222222223,160.88896562322805 -46.44444444444445,160.88896562322805 1.4210854715202004e-14,80.44413750708785 -11.611111111111098,60.33310313031589" fill="#def5eb"></polygon></g><g transform="rotate(240)"><polygon points="7.105427357601002e-15,40.22206875354392 69.66666666666666,160.88896562322805 46.444444444444436,160.88896562322805 11.611111111111127,100.5551718838598 -23.22222222222223,160.88896562322805 -46.44444444444445,160.88896562322805 1.4210854715202004e-14,80.44413750708785 -11.611111111111098,60.33310313031589" fill="#def5eb"></polygon></g><g transform="rotate(300)"><polygon points="7.105427357601002e-15,40.22206875354392 69.66666666666666,160.88896562322805 46.444444444444436,160.88896562322805 11.611111111111127,100.5551718838598 -23.22222222222223,160.88896562322805 -46.44444444444445,160.88896562322805 1.4210854715202004e-14,80.44413750708785 -11.611111111111098,60.33310313031589" fill="#def5eb"></polygon></g></g><g transform="translate(522.5 362)"><g transform="rotate(0)"><polygon points="7.105427357601002e-15,40.22206875354392 69.66666666666666,160.88896562322805 46.444444444444436,160.88896562322805 11.611111111111127,100.5551718838598 -23.22222222222223,160.88896562322805 -46.44444444444445,160.88896562322805 1.4210854715202004e-14,80.44413750708785 -11.611111111111098,60.33310313031589" fill="#def5eb"></polygon></g><g transform="rotate(60)"><polygon points="7.105427357601002e-15,40.22206875354392 69.66666666666666,160.88896562322805 46.444444444444436,160.88896562322805 11.611111111111127,100.5551718838598 -23.22222222222223,160.88896562322805 -46.44444444444445,160.88896562322805 1.4210854715202004e-14,80.44413750708785 -11.611111111111098,60.33310313031589" fill="#def5eb"></polygon></g><g transform="rotate(120)"><polygon points="7.105427357601002e-15,40.22206875354392 69.66666666666666,160.88896562322805 46.444444444444436,160.88896562322805 11.611111111111127,100.5551718838598 -23.22222222222223,160.88896562322805 -46.44444444444445,160.88896562322805 1.4210854715202004e-14,80.44413750708785 -11.611111111111098,60.33310313031589" fill="#def5eb"></polygon></g><g transform="rotate(180)"><polygon points="7.105427357601002e-15,40.22206875354392 69.66666666666666,160.88896562322805 46.444444444444436,160.88896562322805 11.611111111111127,100.5551718838598 -23.22222222222223,160.88896562322805 -46.44444444444445,160.88896562322805 1.4210854715202004e-14,80.44413750708785 -11.611111111111098,60.33310313031589" fill="#def5eb"></polygon></g><g transform="rotate(240)"><polygon points="7.105427357601002e-15,40.22206875354392 69.66666666666666,160.88896562322805 46.444444444444436,160.88896562322805 11.611111111111127,100.5551718838598 -23.22222222222223,160.88896562322805 -46.44444444444445,160.88896562322805 1.4210854715202004e-14,80.44413750708785 -11.611111111111098,60.33310313031589" fill="#def5eb"></polygon></g><g transform="rotate(300)"><polygon points="7.105427357601002e-15,40.22206875354392 69.66666666666666,160.88896562322805 46.444444444444436,160.88896562322805 11.611111111111127,100.5551718838598 -23.22222222222223,160.88896562322805 -46.44444444444445,160.88896562322805 1.4210854715202004e-14,80.44413750708785 -11.611111111111098,60.33310313031589" fill="#def5eb"></polygon></g></g><g transform="translate(209 543)"><g transform="rotate(0)"><polygon points="7.105427357601002e-15,40.22206875354392 69.66666666666666,160.88896562322805 46.444444444444436,160.88896562322805 11.611111111111127,100.5551718838598 -23.22222222222223,160.88896562322805 -46.44444444444445,160.88896562322805 1.4210854715202004e-14,80.44413750708785 -11.611111111111098,60.33310313031589" fill="#def5eb"></polygon></g><g transform="rotate(60)"><polygon points="7.105427357601002e-15,40.22206875354392 69.66666666666666,160.88896562322805 46.444444444444436,160.88896562322805 11.611111111111127,100.5551718838598 -23.22222222222223,160.88896562322805 -46.44444444444445,160.88896562322805 1.4210854715202004e-14,80.44413750708785 -11.611111111111098,60.33310313031589" fill="#def5eb"></polygon></g><g transform="rotate(120)"><polygon points="7.105427357601002e-15,40.22206875354392 69.66666666666666,160.88896562322805 46.444444444444436,160.88896562322805 11.611111111111127,100.5551718838598 -23.22222222222223,160.88896562322805 -46.44444444444445,160.88896562322805 1.4210854715202004e-14,80.44413750708785 -11.611111111111098,60.33310313031589" fill="#def5eb"></polygon></g><g transform="rotate(180)"><polygon points="7.105427357601002e-15,40.22206875354392 69.66666666666666,160.88896562322805 46.444444444444436,160.88896562322805 11.611111111111127,100.5551718838598 -23.22222222222223,160.88896562322805 -46.44444444444445,160.88896562322805 1.4210854715202004e-14,80.44413750708785 -11.611111111111098,60.33310313031589" fill="#def5eb"></polygon></g><g transform="rotate(240)"><polygon points="7.105427357601002e-15,40.22206875354392 69.66666666666666,160.88896562322805 46.444444444444436,160.88896562322805 11.611111111111127,100.5551718838598 -23.22222222222223,160.88896562322805 -46.44444444444445,160.88896562322805 1.4210854715202004e-14,80.44413750708785 -11.611111111111098,60.33310313031589" fill="#def5eb"></polygon></g><g transform="rotate(300)"><polygon points="7.105427357601002e-15,40.22206875354392 69.66666666666666,160.88896562322805 46.444444444444436,160.88896562322805 11.611111111111127,100.5551718838598 -23.22222222222223,160.88896562322805 -46.44444444444445,160.88896562322805 1.4210854715202004e-14,80.44413750708785 -11.611111111111098,60.33310313031589" fill="#def5eb"></polygon></g></g><g transform="translate(-104.5 724)"><g transform="rotate(0)"><polygon points="7.105427357601002e-15,40.22206875354392 69.66666666666666,160.88896562322805 46.444444444444436,160.88896562322805 11.611111111111127,100.5551718838598 -23.22222222222223,160.88896562322805 -46.44444444444445,160.88896562322805 1.4210854715202004e-14,80.44413750708785 -11.611111111111098,60.33310313031589" fill="#def5eb"></polygon></g><g transform="rotate(60)"><polygon points="7.105427357601002e-15,40.22206875354392 69.66666666666666,160.88896562322805 46.444444444444436,160.88896562322805 11.611111111111127,100.5551718838598 -23.22222222222223,160.88896562322805 -46.44444444444445,160.88896562322805 1.4210854715202004e-14,80.44413750708785 -11.611111111111098,60.33310313031589" fill="#def5eb"></polygon></g><g transform="rotate(120)"><polygon points="7.105427357601002e-15,40.22206875354392 69.66666666666666,160.88896562322805 46.444444444444436,160.88896562322805 11.611111111111127,100.5551718838598 -23.22222222222223,160.88896562322805 -46.44444444444445,160.88896562322805 1.4210854715202004e-14,80.44413750708785 -11.611111111111098,60.33310313031589" fill="#def5eb"></polygon></g><g transform="rotate(180)"><polygon points="7.105427357601002e-15,40.22206875354392 69.66666666666666,160.88896562322805 46.444444444444436,160.88896562322805 11.611111111111127,100.5551718838598 -23.22222222222223,160.88896562322805 -46.44444444444445,160.88896562322805 1.4210854715202004e-14,80.44413750708785 -11.611111111111098,60.33310313031589" fill="#def5eb"></polygon></g><g transform="rotate(240)"><polygon points="7.105427357601002e-15,40.22206875354392 69.66666666666666,160.88896562322805 46.444444444444436,160.88896562322805 11.611111111111127,100.5551718838598 -23.22222222222223,160.88896562322805 -46.44444444444445,160.88896562322805 1.4210854715202004e-14,80.44413750708785 -11.611111111111098,60.33310313031589" fill="#def5eb"></polygon></g><g transform="rotate(300)"><polygon points="7.105427357601002e-15,40.22206875354392 69.66666666666666,160.88896562322805 46.444444444444436,160.88896562322805 11.611111111111127,100.5551718838598 -23.22222222222223,160.88896562322805 -46.44444444444445,160.88896562322805 1.4210854715202004e-14,80.44413750708785 -11.611111111111098,60.33310313031589" fill="#def5eb"></polygon></g></g><g transform="translate(522.5 724)"><g transform="rotate(0)"><polygon points="7.105427357601002e-15,40.22206875354392 69.66666666666666,160.88896562322805 46.444444444444436,160.88896562322805 11.611111111111127,100.5551718838598 -23.22222222222223,160.88896562322805 -46.44444444444445,160.88896562322805 1.4210854715202004e-14,80.44413750708785 -11.611111111111098,60.33310313031589" fill="#def5eb"></polygon></g><g transform="rotate(60)"><polygon points="7.105427357601002e-15,40.22206875354392 69.66666666666666,160.88896562322805 46.444444444444436,160.88896562322805 11.611111111111127,100.5551718838598 -23.22222222222223,160.88896562322805 -46.44444444444445,160.88896562322805 1.4210854715202004e-14,80.44413750708785 -11.611111111111098,60.33310313031589" fill="#def5eb"></polygon></g><g transform="rotate(120)"><polygon points="7.105427357601002e-15,40.22206875354392 69.66666666666666,160.88896562322805 46.444444444444436,160.88896562322805 11.611111111111127,100.5551718838598 -23.22222222222223,160.88896562322805 -46.44444444444445,160.88896562322805 1.4210854715202004e-14,80.44413750708785 -11.611111111111098,60.33310313031589" fill="#def5eb"></polygon></g><g transform="rotate(180)"><polygon points="7.105427357601002e-15,40.22206875354392 69.66666666666666,160.88896562322805 46.444444444444436,160.88896562322805 11.611111111111127,100.5551718838598 -23.22222222222223,160.88896562322805 -46.44444444444445,160.88896562322805 1.4210854715202004e-14,80.44413750708785 -11.611111111111098,60.33310313031589" fill="#def5eb"></polygon></g><g transform="rotate(240)"><polygon points="7.105427357601002e-15,40.22206875354392 69.66666666666666,160.88896562322805 46.444444444444436,160.88896562322805 11.611111111111127,100.5551718838598 -23.22222222222223,160.88896562322805 -46.44444444444445,160.88896562322805 1.4210854715202004e-14,80.44413750708785 -11.611111111111098,60.33310313031589" fill="#def5eb"></polygon></g><g transform="rotate(300)"><polygon points="7.105427357601002e-15,40.22206875354392 69.66666666666666,160.88896562322805 46.444444444444436,160.88896562322805 11.611111111111127,100.5551718838598 -23.22222222222223,160.88896562322805 -46.44444444444445,160.88896562322805 1.4210854715202004e-14,80.44413750708785 -11.611111111111098,60.33310313031589" fill="#def5eb"></polygon></g></g></svg>
