<svg  version="1.1" xmlns="http://www.w3.org/2000/svg" width="627" height="724" viewBox="0 0 627 724">
<style type="text/css">
      svg { background: #e4f5ed; }
      polygon { fill: #f0fef8; }
      line { stroke: #f0fef8; stroke-width: 2px; }
    </style><g transform="translate(-104.5 0)"><g transform="rotate(0)"><polygon points="8.881784197001252e-15,45.249827347736925 65.3125,158.37508632613154 39.1875,158.37508632613154 13.062500000000021,113.12456836934231 -13.0625,158.37508632613154 -39.1875,158.37508632613154 1.7763568394002505e-14,90.49965469547385 -13.062499999999986,67.87474102160539" fill="#def5eb"></polygon></g><g transform="rotate(60)"><polygon points="8.881784197001252e-15,45.249827347736925 65.3125,158.37508632613154 39.1875,158.37508632613154 13.062500000000021,113.12456836934231 -13.0625,158.37508632613154 -39.1875,158.37508632613154 1.7763568394002505e-14,90.49965469547385 -13.062499999999986,67.87474102160539" fill="#def5eb"></polygon></g><g transform="rotate(120)"><polygon points="8.881784197001252e-15,45.249827347736925 65.3125,158.37508632613154 39.1875,158.37508632613154 13.062500000000021,113.12456836934231 -13.0625,158.37508632613154 -39.1875,158.37508632613154 1.7763568394002505e-14,90.49965469547385 -13.062499999999986,67.87474102160539" fill="#def5eb"></polygon></g><g transform="rotate(180)"><polygon points="8.881784197001252e-15,45.249827347736925 65.3125,158.37508632613154 39.1875,158.37508632613154 13.062500000000021,113.12456836934231 -13.0625,158.37508632613154 -39.1875,158.37508632613154 1.7763568394002505e-14,90.49965469547385 -13.062499999999986,67.87474102160539" fill="#def5eb"></polygon></g><g transform="rotate(240)"><polygon points="8.881784197001252e-15,45.249827347736925 65.3125,158.37508632613154 39.1875,158.37508632613154 13.062500000000021,113.12456836934231 -13.0625,158.37508632613154 -39.1875,158.37508632613154 1.7763568394002505e-14,90.49965469547385 -13.062499999999986,67.87474102160539" fill="#def5eb"></polygon></g><g transform="rotate(300)"><polygon points="8.881784197001252e-15,45.249827347736925 65.3125,158.37508632613154 39.1875,158.37508632613154 13.062500000000021,113.12456836934231 -13.0625,158.37508632613154 -39.1875,158.37508632613154 1.7763568394002505e-14,90.49965469547385 -13.062499999999986,67.87474102160539" fill="#def5eb"></polygon></g></g><g transform="translate(522.5 0)"><g transform="rotate(0)"><polygon points="8.881784197001252e-15,45.249827347736925 65.3125,158.37508632613154 39.1875,158.37508632613154 13.062500000000021,113.12456836934231 -13.0625,158.37508632613154 -39.1875,158.37508632613154 1.7763568394002505e-14,90.49965469547385 -13.062499999999986,67.87474102160539" fill="#def5eb"></polygon></g><g transform="rotate(60)"><polygon points="8.881784197001252e-15,45.249827347736925 65.3125,158.37508632613154 39.1875,158.37508632613154 13.062500000000021,113.12456836934231 -13.0625,158.37508632613154 -39.1875,158.37508632613154 1.7763568394002505e-14,90.49965469547385 -13.062499999999986,67.87474102160539" fill="#def5eb"></polygon></g><g transform="rotate(120)"><polygon points="8.881784197001252e-15,45.249827347736925 65.3125,158.37508632613154 39.1875,158.37508632613154 13.062500000000021,113.12456836934231 -13.0625,158.37508632613154 -39.1875,158.37508632613154 1.7763568394002505e-14,90.49965469547385 -13.062499999999986,67.87474102160539" fill="#def5eb"></polygon></g><g transform="rotate(180)"><polygon points="8.881784197001252e-15,45.249827347736925 65.3125,158.37508632613154 39.1875,158.37508632613154 13.062500000000021,113.12456836934231 -13.0625,158.37508632613154 -39.1875,158.37508632613154 1.7763568394002505e-14,90.49965469547385 -13.062499999999986,67.87474102160539" fill="#def5eb"></polygon></g><g transform="rotate(240)"><polygon points="8.881784197001252e-15,45.249827347736925 65.3125,158.37508632613154 39.1875,158.37508632613154 13.062500000000021,113.12456836934231 -13.0625,158.37508632613154 -39.1875,158.37508632613154 1.7763568394002505e-14,90.49965469547385 -13.062499999999986,67.87474102160539" fill="#def5eb"></polygon></g><g transform="rotate(300)"><polygon points="8.881784197001252e-15,45.249827347736925 65.3125,158.37508632613154 39.1875,158.37508632613154 13.062500000000021,113.12456836934231 -13.0625,158.37508632613154 -39.1875,158.37508632613154 1.7763568394002505e-14,90.49965469547385 -13.062499999999986,67.87474102160539" fill="#def5eb"></polygon></g></g><g transform="translate(209 181)"><g transform="rotate(0)"><polygon points="8.881784197001252e-15,45.249827347736925 65.3125,158.37508632613154 39.1875,158.37508632613154 13.062500000000021,113.12456836934231 -13.0625,158.37508632613154 -39.1875,158.37508632613154 1.7763568394002505e-14,90.49965469547385 -13.062499999999986,67.87474102160539" fill="#def5eb"></polygon></g><g transform="rotate(60)"><polygon points="8.881784197001252e-15,45.249827347736925 65.3125,158.37508632613154 39.1875,158.37508632613154 13.062500000000021,113.12456836934231 -13.0625,158.37508632613154 -39.1875,158.37508632613154 1.7763568394002505e-14,90.49965469547385 -13.062499999999986,67.87474102160539" fill="#def5eb"></polygon></g><g transform="rotate(120)"><polygon points="8.881784197001252e-15,45.249827347736925 65.3125,158.37508632613154 39.1875,158.37508632613154 13.062500000000021,113.12456836934231 -13.0625,158.37508632613154 -39.1875,158.37508632613154 1.7763568394002505e-14,90.49965469547385 -13.062499999999986,67.87474102160539" fill="#def5eb"></polygon></g><g transform="rotate(180)"><polygon points="8.881784197001252e-15,45.249827347736925 65.3125,158.37508632613154 39.1875,158.37508632613154 13.062500000000021,113.12456836934231 -13.0625,158.37508632613154 -39.1875,158.37508632613154 1.7763568394002505e-14,90.49965469547385 -13.062499999999986,67.87474102160539" fill="#def5eb"></polygon></g><g transform="rotate(240)"><polygon points="8.881784197001252e-15,45.249827347736925 65.3125,158.37508632613154 39.1875,158.37508632613154 13.062500000000021,113.12456836934231 -13.0625,158.37508632613154 -39.1875,158.37508632613154 1.7763568394002505e-14,90.49965469547385 -13.062499999999986,67.87474102160539" fill="#def5eb"></polygon></g><g transform="rotate(300)"><polygon points="8.881784197001252e-15,45.249827347736925 65.3125,158.37508632613154 39.1875,158.37508632613154 13.062500000000021,113.12456836934231 -13.0625,158.37508632613154 -39.1875,158.37508632613154 1.7763568394002505e-14,90.49965469547385 -13.062499999999986,67.87474102160539" fill="#def5eb"></polygon></g></g><g transform="translate(-104.5 362)"><g transform="rotate(0)"><polygon points="8.881784197001252e-15,45.249827347736925 65.3125,158.37508632613154 39.1875,158.37508632613154 13.062500000000021,113.12456836934231 -13.0625,158.37508632613154 -39.1875,158.37508632613154 1.7763568394002505e-14,90.49965469547385 -13.062499999999986,67.87474102160539" fill="#def5eb"></polygon></g><g transform="rotate(60)"><polygon points="8.881784197001252e-15,45.249827347736925 65.3125,158.37508632613154 39.1875,158.37508632613154 13.062500000000021,113.12456836934231 -13.0625,158.37508632613154 -39.1875,158.37508632613154 1.7763568394002505e-14,90.49965469547385 -13.062499999999986,67.87474102160539" fill="#def5eb"></polygon></g><g transform="rotate(120)"><polygon points="8.881784197001252e-15,45.249827347736925 65.3125,158.37508632613154 39.1875,158.37508632613154 13.062500000000021,113.12456836934231 -13.0625,158.37508632613154 -39.1875,158.37508632613154 1.7763568394002505e-14,90.49965469547385 -13.062499999999986,67.87474102160539" fill="#def5eb"></polygon></g><g transform="rotate(180)"><polygon points="8.881784197001252e-15,45.249827347736925 65.3125,158.37508632613154 39.1875,158.37508632613154 13.062500000000021,113.12456836934231 -13.0625,158.37508632613154 -39.1875,158.37508632613154 1.7763568394002505e-14,90.49965469547385 -13.062499999999986,67.87474102160539" fill="#def5eb"></polygon></g><g transform="rotate(240)"><polygon points="8.881784197001252e-15,45.249827347736925 65.3125,158.37508632613154 39.1875,158.37508632613154 13.062500000000021,113.12456836934231 -13.0625,158.37508632613154 -39.1875,158.37508632613154 1.7763568394002505e-14,90.49965469547385 -13.062499999999986,67.87474102160539" fill="#def5eb"></polygon></g><g transform="rotate(300)"><polygon points="8.881784197001252e-15,45.249827347736925 65.3125,158.37508632613154 39.1875,158.37508632613154 13.062500000000021,113.12456836934231 -13.0625,158.37508632613154 -39.1875,158.37508632613154 1.7763568394002505e-14,90.49965469547385 -13.062499999999986,67.87474102160539" fill="#def5eb"></polygon></g></g><g transform="translate(522.5 362)"><g transform="rotate(0)"><polygon points="8.881784197001252e-15,45.249827347736925 65.3125,158.37508632613154 39.1875,158.37508632613154 13.062500000000021,113.12456836934231 -13.0625,158.37508632613154 -39.1875,158.37508632613154 1.7763568394002505e-14,90.49965469547385 -13.062499999999986,67.87474102160539" fill="#def5eb"></polygon></g><g transform="rotate(60)"><polygon points="8.881784197001252e-15,45.249827347736925 65.3125,158.37508632613154 39.1875,158.37508632613154 13.062500000000021,113.12456836934231 -13.0625,158.37508632613154 -39.1875,158.37508632613154 1.7763568394002505e-14,90.49965469547385 -13.062499999999986,67.87474102160539" fill="#def5eb"></polygon></g><g transform="rotate(120)"><polygon points="8.881784197001252e-15,45.249827347736925 65.3125,158.37508632613154 39.1875,158.37508632613154 13.062500000000021,113.12456836934231 -13.0625,158.37508632613154 -39.1875,158.37508632613154 1.7763568394002505e-14,90.49965469547385 -13.062499999999986,67.87474102160539" fill="#def5eb"></polygon></g><g transform="rotate(180)"><polygon points="8.881784197001252e-15,45.249827347736925 65.3125,158.37508632613154 39.1875,158.37508632613154 13.062500000000021,113.12456836934231 -13.0625,158.37508632613154 -39.1875,158.37508632613154 1.7763568394002505e-14,90.49965469547385 -13.062499999999986,67.87474102160539" fill="#def5eb"></polygon></g><g transform="rotate(240)"><polygon points="8.881784197001252e-15,45.249827347736925 65.3125,158.37508632613154 39.1875,158.37508632613154 13.062500000000021,113.12456836934231 -13.0625,158.37508632613154 -39.1875,158.37508632613154 1.7763568394002505e-14,90.49965469547385 -13.062499999999986,67.87474102160539" fill="#def5eb"></polygon></g><g transform="rotate(300)"><polygon points="8.881784197001252e-15,45.249827347736925 65.3125,158.37508632613154 39.1875,158.37508632613154 13.062500000000021,113.12456836934231 -13.0625,158.37508632613154 -39.1875,158.37508632613154 1.7763568394002505e-14,90.49965469547385 -13.062499999999986,67.87474102160539" fill="#def5eb"></polygon></g></g><g transform="translate(209 543)"><g transform="rotate(0)"><polygon points="8.881784197001252e-15,45.249827347736925 65.3125,158.37508632613154 39.1875,158.37508632613154 13.062500000000021,113.12456836934231 -13.0625,158.37508632613154 -39.1875,158.37508632613154 1.7763568394002505e-14,90.49965469547385 -13.062499999999986,67.87474102160539" fill="#def5eb"></polygon></g><g transform="rotate(60)"><polygon points="8.881784197001252e-15,45.249827347736925 65.3125,158.37508632613154 39.1875,158.37508632613154 13.062500000000021,113.12456836934231 -13.0625,158.37508632613154 -39.1875,158.37508632613154 1.7763568394002505e-14,90.49965469547385 -13.062499999999986,67.87474102160539" fill="#def5eb"></polygon></g><g transform="rotate(120)"><polygon points="8.881784197001252e-15,45.249827347736925 65.3125,158.37508632613154 39.1875,158.37508632613154 13.062500000000021,113.12456836934231 -13.0625,158.37508632613154 -39.1875,158.37508632613154 1.7763568394002505e-14,90.49965469547385 -13.062499999999986,67.87474102160539" fill="#def5eb"></polygon></g><g transform="rotate(180)"><polygon points="8.881784197001252e-15,45.249827347736925 65.3125,158.37508632613154 39.1875,158.37508632613154 13.062500000000021,113.12456836934231 -13.0625,158.37508632613154 -39.1875,158.37508632613154 1.7763568394002505e-14,90.49965469547385 -13.062499999999986,67.87474102160539" fill="#def5eb"></polygon></g><g transform="rotate(240)"><polygon points="8.881784197001252e-15,45.249827347736925 65.3125,158.37508632613154 39.1875,158.37508632613154 13.062500000000021,113.12456836934231 -13.0625,158.37508632613154 -39.1875,158.37508632613154 1.7763568394002505e-14,90.49965469547385 -13.062499999999986,67.87474102160539" fill="#def5eb"></polygon></g><g transform="rotate(300)"><polygon points="8.881784197001252e-15,45.249827347736925 65.3125,158.37508632613154 39.1875,158.37508632613154 13.062500000000021,113.12456836934231 -13.0625,158.37508632613154 -39.1875,158.37508632613154 1.7763568394002505e-14,90.49965469547385 -13.062499999999986,67.87474102160539" fill="#def5eb"></polygon></g></g><g transform="translate(-104.5 724)"><g transform="rotate(0)"><polygon points="8.881784197001252e-15,45.249827347736925 65.3125,158.37508632613154 39.1875,158.37508632613154 13.062500000000021,113.12456836934231 -13.0625,158.37508632613154 -39.1875,158.37508632613154 1.7763568394002505e-14,90.49965469547385 -13.062499999999986,67.87474102160539" fill="#def5eb"></polygon></g><g transform="rotate(60)"><polygon points="8.881784197001252e-15,45.249827347736925 65.3125,158.37508632613154 39.1875,158.37508632613154 13.062500000000021,113.12456836934231 -13.0625,158.37508632613154 -39.1875,158.37508632613154 1.7763568394002505e-14,90.49965469547385 -13.062499999999986,67.87474102160539" fill="#def5eb"></polygon></g><g transform="rotate(120)"><polygon points="8.881784197001252e-15,45.249827347736925 65.3125,158.37508632613154 39.1875,158.37508632613154 13.062500000000021,113.12456836934231 -13.0625,158.37508632613154 -39.1875,158.37508632613154 1.7763568394002505e-14,90.49965469547385 -13.062499999999986,67.87474102160539" fill="#def5eb"></polygon></g><g transform="rotate(180)"><polygon points="8.881784197001252e-15,45.249827347736925 65.3125,158.37508632613154 39.1875,158.37508632613154 13.062500000000021,113.12456836934231 -13.0625,158.37508632613154 -39.1875,158.37508632613154 1.7763568394002505e-14,90.49965469547385 -13.062499999999986,67.87474102160539" fill="#def5eb"></polygon></g><g transform="rotate(240)"><polygon points="8.881784197001252e-15,45.249827347736925 65.3125,158.37508632613154 39.1875,158.37508632613154 13.062500000000021,113.12456836934231 -13.0625,158.37508632613154 -39.1875,158.37508632613154 1.7763568394002505e-14,90.49965469547385 -13.062499999999986,67.87474102160539" fill="#def5eb"></polygon></g><g transform="rotate(300)"><polygon points="8.881784197001252e-15,45.249827347736925 65.3125,158.37508632613154 39.1875,158.37508632613154 13.062500000000021,113.12456836934231 -13.0625,158.37508632613154 -39.1875,158.37508632613154 1.7763568394002505e-14,90.49965469547385 -13.062499999999986,67.87474102160539" fill="#def5eb"></polygon></g></g><g transform="translate(522.5 724)"><g transform="rotate(0)"><polygon points="8.881784197001252e-15,45.249827347736925 65.3125,158.37508632613154 39.1875,158.37508632613154 13.062500000000021,113.12456836934231 -13.0625,158.37508632613154 -39.1875,158.37508632613154 1.7763568394002505e-14,90.49965469547385 -13.062499999999986,67.87474102160539" fill="#def5eb"></polygon></g><g transform="rotate(60)"><polygon points="8.881784197001252e-15,45.249827347736925 65.3125,158.37508632613154 39.1875,158.37508632613154 13.062500000000021,113.12456836934231 -13.0625,158.37508632613154 -39.1875,158.37508632613154 1.7763568394002505e-14,90.49965469547385 -13.062499999999986,67.87474102160539" fill="#def5eb"></polygon></g><g transform="rotate(120)"><polygon points="8.881784197001252e-15,45.249827347736925 65.3125,158.37508632613154 39.1875,158.37508632613154 13.062500000000021,113.12456836934231 -13.0625,158.37508632613154 -39.1875,158.37508632613154 1.7763568394002505e-14,90.49965469547385 -13.062499999999986,67.87474102160539" fill="#def5eb"></polygon></g><g transform="rotate(180)"><polygon points="8.881784197001252e-15,45.249827347736925 65.3125,158.37508632613154 39.1875,158.37508632613154 13.062500000000021,113.12456836934231 -13.0625,158.37508632613154 -39.1875,158.37508632613154 1.7763568394002505e-14,90.49965469547385 -13.062499999999986,67.87474102160539" fill="#def5eb"></polygon></g><g transform="rotate(240)"><polygon points="8.881784197001252e-15,45.249827347736925 65.3125,158.37508632613154 39.1875,158.37508632613154 13.062500000000021,113.12456836934231 -13.0625,158.37508632613154 -39.1875,158.37508632613154 1.7763568394002505e-14,90.49965469547385 -13.062499999999986,67.87474102160539" fill="#def5eb"></polygon></g><g transform="rotate(300)"><polygon points="8.881784197001252e-15,45.249827347736925 65.3125,158.37508632613154 39.1875,158.37508632613154 13.062500000000021,113.12456836934231 -13.0625,158.37508632613154 -39.1875,158.37508632613154 1.7763568394002505e-14,90.49965469547385 -13.062499999999986,67.87474102160539" fill="#def5eb"></polygon></g></g><line transform="translate(313.5 362) rotate(0)" x1="-724" y1="-452.5" x2="724" y2="-452.5"></line><line transform="translate(313.5 362) rotate(0)" x1="-724" y1="-429.875" x2="724" y2="-429.875"></line><line transform="translate(313.5 362) rotate(0)" x1="-724" y1="-407.25" x2="724" y2="-407.25"></line><line transform="translate(313.5 362) rotate(0)" x1="-724" y1="-384.625" x2="724" y2="-384.625"></line><line transform="translate(313.5 362) rotate(0)" x1="-724" y1="-362" x2="724" y2="-362"></line><line transform="translate(313.5 362) rotate(0)" x1="-724" y1="-339.375" x2="724" y2="-339.375"></line><line transform="translate(313.5 362) rotate(0)" x1="-724" y1="-316.75" x2="724" y2="-316.75"></line><line transform="translate(313.5 362) rotate(0)" x1="-724" y1="-294.125" x2="724" y2="-294.125"></line><line transform="translate(313.5 362) rotate(0)" x1="-724" y1="-271.5" x2="724" y2="-271.5"></line><line transform="translate(313.5 362) rotate(0)" x1="-724" y1="-248.875" x2="724" y2="-248.875"></line><line transform="translate(313.5 362) rotate(0)" x1="-724" y1="-226.25" x2="724" y2="-226.25"></line><line transform="translate(313.5 362) rotate(0)" x1="-724" y1="-203.625" x2="724" y2="-203.625"></line><line transform="translate(313.5 362) rotate(0)" x1="-724" y1="-181" x2="724" y2="-181"></line><line transform="translate(313.5 362) rotate(0)" x1="-724" y1="-158.375" x2="724" y2="-158.375"></line><line transform="translate(313.5 362) rotate(0)" x1="-724" y1="-135.75" x2="724" y2="-135.75"></line><line transform="translate(313.5 362) rotate(0)" x1="-724" y1="-113.125" x2="724" y2="-113.125"></line><line transform="translate(313.5 362) rotate(0)" x1="-724" y1="-90.5" x2="724" y2="-90.5"></line><line transform="translate(313.5 362) rotate(0)" x1="-724" y1="-67.875" x2="724" y2="-67.875"></line><line transform="translate(313.5 362) rotate(0)" x1="-724" y1="-45.25" x2="724" y2="-45.25"></line><line transform="translate(313.5 362) rotate(0)" x1="-724" y1="-22.625" x2="724" y2="-22.625"></line><line transform="translate(313.5 362) rotate(0)" x1="-724" y1="0" x2="724" y2="0"></line><line transform="translate(313.5 362) rotate(0)" x1="-724" y1="22.625" x2="724" y2="22.625"></line><line transform="translate(313.5 362) rotate(0)" x1="-724" y1="45.25" x2="724" y2="45.25"></line><line transform="translate(313.5 362) rotate(0)" x1="-724" y1="67.875" x2="724" y2="67.875"></line><line transform="translate(313.5 362) rotate(0)" x1="-724" y1="90.5" x2="724" y2="90.5"></line><line transform="translate(313.5 362) rotate(0)" x1="-724" y1="113.125" x2="724" y2="113.125"></line><line transform="translate(313.5 362) rotate(0)" x1="-724" y1="135.75" x2="724" y2="135.75"></line><line transform="translate(313.5 362) rotate(0)" x1="-724" y1="158.375" x2="724" y2="158.375"></line><line transform="translate(313.5 362) rotate(0)" x1="-724" y1="181" x2="724" y2="181"></line><line transform="translate(313.5 362) rotate(0)" x1="-724" y1="203.625" x2="724" y2="203.625"></line><line transform="translate(313.5 362) rotate(0)" x1="-724" y1="226.25" x2="724" y2="226.25"></line><line transform="translate(313.5 362) rotate(0)" x1="-724" y1="248.875" x2="724" y2="248.875"></line><line transform="translate(313.5 362) rotate(0)" x1="-724" y1="271.5" x2="724" y2="271.5"></line><line transform="translate(313.5 362) rotate(0)" x1="-724" y1="294.125" x2="724" y2="294.125"></line><line transform="translate(313.5 362) rotate(0)" x1="-724" y1="316.75" x2="724" y2="316.75"></line><line transform="translate(313.5 362) rotate(0)" x1="-724" y1="339.375" x2="724" y2="339.375"></line><line transform="translate(313.5 362) rotate(0)" x1="-724" y1="362" x2="724" y2="362"></line><line transform="translate(313.5 362) rotate(0)" x1="-724" y1="384.625" x2="724" y2="384.625"></line><line transform="translate(313.5 362) rotate(0)" x1="-724" y1="407.25" x2="724" y2="407.25"></line><line transform="translate(313.5 362) rotate(0)" x1="-724" y1="429.875" x2="724" y2="429.875"></line><line transform="translate(313.5 362) rotate(60)" x1="-724" y1="-452.5" x2="724" y2="-452.5"></line><line transform="translate(313.5 362) rotate(60)" x1="-724" y1="-429.875" x2="724" y2="-429.875"></line><line transform="translate(313.5 362) rotate(60)" x1="-724" y1="-407.25" x2="724" y2="-407.25"></line><line transform="translate(313.5 362) rotate(60)" x1="-724" y1="-384.625" x2="724" y2="-384.625"></line><line transform="translate(313.5 362) rotate(60)" x1="-724" y1="-362" x2="724" y2="-362"></line><line transform="translate(313.5 362) rotate(60)" x1="-724" y1="-339.375" x2="724" y2="-339.375"></line><line transform="translate(313.5 362) rotate(60)" x1="-724" y1="-316.75" x2="724" y2="-316.75"></line><line transform="translate(313.5 362) rotate(60)" x1="-724" y1="-294.125" x2="724" y2="-294.125"></line><line transform="translate(313.5 362) rotate(60)" x1="-724" y1="-271.5" x2="724" y2="-271.5"></line><line transform="translate(313.5 362) rotate(60)" x1="-724" y1="-248.875" x2="724" y2="-248.875"></line><line transform="translate(313.5 362) rotate(60)" x1="-724" y1="-226.25" x2="724" y2="-226.25"></line><line transform="translate(313.5 362) rotate(60)" x1="-724" y1="-203.625" x2="724" y2="-203.625"></line><line transform="translate(313.5 362) rotate(60)" x1="-724" y1="-181" x2="724" y2="-181"></line><line transform="translate(313.5 362) rotate(60)" x1="-724" y1="-158.375" x2="724" y2="-158.375"></line><line transform="translate(313.5 362) rotate(60)" x1="-724" y1="-135.75" x2="724" y2="-135.75"></line><line transform="translate(313.5 362) rotate(60)" x1="-724" y1="-113.125" x2="724" y2="-113.125"></line><line transform="translate(313.5 362) rotate(60)" x1="-724" y1="-90.5" x2="724" y2="-90.5"></line><line transform="translate(313.5 362) rotate(60)" x1="-724" y1="-67.875" x2="724" y2="-67.875"></line><line transform="translate(313.5 362) rotate(60)" x1="-724" y1="-45.25" x2="724" y2="-45.25"></line><line transform="translate(313.5 362) rotate(60)" x1="-724" y1="-22.625" x2="724" y2="-22.625"></line><line transform="translate(313.5 362) rotate(60)" x1="-724" y1="0" x2="724" y2="0"></line><line transform="translate(313.5 362) rotate(60)" x1="-724" y1="22.625" x2="724" y2="22.625"></line><line transform="translate(313.5 362) rotate(60)" x1="-724" y1="45.25" x2="724" y2="45.25"></line><line transform="translate(313.5 362) rotate(60)" x1="-724" y1="67.875" x2="724" y2="67.875"></line><line transform="translate(313.5 362) rotate(60)" x1="-724" y1="90.5" x2="724" y2="90.5"></line><line transform="translate(313.5 362) rotate(60)" x1="-724" y1="113.125" x2="724" y2="113.125"></line><line transform="translate(313.5 362) rotate(60)" x1="-724" y1="135.75" x2="724" y2="135.75"></line><line transform="translate(313.5 362) rotate(60)" x1="-724" y1="158.375" x2="724" y2="158.375"></line><line transform="translate(313.5 362) rotate(60)" x1="-724" y1="181" x2="724" y2="181"></line><line transform="translate(313.5 362) rotate(60)" x1="-724" y1="203.625" x2="724" y2="203.625"></line><line transform="translate(313.5 362) rotate(60)" x1="-724" y1="226.25" x2="724" y2="226.25"></line><line transform="translate(313.5 362) rotate(60)" x1="-724" y1="248.875" x2="724" y2="248.875"></line><line transform="translate(313.5 362) rotate(60)" x1="-724" y1="271.5" x2="724" y2="271.5"></line><line transform="translate(313.5 362) rotate(60)" x1="-724" y1="294.125" x2="724" y2="294.125"></line><line transform="translate(313.5 362) rotate(60)" x1="-724" y1="316.75" x2="724" y2="316.75"></line><line transform="translate(313.5 362) rotate(60)" x1="-724" y1="339.375" x2="724" y2="339.375"></line><line transform="translate(313.5 362) rotate(60)" x1="-724" y1="362" x2="724" y2="362"></line><line transform="translate(313.5 362) rotate(60)" x1="-724" y1="384.625" x2="724" y2="384.625"></line><line transform="translate(313.5 362) rotate(60)" x1="-724" y1="407.25" x2="724" y2="407.25"></line><line transform="translate(313.5 362) rotate(60)" x1="-724" y1="429.875" x2="724" y2="429.875"></line><line transform="translate(313.5 362) rotate(120)" x1="-724" y1="-452.5" x2="724" y2="-452.5"></line><line transform="translate(313.5 362) rotate(120)" x1="-724" y1="-429.875" x2="724" y2="-429.875"></line><line transform="translate(313.5 362) rotate(120)" x1="-724" y1="-407.25" x2="724" y2="-407.25"></line><line transform="translate(313.5 362) rotate(120)" x1="-724" y1="-384.625" x2="724" y2="-384.625"></line><line transform="translate(313.5 362) rotate(120)" x1="-724" y1="-362" x2="724" y2="-362"></line><line transform="translate(313.5 362) rotate(120)" x1="-724" y1="-339.375" x2="724" y2="-339.375"></line><line transform="translate(313.5 362) rotate(120)" x1="-724" y1="-316.75" x2="724" y2="-316.75"></line><line transform="translate(313.5 362) rotate(120)" x1="-724" y1="-294.125" x2="724" y2="-294.125"></line><line transform="translate(313.5 362) rotate(120)" x1="-724" y1="-271.5" x2="724" y2="-271.5"></line><line transform="translate(313.5 362) rotate(120)" x1="-724" y1="-248.875" x2="724" y2="-248.875"></line><line transform="translate(313.5 362) rotate(120)" x1="-724" y1="-226.25" x2="724" y2="-226.25"></line><line transform="translate(313.5 362) rotate(120)" x1="-724" y1="-203.625" x2="724" y2="-203.625"></line><line transform="translate(313.5 362) rotate(120)" x1="-724" y1="-181" x2="724" y2="-181"></line><line transform="translate(313.5 362) rotate(120)" x1="-724" y1="-158.375" x2="724" y2="-158.375"></line><line transform="translate(313.5 362) rotate(120)" x1="-724" y1="-135.75" x2="724" y2="-135.75"></line><line transform="translate(313.5 362) rotate(120)" x1="-724" y1="-113.125" x2="724" y2="-113.125"></line><line transform="translate(313.5 362) rotate(120)" x1="-724" y1="-90.5" x2="724" y2="-90.5"></line><line transform="translate(313.5 362) rotate(120)" x1="-724" y1="-67.875" x2="724" y2="-67.875"></line><line transform="translate(313.5 362) rotate(120)" x1="-724" y1="-45.25" x2="724" y2="-45.25"></line><line transform="translate(313.5 362) rotate(120)" x1="-724" y1="-22.625" x2="724" y2="-22.625"></line><line transform="translate(313.5 362) rotate(120)" x1="-724" y1="0" x2="724" y2="0"></line><line transform="translate(313.5 362) rotate(120)" x1="-724" y1="22.625" x2="724" y2="22.625"></line><line transform="translate(313.5 362) rotate(120)" x1="-724" y1="45.25" x2="724" y2="45.25"></line><line transform="translate(313.5 362) rotate(120)" x1="-724" y1="67.875" x2="724" y2="67.875"></line><line transform="translate(313.5 362) rotate(120)" x1="-724" y1="90.5" x2="724" y2="90.5"></line><line transform="translate(313.5 362) rotate(120)" x1="-724" y1="113.125" x2="724" y2="113.125"></line><line transform="translate(313.5 362) rotate(120)" x1="-724" y1="135.75" x2="724" y2="135.75"></line><line transform="translate(313.5 362) rotate(120)" x1="-724" y1="158.375" x2="724" y2="158.375"></line><line transform="translate(313.5 362) rotate(120)" x1="-724" y1="181" x2="724" y2="181"></line><line transform="translate(313.5 362) rotate(120)" x1="-724" y1="203.625" x2="724" y2="203.625"></line><line transform="translate(313.5 362) rotate(120)" x1="-724" y1="226.25" x2="724" y2="226.25"></line><line transform="translate(313.5 362) rotate(120)" x1="-724" y1="248.875" x2="724" y2="248.875"></line><line transform="translate(313.5 362) rotate(120)" x1="-724" y1="271.5" x2="724" y2="271.5"></line><line transform="translate(313.5 362) rotate(120)" x1="-724" y1="294.125" x2="724" y2="294.125"></line><line transform="translate(313.5 362) rotate(120)" x1="-724" y1="316.75" x2="724" y2="316.75"></line><line transform="translate(313.5 362) rotate(120)" x1="-724" y1="339.375" x2="724" y2="339.375"></line><line transform="translate(313.5 362) rotate(120)" x1="-724" y1="362" x2="724" y2="362"></line><line transform="translate(313.5 362) rotate(120)" x1="-724" y1="384.625" x2="724" y2="384.625"></line><line transform="translate(313.5 362) rotate(120)" x1="-724" y1="407.25" x2="724" y2="407.25"></line><line transform="translate(313.5 362) rotate(120)" x1="-724" y1="429.875" x2="724" y2="429.875"></line></svg>
