<?xml version="1.0" encoding="UTF-8" standalone="no"?>
<svg
   xmlns:dc="http://purl.org/dc/elements/1.1/"
   xmlns:cc="http://creativecommons.org/ns#"
   xmlns:rdf="http://www.w3.org/1999/02/22-rdf-syntax-ns#"
   xmlns:svg="http://www.w3.org/2000/svg"
   xmlns="http://www.w3.org/2000/svg"
   xmlns:sodipodi="http://sodipodi.sourceforge.net/DTD/sodipodi-0.dtd"
   xmlns:inkscape="http://www.inkscape.org/namespaces/inkscape"
   version="1.1"
   id="svg4941"
   xml:space="preserve"
   width="1700.7867"
   height="1700.7867"
   viewBox="0 0 1700.7867 1700.7867"
   sodipodi:docname="static-2021-cloud-a.svg"
   inkscape:version="1.0.1 (3bc2e813f5, 2020-09-07)"><metadata
     id="metadata4947"><rdf:RDF><cc:Work
         rdf:about=""><dc:format>image/svg+xml</dc:format><dc:type
           rdf:resource="http://purl.org/dc/dcmitype/StillImage" /><dc:title /></cc:Work></rdf:RDF></metadata><defs
     id="defs4945"><clipPath
       clipPathUnits="userSpaceOnUse"
       id="clipPath4959"><path
         d="M 0,1275.591 H 1275.591 V 0 H 0 Z"
         id="path4957"
         inkscape:connector-curvature="0"
         style="" /></clipPath></defs><sodipodi:namedview
     pagecolor="#ffffff"
     bordercolor="#666666"
     borderopacity="1"
     objecttolerance="10"
     gridtolerance="10"
     guidetolerance="10"
     inkscape:pageopacity="0"
     inkscape:pageshadow="2"
     inkscape:window-width="2488"
     inkscape:window-height="1376"
     id="namedview4943"
     showgrid="false"
     inkscape:zoom="0.35355339"
     inkscape:cx="164.35814"
     inkscape:cy="881.73527"
     inkscape:window-x="72"
     inkscape:window-y="27"
     inkscape:window-maximized="1"
     inkscape:current-layer="layer1"
     inkscape:document-rotation="0"
     showguides="true"
     inkscape:guide-bbox="true"
     inkscape:lockguides="false"
     inkscape:object-paths="true"
     inkscape:object-nodes="true"
     inkscape:snap-smooth-nodes="true"
     inkscape:snap-intersection-paths="true" /><g
     id="Logo"
     inkscape:groupmode="layer"
     transform="matrix(1.3333333,0,0,-1.3333333,0,1700.7867)"
     inkscape:label="ZURIHAC 2020_1" /><g
     inkscape:groupmode="layer"
     id="layer1"
     inkscape:label="clouds"
     stroke="#ffff00"><g
       id="g3010"
       transform="matrix(1.3515508,0,0,1.3515508,1260.3759,1300.2218)"><g
         id="g2974"
         transform="matrix(0.29287415,0,0,0.29287415,-5039.9077,1160.1491)"
         style="fill:#ffffff;fill-opacity:1;stroke:#aedee4;stroke-opacity:1"><path
           id="path5634-5-6"
           style="fill:#ffffff;fill-opacity:1;stroke:#aedee4;stroke-width:70;stroke-miterlimit:4;stroke-dasharray:none;stroke-opacity:1;paint-order:markers stroke fill"
           d="m 15138.893,-5403.6184 c -0.173,-0.01 -0.347,0.016 -0.513,0.074 l -85.401,29.9746 c -0.335,0.1173 -0.608,0.3617 -0.762,0.6817 l -96.996,201.9082 c -0.152,0.32 -0.175,0.6881 -0.06,1.0215 l 29.795,84.8789 -27.236,56.6933 -95.555,33.541 c -0.334,0.1174 -0.608,0.3597 -0.761,0.6797 l -6.69,13.9239 -20.828,7.3125 c -0.335,0.1173 -0.608,0.361 -0.76,0.6797 l -76.638,159.5332 -36.913,-17.7325 -13.142,-37.4433 c -0.08,-0.2362 -0.257,-0.4305 -0.483,-0.5391 l -71.515,-34.3555 c -0.226,-0.1087 -0.486,-0.1239 -0.723,-0.039 l -37.443,13.1406 -66.059,-31.7324 c -0.112,-0.054 -0.235,-0.086 -0.357,-0.092 -0.123,-0.01 -0.245,0.012 -0.364,0.053 l -60.498,21.2344 c -0.237,0.083 -0.432,0.2557 -0.541,0.4824 l -68.712,143.0332 c -0.108,0.2266 -0.123,0.4884 -0.04,0.7246 l 21.107,60.1289 h 1498.408 l 15.088,-31.4082 c 0.153,-0.3187 0.175,-0.6842 0.06,-1.0175 l -11.057,-31.5059 48.258,-100.457 c 0.154,-0.3187 0.172,-0.6842 0.06,-1.0176 l -59.951,-170.8047 c -0.117,-0.3333 -0.361,-0.6065 -0.68,-0.7598 l -504.277,-242.2519 -18.553,-52.8555 c -0.117,-0.3334 -0.363,-0.6065 -0.681,-0.7598 l -100.953,-48.498 c -0.319,-0.1534 -0.685,-0.1759 -1.02,-0.057 l -52.855,18.5507 -93.249,-44.7949 c -0.158,-0.077 -0.33,-0.1196 -0.503,-0.1289 z" /><path
           id="path5634-5-6-4"
           style="display:inline;fill:#ffffff;fill-opacity:1;fill-rule:nonzero;stroke:#aedee4;stroke-width:70;stroke-miterlimit:4;stroke-dasharray:none;stroke-opacity:1;paint-order:markers stroke fill"
           d="m 15984.446,-5775.3275 c -0.217,0 -0.434,0.035 -0.644,0.1094 l -279.957,98.2656 c -0.486,0.1709 -0.882,0.5259 -1.106,0.9922 l -50.123,104.3379 -123.668,43.4063 c -0.485,0.1709 -0.884,0.5297 -1.107,0.9941 l -121.131,252.1465 c -0.223,0.4624 -0.251,0.9967 -0.08,1.4824 l 26.652,75.9356 -91.486,32.1132 c -0.486,0.169 -0.888,0.5259 -1.111,0.9903 l -45.422,94.5566 c -0.223,0.4623 -0.253,0.9968 -0.08,1.4824 l 21.566,61.4532 -155.759,324.2441 -61.454,21.5684 c -0.485,0.171 -0.884,0.5298 -1.107,0.9941 l -90.85,189.1113 c -0.223,0.4643 -0.252,0.9969 -0.08,1.4824 l 16.108,45.9024 -1.809,3.7656 h 1737.039 l 226.59,-471.6777 c 0.224,-0.4625 0.251,-0.9968 0.08,-1.4824 l -59.783,-170.3262 55.17,-114.8438 c 0.223,-0.4625 0.253,-0.9967 0.08,-1.4824 l -21.838,-62.2129 c -0.171,-0.4856 -0.528,-0.886 -0.992,-1.1093 l -136.578,-65.6114 c -0.465,-0.2254 -1.001,-0.2526 -1.487,-0.08 l -13.72,4.8106 -4.815,-13.7188 c -0.171,-0.4857 -0.528,-0.88 -0.994,-1.1054 l -136.58,-65.6114 c -0.466,-0.2234 -0.997,-0.2563 -1.483,-0.084 l -60.38,21.1914 -21.196,-60.3809 c -0.169,-0.4857 -0.526,-0.884 -0.99,-1.1074 l -168.098,-80.75 c -0.466,-0.2252 -1,-0.2525 -1.486,-0.082 l -13.719,4.8125 -4.82,-13.7188 c -0.171,-0.4856 -0.526,-0.8841 -0.99,-1.1074 l -147.088,-70.6621 c -0.464,-0.2234 -0.999,-0.2526 -1.485,-0.08 l -29.273,10.2754 -37.57,-107.041 c -0.171,-0.4857 -0.526,-0.8821 -0.991,-1.1075 l -189.113,-90.8476 c -0.264,-0.1282 -0.552,-0.1934 -0.842,-0.1934 z" /><path
           id="path5634-5-6-9"
           style="display:inline;fill:#ffffff;fill-opacity:1;fill-rule:nonzero;stroke:#aedee4;stroke-width:70;stroke-miterlimit:4;stroke-dasharray:none;stroke-opacity:1;paint-order:markers stroke fill"
           d="m 17112.973,-5698.7331 c -0.173,-0.01 -0.347,0.016 -0.514,0.074 l -85.4,29.9746 c -0.335,0.1173 -0.608,0.3617 -0.762,0.6817 l -96.996,201.9082 c -0.152,0.32 -0.173,0.6881 -0.06,1.0215 l 7.703,21.9433 -187.742,-90.1894 -18.553,-52.8555 c -0.117,-0.3334 -0.363,-0.6064 -0.681,-0.7598 l -100.953,-48.498 c -0.319,-0.1534 -0.685,-0.1741 -1.02,-0.055 l -52.855,18.5508 -93.248,-44.7949 c -0.159,-0.077 -0.331,-0.1196 -0.504,-0.1289 -0.174,-0.01 -0.347,0.016 -0.514,0.074 l -85.4,29.9746 c -0.335,0.1173 -0.609,0.3616 -0.762,0.6816 l -96.996,201.9082 c -0.152,0.32 -0.175,0.6881 -0.06,1.0215 l 29.795,84.8789 -27.237,56.6934 -95.554,33.541 c -0.335,0.1174 -0.609,0.3597 -0.762,0.6797 l -6.689,13.9238 -20.829,7.3125 c -0.334,0.1173 -0.607,0.3611 -0.759,0.6797 l -256.348,533.6211 c -0.153,0.3174 -0.172,0.6843 -0.06,1.0176 l 39.402,112.2597 h 1738.971 l 13.33,-27.748 c 0.153,-0.3173 0.173,-0.6843 0.06,-1.0176 l -14.803,-42.1797 106.909,-222.5488 42.179,-14.8047 c 0.333,-0.1174 0.607,-0.3629 0.76,-0.6816 l 62.355,-129.7988 c 0.154,-0.3187 0.174,-0.6843 0.06,-1.0176 l -11.056,-31.5059 48.258,-100.457 c 0.153,-0.3187 0.171,-0.6842 0.06,-1.0176 l -59.952,-170.8047 c -0.117,-0.3333 -0.361,-0.6065 -0.679,-0.7598 l -504.278,-242.2519 -18.552,-52.8555 c -0.118,-0.3334 -0.363,-0.6064 -0.682,-0.7597 l -100.953,-48.4981 c -0.319,-0.1534 -0.685,-0.1741 -1.02,-0.055 l -52.855,18.5508 -93.248,-44.7949 c -0.159,-0.077 -0.331,-0.1196 -0.504,-0.1289 z" /></g></g></g></svg>
