<?xml version="1.0" encoding="UTF-8" standalone="no"?>
<svg
   width="500"
   height="500"
   viewBox="-1 -0.33333333333333326 1.3333333333333335 1.6666666666666665"
   version="1.1"
   id="svg158"
   xmlns="http://www.w3.org/2000/svg"
   xmlns:svg="http://www.w3.org/2000/svg">
  <defs
     id="defs158" />
  <path
     id="polygon122"
     style="fill: #fcb315"
     d="M -0.33333333 0.21666667 L -0.50666667 0.30333333 L 0.16 0.63666667 L 0.33333333 0.55 L -0.33333333 0.21666667 z " />
  <path
     id="polygon54"
     style="fill: #4f4086"
     d="M -0.85333333 -0.073333333 L -0.58666667 0.79333333 L 0.08 1.1266667 L -0.18666667 0.26 L -0.85333333 -0.073333333 z " />
  <polygon
     points="-0.5066666666666667,0.3033333333333334 -0.33333333333333337,0.21666666666666673 -0.33333333333333337,0.41666666666666674"
     style="fill: #dd4027"
     id="polygon13" />
  <path
     id="polygon15"
     style="fill: #dd4027"
     d="M -0.33333333 -0.33333333 L -0.33333333 -0.29583333 L -0.28102865 -0.26968099 L -0.33333333 -0.12083333 L -0.33333333 -0.083333333 L -0.25102865 -0.04218099 L -0.25102865 -0.07968099 L -0.30333333 -0.10583333 L -0.25102865 -0.25468099 L -0.25102865 -0.29218099 L -0.33333333 -0.33333333 z " />
  <path
     id="polygon21"
     style="fill:#dd4027"
     d="m -0.22633464,-0.27983724 v 0.25 l 0.0823047,0.04115234 v -0.0375 -0.2125 l -0.025,-0.0125 v 0.2125 l -0.0323047,-0.01615234 v -0.2125 z" />
  <path
     id="polygon27"
     style="fill: #4f4086"
     d="M -1 0.2 L -0.92 0.46 L -1 0.8 L -0.33333333 1.1333333 L -0.25333333 0.79333333 L -0.33333333 0.53333333 L -1 0.2 z " />
  <path
     id="polygon55"
     style="fill: #fcb315"
     d="M -0.33333333 -0.083333333 L -0.58666667 0.043333333 L 0.08 0.37666667 L 0.33333333 0.25 L -0.33333333 -0.083333333 z " />
  <path
     id="polygon60"
     style="fill: #4f4086"
     d="M -0.58666667 0.043333333 L -0.53333333 0.21666667 L 0.13333333 0.55 L 0.08 0.37666667 L -0.58666667 0.043333333 z " />
  <polygon
     points="0.33333333333333326,0.75 -0.45333333333333337,0.4766666666666667 -0.33333333333333337,0.41666666666666674"
     style="fill: #fcb315"
     id="polygon65" />
  <path
     id="polygon66"
     style="fill: #4f4086"
     d="M -0.50666667 0.30333333 L -0.45333333 0.47666667 L 0.21333333 0.81 L 0.16 0.63666667 L -0.50666667 0.30333333 z " />
  <path
     id="polygon70"
     style="fill:#dd4027"
     d="m -0.11934245,-0.22633464 v 0.25 l 0.025,0.01250001 v -0.10625001 l 0.03230469,0.12240235 0.025,0.0125 -0.03230469,-0.12240234 0.03230469,0.01615234 v -0.14375 z m 0.025,0.05 0.03230469,0.0161523 v 0.06875 l -0.03230469,-0.01615235 z" />
  <path
     id="polygon80"
     style="fill: #dd4027"
     d="M -0.0125 -0.17291667 L -0.0125 0.077083333 L 0.0125 0.089583333 L 0.0125 -0.16041667 L -0.0125 -0.17291667 z " />
  <path
     id="polygon82"
     style="fill:#dd4027"
     d="m 0.03703776,-0.14815104 v 0.25 l 0.025,0.0125 v -0.10625 L 0.09434245,0.0242513 v 0.10625 l 0.025,0.0125 v -0.25 l -0.025,-0.0125 v 0.10625 L 0.06203776,-0.02940104 v -0.10625 z" />
  <polygon
     points="0.08000000000000002,0.6266666666666667 -0.1866666666666667,1.26 -0.8533333333333333,0.9266666666666666"
     style="fill: #4f4086"
     id="polygon106" />
  <path
     id="polygon110"
     style="fill: #fcb315"
     d="M -0.72 -0.14 L -0.85333333 -0.073333333 L -0.18666667 0.26 L -0.053333333 0.19333333 L -0.72 -0.14 z " />
  <polygon
     points="0.33333333333333326,0.75 0.15999999999999992,0.6366666666666667 -0.5066666666666667,0.3033333333333334"
     style="fill: #4f4086"
     id="polygon124" />
  <polygon
     points="0.15999999999999992,0.6366666666666667 0.33333333333333326,0.75 -0.33333333333333337,0.41666666666666674"
     style="fill: #4f4086"
     id="polygon125" />
  <path
     id="polygon131"
     style="fill:#dd4027"
     d="m 0.14402995,-0.09464844 v 0.25 l 0.025,0.0125 v -0.10625 l 0.0323047,0.01615235 v 0.10625 l 0.025,0.0125 v -0.25 z m 0.025,0.05 0.0323047,0.01615235 v 0.06875 L 0.16902995,0.02410156 Z" />
  <path
     id="polygon139"
     style="fill:#dd4027"
     d="m 0.25102865,-0.04115234 v 0.25 L 0.33333333,0.25 V 0.2125 l -0.0573047,-0.0286523 v -0.175 L 0.33333333,0.0375 V 0 Z" />
  <path
     id="polygon145"
     style="fill: #dd4027"
     d="M -1 0 L -1 0.2 L -0.53333333 0.43333333 L -1 0.8 L -1 1 L -0.33333333 1.3333333 L -0.25333333 1.2933333 L -0.12 0.72666667 L -0.25333333 0.29333333 L -0.33333333 0.33333333 L -1 0 z M -0.33333333 0.53333333 L -0.25333333 0.79333333 L -0.33333333 1.1333333 L -0.8 0.9 L -0.33333333 0.53333333 z " />
  <path
     id="polygon155"
     style="fill: #dd4027"
     d="M 0.33333333 0.25 L 0.08 0.37666667 L 0.13333333 0.55 L 0.33333333 0.45 L 0.33333333 0.25 z " />
  <path
     id="polygon157"
     style="fill: #dd4027"
     d="M 0.33333333 0.55 L 0.16 0.63666667 L 0.21333333 0.81 L 0.33333333 0.75 L 0.33333333 0.55 z " />
  <path
     id="polygon96"
     style="fill:#fcb315"
     d="m -0.33333333,0.33333333 0.08,-0.04 L -0.92,-0.04 Z m 0,0 L -0.92,-0.04 -1,0 Z" />
  <path
     id="polygon151"
     style="fill: #dd4027"
     d="M -0.053333333 0.19333333 L -0.18666667 0.26 L -0.053333333 0.69333333 L -0.18666667 1.26 L -0.053333333 1.1933333 L 0.013333333 0.91 L 0.08 1.1266667 L 0.21333333 1.06 L -0.053333333 0.19333333 z " />
</svg>
