<?xml version="1.0" encoding="UTF-8" standalone="no"?>
<svg
   xmlns:dc="http://purl.org/dc/elements/1.1/"
   xmlns:cc="http://creativecommons.org/ns#"
   xmlns:rdf="http://www.w3.org/1999/02/22-rdf-syntax-ns#"
   xmlns:svg="http://www.w3.org/2000/svg"
   xmlns="http://www.w3.org/2000/svg"
   xmlns:sodipodi="http://sodipodi.sourceforge.net/DTD/sodipodi-0.dtd"
   xmlns:inkscape="http://www.inkscape.org/namespaces/inkscape"
   version="1.1"
   id="svg4941"
   xml:space="preserve"
   width="1700.7867"
   height="1700.7867"
   viewBox="0 0 1700.7867 1700.7867"
   sodipodi:docname="static-2021-cloud-c.svg"
   inkscape:version="1.0.1 (3bc2e813f5, 2020-09-07)"><metadata
     id="metadata4947"><rdf:RDF><cc:Work
         rdf:about=""><dc:format>image/svg+xml</dc:format><dc:type
           rdf:resource="http://purl.org/dc/dcmitype/StillImage" /><dc:title /></cc:Work></rdf:RDF></metadata><defs
     id="defs4945"><clipPath
       clipPathUnits="userSpaceOnUse"
       id="clipPath4959"><path
         d="M 0,1275.591 H 1275.591 V 0 H 0 Z"
         id="path4957"
         inkscape:connector-curvature="0"
         style="" /></clipPath></defs><sodipodi:namedview
     pagecolor="#ffffff"
     bordercolor="#666666"
     borderopacity="1"
     objecttolerance="10"
     gridtolerance="10"
     guidetolerance="10"
     inkscape:pageopacity="0"
     inkscape:pageshadow="2"
     inkscape:window-width="2488"
     inkscape:window-height="1376"
     id="namedview4943"
     showgrid="false"
     inkscape:zoom="0.35355339"
     inkscape:cx="164.35814"
     inkscape:cy="881.73527"
     inkscape:window-x="72"
     inkscape:window-y="27"
     inkscape:window-maximized="1"
     inkscape:current-layer="layer1"
     inkscape:document-rotation="0"
     showguides="true"
     inkscape:guide-bbox="true"
     inkscape:lockguides="false"
     inkscape:object-paths="true"
     inkscape:object-nodes="true"
     inkscape:snap-smooth-nodes="true"
     inkscape:snap-intersection-paths="true" /><g
     id="Logo"
     inkscape:groupmode="layer"
     transform="matrix(1.3333333,0,0,-1.3333333,0,1700.7867)"
     inkscape:label="ZURIHAC 2020_1" /><g
     inkscape:groupmode="layer"
     id="layer1"
     inkscape:label="clouds"
     stroke="yellow"><g
       id="g3014"
       transform="matrix(1.3515508,0,0,1.3515508,1450.6952,676.39136)"><path
         id="path5634-5-6-21"
         style="fill:#ffffff;fill-opacity:1;stroke:#aedee4;stroke-width:20.5012;stroke-miterlimit:4;stroke-dasharray:none;stroke-opacity:1;paint-order:markers stroke fill"
         d="m -679.73544,55.522016 c -0.0507,-0.0029 -0.10163,0.0047 -0.15054,0.02167 l -25.01145,8.778785 c -0.0981,0.03436 -0.17807,0.105933 -0.22317,0.199653 l -28.40762,59.133696 c -0.0445,0.0937 -0.0512,0.20153 -0.0176,0.29917 l 8.72618,24.85884 -7.97672,16.604 -27.98559,9.82329 c -0.0981,0.0344 -0.17807,0.10535 -0.22317,0.19907 l -1.95903,4.07795 -6.09999,2.14164 c -0.0981,0.0343 -0.17806,0.10573 -0.22258,0.19907 l -22.44558,46.72315 -10.81057,-5.1934 -3.84896,-10.96617 c -0.0234,-0.0692 -0.0753,-0.12608 -0.14145,-0.15789 l -20.9449,-10.06184 c -0.0662,-0.0318 -0.14234,-0.0363 -0.21175,-0.0114 l -10.96608,3.84854 -19.34698,-9.2936 c -0.0328,-0.0158 -0.0688,-0.0252 -0.10455,-0.0269 -0.036,-0.003 -0.072,0.004 -0.10661,0.0155 l -17.7183,6.21901 c -0.0694,0.0243 -0.12681,0.0749 -0.15844,0.14128 l -20.12427,41.89073 c -0.0316,0.0664 -0.036,0.14304 -0.0117,0.21221 l 6.18169,17.61021 h 438.84527 l 4.41888,-9.19865 c 0.0448,-0.0933 0.0512,-0.20039 0.0176,-0.298 l -3.23831,-9.22727 14.13353,-29.42126 c 0.0448,-0.0933 0.0501,-0.20038 0.0176,-0.29802 l -17.5581,-50.02429 c -0.0343,-0.0976 -0.10573,-0.17762 -0.19915,-0.22252 l -147.6897,-70.949324 -5.4337,-15.48001 c -0.0343,-0.09764 -0.10631,-0.177628 -0.19974,-0.222526 L -636.49751,63.2626 c -0.0931,-0.04493 -0.20062,-0.05152 -0.29844,-0.01669 l -15.48016,5.433021 -27.30992,-13.119269 c -0.0463,-0.02255 -0.0967,-0.03503 -0.14761,-0.03775 z" /><path
         id="path5634-5-6-7-2"
         style="display:inline;fill:#ffffff;fill-opacity:1;fill-rule:nonzero;stroke:#aedee4;stroke-width:20.5012;stroke-miterlimit:4;stroke-dasharray:none;stroke-opacity:1;paint-order:markers stroke fill"
         d="m -314.9891,-113.58636 c -0.0507,-0.003 -0.10162,0.005 -0.15024,0.0217 l -25.01174,8.77879 c -0.0978,0.0344 -0.17807,0.10593 -0.22288,0.19965 l -28.40762,59.133694 c -0.0445,0.09372 -0.051,0.201498 -0.0176,0.299142 l 8.7259,24.858835 -7.97672,16.6040318 -27.98559,9.8232919 c -0.0978,0.034383 -0.17807,0.1053468 -0.22288,0.1990665 l -1.95933,4.0779208 -6.09998,2.141643 c -0.0978,0.03435 -0.17807,0.105756 -0.22259,0.199066 l -3.03915,6.32655 -45.305,-21.7642099 c -0.1517,-0.073248 -0.32655,-0.082093 -0.48558,-0.026359 l -55.82621,19.5945399 -37.64135,-18.082665 c -0.15142,-0.073189 -0.32627,-0.082737 -0.48559,-0.02753 l -20.39136,7.157112 c -0.15933,0.056027 -0.29053,0.1733522 -0.36375,0.325471 l -21.50456,44.76511 c -0.0738,0.152207 -0.0826,0.327639 -0.0264,0.486787 l 1.57713,4.497229 -4.49679,1.578181 c -0.15903,0.056 -0.28877,0.172679 -0.36258,0.325501 l -21.50516,44.765692 c -0.0732,0.1528 -0.0838,0.327 -0.0264,0.4862 l 6.94551,19.79018 -19.79009,6.9466 c -0.15933,0.0554 -0.29024,0.17274 -0.36317,0.32491 l -26.46645,55.09578 c -0.0738,0.15282 -0.0832,0.32764 -0.0264,0.48679 l 1.57713,4.49664 -4.49591,1.57994 c -0.15932,0.056 -0.29024,0.17215 -0.36346,0.32433 l -23.1599,48.20925 c -0.0732,0.15221 -0.0826,0.32758 -0.0264,0.48679 l 3.36747,9.5945 -35.0831,12.31445 c -0.15903,0.056 -0.28936,0.17215 -0.36317,0.32432 l -29.77651,61.98407 c -0.0419,0.0866 -0.0635,0.1814 -0.0635,0.27629 0,0.0713 0.0117,0.14172 0.0366,0.21049 l 15.95959,45.46871 h 705.087483 l 16.7362936,-34.83714 c 0.073219,-0.15221 0.083176,-0.32755 0.026359,-0.48737 L -13.522896,310.5078 7.867753,265.97892 c 0.036609,-0.0757 0.05711,-0.15806 0.061796,-0.2408 0.00586,-0.0827 -0.00879,-0.16524 -0.035731,-0.24484 L -6.4198195,224.71169 c -0.055939,-0.15985 -0.1725029,-0.29056 -0.3253832,-0.36378 L -103.16259,178.02916 c -0.15288,-0.0726 -0.32861,-0.0826 -0.48793,-0.0269 l -40.53203,14.22786 31.31059,-65.17877 12.35314,-4.33591 c 0.0978,-0.0344 0.17778,-0.10631 0.22258,-0.19965 l 18.262465,-38.014715 c 0.04481,-0.09334 0.05067,-0.200414 0.01757,-0.298029 l -3.23831,-9.227234 14.133521,-29.421288 c 0.04481,-0.09334 0.05067,-0.200355 0.01757,-0.298 L -88.661517,-4.7677969 c -0.03456,-0.097615 -0.105727,-0.1776282 -0.199154,-0.2225258 l -147.689699,-70.9493483 -5.43369,-15.479981 c -0.0346,-0.09764 -0.10632,-0.177628 -0.19974,-0.222525 l -29.56653,-14.203813 c -0.0934,-0.0449 -0.20062,-0.051 -0.29844,-0.0161 l -15.48015,5.43305 -27.30993,-13.11929 c -0.0466,-0.0226 -0.0969,-0.035 -0.14761,-0.0378 z" /></g></g></svg>
