<svg width="0" height="0" class="hidden">
  <symbol xmlns="http://www.w3.org/2000/svg" viewBox="0 0 198.799 161.9" id="cloud2">
    <path d="M97.117 139.233c-7.6-4.38-10.638-7.969-15.593-13.955-3.025 2.413-6.472 4.599-10.039 6.053-9.247 3.375-18.284 3.457-26.66.55-5.358-2.065-9.712-4.633-13.787-8.673-3.692-3.658-6.489-8.403-8.294-12.832-2.364-5.861-2.73-7.78-2.743-14.373-.007-3.69.056-5.045.308-6.504 1.184-6.87 4.238-13.375 8.806-18.755 3.466-3.823 5.995-5.68 9.752-8.24l.028-4.659c.03-5.045.11-5.643 1.17-8.765.856-2.518 2.19-4.795 4.403-7.51 2.937-3.605 5.26-5.409 9.036-7.02 2.661-1.136 4.526-1.484 7.955-1.484 3.619 0 5.409.366 8.804 1.8 1.39.586 2.64 1.012 2.78.946 1.034-2.375 1.653-4.882 2.881-7.2 1.684-3.121 4.42-5.84 7.298-7.25 3.315-1.624 8.326-1.817 12.127-.467 2.85 1.182 4.01 2.229 6.216 4.028 6.536-4.16 15-5.652 20.913-3.902 2.495.778 5.942 2.776 8.216 4.764 3.136 2.74 5.998 6.806 7.889 11.203 1.138 2.646.942 2.535 3.829 2.19 3.528-.276 7.68-.592 10.664.209 6.298 1.714 11.396 5.026 15.894 10.328 8.53 11.981 11.382 24.47 9.044 37.601-2.017 11.028-8.102 20.723-16.235 25.864-7.742 4.21-11.787 4.503-19.24 4.503-2.311 4.365-5.163 9.01-7.816 12.16-5.414 5.851-12.363 11.006-19.762 11.9-6.224.471-12.866-.054-17.844-2.51z" fill="#d5f6ff"></path>
  </symbol>
</svg>