<?xml version="1.0" encoding="UTF-8" standalone="no"?>
<svg
   xmlns:dc="http://purl.org/dc/elements/1.1/"
   xmlns:cc="http://creativecommons.org/ns#"
   xmlns:rdf="http://www.w3.org/1999/02/22-rdf-syntax-ns#"
   xmlns:svg="http://www.w3.org/2000/svg"
   xmlns="http://www.w3.org/2000/svg"
   xmlns:sodipodi="http://sodipodi.sourceforge.net/DTD/sodipodi-0.dtd"
   xmlns:inkscape="http://www.inkscape.org/namespaces/inkscape"
   version="1.1"
   id="svg4941"
   xml:space="preserve"
   width="1700.7867"
   height="1700.7867"
   viewBox="0 0 1700.7867 1700.7867"
   sodipodi:docname="static-2021-cloud-b.svg"
   inkscape:version="1.0.1 (3bc2e813f5, 2020-09-07)"><metadata
     id="metadata4947"><rdf:RDF><cc:Work
         rdf:about=""><dc:format>image/svg+xml</dc:format><dc:type
           rdf:resource="http://purl.org/dc/dcmitype/StillImage" /><dc:title /></cc:Work></rdf:RDF></metadata><defs
     id="defs4945"><clipPath
       clipPathUnits="userSpaceOnUse"
       id="clipPath4959"><path
         d="M 0,1275.591 H 1275.591 V 0 H 0 Z"
         id="path4957"
         inkscape:connector-curvature="0"
         style="" /></clipPath></defs><sodipodi:namedview
     pagecolor="#ffffff"
     bordercolor="#666666"
     borderopacity="1"
     objecttolerance="10"
     gridtolerance="10"
     guidetolerance="10"
     inkscape:pageopacity="0"
     inkscape:pageshadow="2"
     inkscape:window-width="2488"
     inkscape:window-height="1376"
     id="namedview4943"
     showgrid="false"
     inkscape:zoom="0.35355339"
     inkscape:cx="164.35814"
     inkscape:cy="881.73527"
     inkscape:window-x="72"
     inkscape:window-y="27"
     inkscape:window-maximized="1"
     inkscape:current-layer="layer1"
     inkscape:document-rotation="0"
     showguides="true"
     inkscape:guide-bbox="true"
     inkscape:lockguides="false"
     inkscape:object-paths="true"
     inkscape:object-nodes="true"
     inkscape:snap-smooth-nodes="true"
     inkscape:snap-intersection-paths="true" /><g
     id="Logo"
     inkscape:groupmode="layer"
     transform="matrix(1.3333333,0,0,-1.3333333,0,1700.7867)"
     inkscape:label="ZURIHAC 2020_1" /><g
     inkscape:groupmode="layer"
     id="layer1"
     inkscape:label="clouds"
     stroke="yellow"><g
       id="g3018"
       transform="matrix(1.3515508,0,0,1.3515508,1647.2714,-176.28229)"><path
         id="path5634-5-6-2-4"
         style="display:inline;fill:#ffffff;fill-opacity:1;fill-rule:nonzero;stroke:#aedee4;stroke-width:20.5012;stroke-miterlimit:4;stroke-dasharray:none;stroke-opacity:1;paint-order:markers stroke fill"
         d="m -1079.4458,461.09864 c -0.033,-0.003 -0.067,0.003 -0.098,0.0144 l -32.7984,11.51189 c -0.064,0.0225 -0.1165,0.0692 -0.1458,0.13041 l -46.5178,96.83269 -10.1496,3.56252 c -0.064,0.0226 -0.1162,0.0692 -0.1458,0.13042 l -9.3123,19.38575 c -0.029,0.0612 -0.034,0.13135 -0.012,0.19564 l 3.562,10.14935 -8.6015,17.90594 c -0.015,0.0304 -0.023,0.0634 -0.023,0.0967 0,0.0333 0,0.0664 0.015,0.0984 l 5.7555,16.39866 c 0.024,0.0643 0.069,0.11698 0.1309,0.14644 l 38.771,18.62554 c 0.062,0.0293 0.1321,0.0335 0.1962,0.0108 l 16.2985,-5.72135 10.8867,5.23 6.4403,18.34865 c 0.023,0.0643 0.069,0.11701 0.1306,0.14644 l 2.6737,1.28419 1.4043,3.99958 c 0.023,0.0642 0.069,0.11668 0.1303,0.14585 l 86.7101,41.65505 -19.175,39.91612 c -0.073,0.15279 -0.083,0.32702 -0.026,0.48622 l 6.9455,19.79018 -19.7904,6.9466 c -0.159,0.0554 -0.2899,0.17274 -0.3631,0.32491 l -26.4662,55.09581 c -0.074,0.15282 -0.083,0.32764 -0.026,0.48679 l 1.5772,4.49664 -4.4962,1.57994 c -0.1591,0.056 -0.29,0.17215 -0.3632,0.32433 l -23.1599,48.20925 c -0.073,0.15221 -0.083,0.32758 -0.026,0.48679 l 3.3675,9.59449 -35.0831,12.31443 c -0.1593,0.056 -0.2894,0.17218 -0.3634,0.32435 l -29.7766,61.98406 c -0.042,0.0866 -0.063,0.18141 -0.063,0.2763 0,0.0713 0.012,0.14172 0.037,0.21049 l 10.3619,29.522 h 772.16735 l 15.32142,-31.89302 c 0.0445,-0.0937 0.0513,-0.20153 0.0176,-0.29917 l -8.72619,-24.85884 7.97701,-16.60403 27.9853,-9.8227 c 0.0981,-0.0344 0.17836,-0.10594 0.22317,-0.19966 l 1.95933,-4.07792 6.09998,-2.14164 c 0.0978,-0.0344 0.17807,-0.10517 0.22259,-0.19848 l 75.0774,-156.28441 c 0.0451,-0.093 0.0504,-0.20042 0.0176,-0.29803 l -12.01751,-34.23881 11.09027,-23.08557 c 0.0448,-0.0929 0.0504,-0.20038 0.0176,-0.29802 l -4.3896,-12.50608 c -0.0343,-0.0976 -0.10631,-0.17819 -0.19974,-0.22308 l -27.45461,-13.18906 c -0.0934,-0.0453 -0.20091,-0.0506 -0.29844,-0.0161 l -2.75828,0.9673 -0.96795,-2.75773 c -0.0343,-0.0976 -0.10602,-0.17719 -0.19974,-0.2225 l -27.4552,-13.18906 c -0.0937,-0.0449 -0.20032,-0.0517 -0.29785,-0.0173 l -12.13788,4.25983 -4.26044,-12.1377 c -0.034,-0.0977 -0.10572,-0.1776 -0.19886,-0.2225 l -33.79094,-16.23223 c -0.0937,-0.0453 -0.2012,-0.0507 -0.29873,-0.0167 l -2.7577,0.96728 -0.96883,-2.75771 c -0.0346,-0.0976 -0.10573,-0.1776 -0.19916,-0.22249 l -29.56711,-14.2044 c -0.0934,-0.0449 -0.20091,-0.0506 -0.29873,-0.0161 l -5.88442,2.06556 -7.55235,-21.51709 c -0.0343,-0.0976 -0.10573,-0.17722 -0.19886,-0.22252 l -38.01536,-18.26232 c -0.053,-0.0258 -0.11129,-0.0389 -0.16928,-0.0389 -0.0439,0 -0.0873,0.007 -0.12945,0.0223 l -56.27636,19.75298 c -0.0975,0.0344 -0.17748,0.10591 -0.22258,0.19962 l -10.07546,20.97369 -20.18078,7.08334 -114.66609,-55.08439 -5.4334,-15.47998 c -0.0346,-0.0976 -0.10631,-0.17821 -0.19974,-0.22311 l -29.56594,-14.20325 c -0.0934,-0.0449 -0.2012,-0.0519 -0.29932,-0.017 l -15.47927,5.43302 -27.31052,-13.11927 c -0.0463,-0.0223 -0.0961,-0.0349 -0.14644,-0.0377 -0.0504,-0.003 -0.10104,0.004 -0.14936,0.0211 l -25.01145,8.77878 c -0.0981,0.0344 -0.17836,0.10591 -0.22317,0.19962 l -28.40762,59.1337 c -0.0445,0.0937 -0.0513,0.20152 -0.0176,0.29917 l 8.72619,24.85883 -7.97702,16.60404 -27.98529,9.82329 c -0.0981,0.0344 -0.17836,0.10534 -0.22317,0.19906 l -1.95904,4.07792 -6.10027,2.14165 c -0.0978,0.0344 -0.17778,0.10575 -0.22229,0.19906 l -3.03916,6.32655 -45.30529,-21.76421 c -0.15141,-0.0732 -0.32655,-0.082 -0.48558,-0.0264 l -55.82621,19.59454 10.64305,-22.1549 c 0.0296,-0.0614 0.0334,-0.13159 0.0117,-0.19561 l -0.63436,-1.80818 1.80791,-0.6355 c 0.0641,-0.0226 0.11656,-0.0692 0.14614,-0.13042 l 9.31282,-19.38575 c 0.0296,-0.0612 0.0334,-0.13162 0.009,-0.19564 l -1.35395,-3.85771 14.10774,-4.95197 c 0.0641,-0.0226 0.11627,-0.0693 0.14585,-0.13042 l 11.97358,-24.92462 c 0.0176,-0.0349 0.0264,-0.0728 0.0264,-0.11097 0,-0.0287 -0.003,-0.057 -0.0146,-0.0847 l -12.95118,-36.89754 c -0.0234,-0.064 -0.0694,-0.11642 -0.13092,-0.14588 l -13.75132,-6.60625 -5.72071,-16.29915 c -0.0234,-0.064 -0.07,-0.11641 -0.13121,-0.14585 l -33.23184,-15.96451 c -0.0609,-0.0295 -0.1318,-0.0334 -0.19564,-0.0108 l -10.0081,3.51279 -4.23232,-12.05763 c -0.0234,-0.064 -0.0694,-0.11701 -0.13062,-0.14644 l -12.4618,-5.98617 c -0.0609,-0.0294 -0.13179,-0.0335 -0.19564,-0.0108 l -8.09943,2.84235 -42.73453,-20.52864 -2.8429,-8.09981 c -0.023,-0.064 -0.07,-0.11642 -0.1309,-0.14585 l -24.9242,-11.97352 c -0.061,-0.0294 -0.1315,-0.0335 -0.1956,-0.0108 l -6.0496,2.12334 -19.2902,-9.26671 c -0.031,-0.0147 -0.063,-0.0229 -0.097,-0.0246 z" /><path
         id="path5634-5-6-7-6"
         style="display:inline;fill:#ffffff;fill-opacity:1;fill-rule:nonzero;stroke:#aedee4;stroke-width:20.5012;stroke-miterlimit:4;stroke-dasharray:none;stroke-opacity:1;paint-order:markers stroke fill"
         d="m -318.42724,573.50318 c -0.051,-0.003 -0.10163,0.005 -0.15054,0.0217 l -25.01175,8.77879 c -0.0978,0.0344 -0.17806,0.10593 -0.22287,0.19965 l -28.40762,59.13369 c -0.0445,0.0937 -0.0507,0.2015 -0.0176,0.29915 l 8.72619,24.85883 -7.97701,16.60403 -27.9853,9.82329 c -0.0981,0.0344 -0.17836,0.10535 -0.22317,0.19907 l -1.95933,4.07792 -6.09998,2.14164 c -0.0978,0.0344 -0.17807,0.10576 -0.22259,0.19907 l -3.03915,6.32655 -45.305,-21.76421 c -0.15141,-0.0733 -0.32655,-0.0821 -0.48558,-0.0264 l -55.82621,19.59454 -37.64135,-18.08266 c -0.15142,-0.0732 -0.32627,-0.0827 -0.48559,-0.0275 l -20.39136,7.15711 c -0.15903,0.056 -0.29053,0.17335 -0.36375,0.32547 l -21.50458,44.76514 c -0.0738,0.15221 -0.0826,0.32764 -0.0264,0.48679 l 1.57713,4.49723 -4.49679,1.57818 c -0.15903,0.056 -0.28877,0.17268 -0.36258,0.3255 l -21.50516,44.76569 c -0.0732,0.1528 -0.0838,0.327 -0.0264,0.4862 l 6.94551,19.79018 -19.79009,6.9466 c -0.15933,0.0554 -0.28995,0.17274 -0.36317,0.32491 l -26.46645,55.09581 c -0.0738,0.15282 -0.0832,0.32764 -0.0264,0.48679 l 1.57713,4.49664 -4.49591,1.57994 c -0.15932,0.056 -0.29024,0.17215 -0.36346,0.32433 l -23.1599,48.20925 c -0.0732,0.15221 -0.0826,0.32758 -0.0264,0.48679 l 3.36747,9.59449 -35.0831,12.31446 c -0.15903,0.056 -0.28936,0.17215 -0.36317,0.32432 l -29.77651,61.98405 c -0.0419,0.087 -0.0635,0.1814 -0.0635,0.2763 0,0.071 0.0117,0.1417 0.0366,0.2105 l 15.9596,45.4687 h 705.087483 l 16.7362932,-34.8372 c 0.073218,-0.1522 0.083176,-0.3275 0.026359,-0.4873 L -16.961337,997.59737 4.4293126,953.06849 c 0.036609,-0.0757 0.057403,-0.15806 0.061796,-0.2408 0.00586,-0.0827 -0.00879,-0.16524 -0.035438,-0.24484 L -9.857967,911.80126 c -0.056232,-0.15985 -0.172796,-0.29056 -0.325676,-0.36378 l -96.417387,-46.31875 c -0.15259,-0.0726 -0.32861,-0.0826 -0.48793,-0.0269 l -40.53203,14.22786 31.31059,-65.1788 12.35343,-4.33591 c 0.0975,-0.0344 0.17748,-0.10631 0.22229,-0.19965 l 18.262465,-38.01471 c 0.04481,-0.0933 0.05067,-0.20042 0.01757,-0.29803 l -3.238309,-9.22724 14.133521,-29.42129 c 0.04481,-0.0933 0.05067,-0.20035 0.01757,-0.298 l -17.558098,-50.02428 c -0.03427,-0.0976 -0.105728,-0.17762 -0.199155,-0.22252 l -147.689694,-70.94935 -5.43369,-15.47998 c -0.0343,-0.0977 -0.10632,-0.17763 -0.19974,-0.22253 l -29.56653,-14.20381 c -0.0931,-0.0449 -0.20062,-0.051 -0.29844,-0.0161 l -15.48015,5.43305 -27.30993,-13.11929 c -0.0463,-0.0226 -0.0967,-0.035 -0.14761,-0.0377 z" /></g></g></svg>
