<?xml version="1.0" encoding="UTF-8" standalone="no"?>
<svg
   xmlns:dc="http://purl.org/dc/elements/1.1/"
   xmlns:cc="http://creativecommons.org/ns#"
   xmlns:rdf="http://www.w3.org/1999/02/22-rdf-syntax-ns#"
   xmlns:svg="http://www.w3.org/2000/svg"
   xmlns="http://www.w3.org/2000/svg"
   xmlns:sodipodi="http://sodipodi.sourceforge.net/DTD/sodipodi-0.dtd"
   xmlns:inkscape="http://www.inkscape.org/namespaces/inkscape"
   viewBox="0 0 1031 1031.5"
   class="track-icon"
   version="1.1"
   id="svg58"
   sodipodi:docname="bla.svg"
   width="1031"
   height="1031.5"
   inkscape:version="1.0.2 (e86c8708, 2021-01-15)">
  <metadata
     id="metadata64">
    <rdf:RDF>
      <cc:Work
         rdf:about="">
        <dc:format>image/svg+xml</dc:format>
        <dc:type
           rdf:resource="http://purl.org/dc/dcmitype/StillImage" />
        <dc:title></dc:title>
      </cc:Work>
    </rdf:RDF>
  </metadata>
  <defs
     id="defs62" />
  <sodipodi:namedview
     pagecolor="#ffffff"
     bordercolor="#666666"
     borderopacity="1"
     objecttolerance="10"
     gridtolerance="10"
     guidetolerance="10"
     inkscape:pageopacity="0"
     inkscape:pageshadow="2"
     inkscape:window-width="1440"
     inkscape:window-height="847"
     id="namedview60"
     showgrid="false"
     inkscape:zoom="0.25758797"
     inkscape:cx="972.48329"
     inkscape:cy="515.75"
     inkscape:window-x="0"
     inkscape:window-y="25"
     inkscape:window-maximized="1"
     inkscape:current-layer="svg58" />
  <path
     d="m 887.36,286.16 c 10.619,10.62494 10.619,27.84506 0,38.47 -10.6215,10.61786 -27.8385,10.61786 -38.46,0 -10.51582,-10.6424 -10.46677,-27.77825 0.10977,-38.36029 10.57654,-10.58205 27.71237,-10.64 38.36023,-0.12971 z M 720.18,196.8 c 20.97137,4.17754 41.48277,10.40063 61.24,18.58 13.88805,5.74567 20.49106,21.66004 14.75,35.55 -5.74503,13.8887 -21.66556,20.48531 -35.55,14.73 h -0.05 c -16.23835,-6.72945 -33.09038,-11.87012 -50.32,-15.35 -0.46,-0.08 -0.91,-0.17 -1.37,-0.27 -16.80184,-3.29848 -33.87767,-5.00271 -51,-5.09 h -1.4 c -38.88226,-10e-4 -74.81173,-20.7411 -94.26,-54.41 -0.12,-0.21 -0.25,-0.43 -0.36,-0.65 -17.81808,-30.68266 -41.46128,-57.587 -69.6,-79.2 -119.22,-91.48 -290,-69 -381.52,50.23 -9.14584,11.93212 -26.232881,14.19083 -38.164993,5.04499 C 60.642895,156.81916 58.384158,139.73212 67.53,127.8 c 0.28,-0.36 0.57,-0.71 0.86,-1.06 25.977601,-33.555961 58.24571,-61.727722 95,-82.94 156.13,-90.16 355.79,-36.67 446,119.46 v 0.05 l 0.23,0.39 c 9.54974,16.25855 26.83894,26.41108 45.69,26.83 h 1.21 c 21.3874,-4.8e-4 42.72314,2.0996 63.7,6.27 z M 43.41,544.94 c 0.23,-0.44 0.49,-0.88 0.75,-1.31 9.268726,-16.55722 9.2422,-36.74719 -0.07,-53.28 C 43.82,489.9 43.57,489.45 43.32,489 0.4117302,414.16251 -11.142612,325.38749 11.18,242.06 15.070849,227.54319 29.993193,218.92917 44.509997,222.82001 59.026801,226.71086 67.640849,241.63319 63.75,256.15 45.144882,325.6187 54.798248,399.62784 90.6,462 c 0.3,0.5 0.59,1.01 0.87,1.53 18.75721,33.25532 18.72306,73.90625 -0.09,107.13 -0.35,0.63 -0.71,1.26 -1.11,1.87 C 72.768565,603.20253 61.40078,636.98662 56.8,672 37.19,821 142.06,957.63 291.06,977.25 v 0.06 c 14.89591,1.95925 25.38213,15.62447 23.42,30.52 -1.95998,14.8792 -15.59712,25.3621 -30.48,23.43 h 0.05 c -42.51706,-5.6054 -83.51198,-19.5377 -120.64,-41 C 7.37,900.26 -46.21,701 43.41,544.94 Z m 44.8,30.43 c 0.747185,-0.88726 1.435331,-1.8226 2.06,-2.8 l 0.08,-0.13 c -0.648746,1.02224 -1.363603,2.00099 -2.14,2.93 z m 322.87,447.54 c -14.50849,3.8933 -29.42618,-4.7116 -33.32,-19.22 -3.89293,-14.51948 4.72085,-29.44585 19.24,-33.34 14.43484,-3.67852 29.14425,4.93362 33.00135,19.32176 3.85709,14.38814 -4.5721,29.20314 -18.91135,33.23824 z m 245.4,-179.34 c -19.17367,10e-4 -36.93244,10.09049 -46.75,26.56 -0.12,0.23 -0.25,0.46 -0.38,0.68 -10.69277,18.51301 -23.17947,35.93009 -37.28,52 4.52,-5.16 4.53,-5.13 0,0 -0.28,0.32 -0.56,0.63 -0.85,0.93 -13.88171,15.69898 -29.24257,30.02506 -45.87,42.78 -11.91604,9.15229 -28.99493,6.9139 -38.15,-5 -9.14652,-11.91758 -6.90873,-28.99195 5,-38.15 14.14002,-10.85204 27.17935,-23.06741 38.93,-36.47 -4.36,5 -4.37,4.94 0,0 0.34,-0.38 0.68,-0.75 1,-1.1 11.13989,-12.85092 21.04995,-26.71831 29.6,-41.42 0.16,-0.3 0.33,-0.59 0.5,-0.89 19.45587,-33.62023 55.35607,-54.32192 94.2,-54.32 35.73407,4.4e-4 71.11803,-7.04033 104.13,-20.72 138.55,-57.39 204.51,-216 147.61,-354.67 -0.12,-0.26 -0.24,-0.53 -0.35,-0.8 -5.57219,-13.83585 1.03307,-29.57867 14.8094,-35.29642 13.77632,-5.71775 29.58792,0.72114 35.4506,14.43642 16.41562,39.62962 24.86313,82.10502 24.86,125 0,180.33 -146.19,326.52 -326.52,326.52 z m -24,-542.93 c 7.19333,-0.78667 14.41333,-1.22 21.66,-1.3 125.36721,-1.28138 225.90904,103.31449 219.6758,228.53307 C 867.58256,653.09165 757.15019,747.18547 632.53,733.46 587.73818,730.01855 545.42986,754.43529 526,794.94 501.07571,851.73056 453.11574,895.19695 394.15477,914.43203 335.19381,933.66712 270.82814,926.84519 217.20905,895.67823 163.58995,864.51127 125.80666,811.95748 113.34027,751.2041 100.87388,690.45072 114.90764,627.26417 151.92,577.5 c 24.68926,-37.05252 24.36066,-85.39652 -0.83,-122.11 -2.6,-3.55333 -5.09,-7.17667 -7.47,-10.87 C 74.931267,337.7109 111.86214,195.02428 223.74378,134.95112 335.62542,74.877972 474.96464,122.91904 526.05,239.18 c 19.42724,40.46609 61.69167,64.86789 106.45,61.46 z m -447.29,488.5 c 33.01401,57.18303 97.22418,88.84829 162.68658,80.22899 65.46227,-8.61928 119.28382,-55.82553 136.37259,-119.60453 17.08876,-63.779 -5.92046,-131.57107 -58.3037,-171.76556 C 373.56212,537.80434 302.12175,533.12377 244.94,566.14 c -78.06828,45.08867 -104.81652,144.91894 -59.75,223 z M 515.13,598.68 c 33.0121,57.18375 97.22083,88.85097 162.68321,80.23409 C 743.27547,670.29722 797.09855,623.09335 814.1899,559.31538 831.28125,495.53742 808.27519,427.74471 755.89411,387.54795 703.51293,347.3511 632.07322,342.66697 574.89,375.68 c -78.07191,45.08524 -104.82484,144.91632 -59.76,223 z M 326.61,489.84 C 392.63657,489.81978 452.15039,450.0289 477.39941,389.02244 502.64839,328.0161 488.6601,257.8086 441.96103,211.13241 395.26196,164.45622 325.04762,150.50233 264.05366,175.7812 203.05957,201.06012 163.29787,260.59343 163.31,326.62 c 0.0221,90.16601 73.13399,163.24209 163.3,163.22 z"
     id="path56"
     sodipodi:nodetypes="cccsccccccccccsccccscccccccscccccccsccccccccscccccccccccsccccccccccccccccccccsccccccsccssscccsccccssscccssscccssscc" />
</svg>
