<?xml version="1.0" encoding="UTF-8" standalone="no"?>
<svg
   xmlns:dc="http://purl.org/dc/elements/1.1/"
   xmlns:cc="http://creativecommons.org/ns#"
   xmlns:rdf="http://www.w3.org/1999/02/22-rdf-syntax-ns#"
   xmlns:svg="http://www.w3.org/2000/svg"
   xmlns="http://www.w3.org/2000/svg"
   xmlns:sodipodi="http://sodipodi.sourceforge.net/DTD/sodipodi-0.dtd"
   xmlns:inkscape="http://www.inkscape.org/namespaces/inkscape"
   width="169.20364"
   height="101.16046"
   viewBox="0 0 169.20364 101.16046"
   version="1.1"
   id="svg981"
   sodipodi:docname="zurihac2019-dates.svg"
   inkscape:version="0.92.2 2405546, 2018-03-11">
  <metadata
     id="metadata985">
    <rdf:RDF>
      <cc:Work
         rdf:about="">
        <dc:format>image/svg+xml</dc:format>
        <dc:type
           rdf:resource="http://purl.org/dc/dcmitype/StillImage" />
        <dc:title>zurihac-2018-back</dc:title>
      </cc:Work>
    </rdf:RDF>
  </metadata>
  <sodipodi:namedview
     pagecolor="#ffffff"
     bordercolor="#666666"
     borderopacity="1"
     objecttolerance="10"
     gridtolerance="10"
     guidetolerance="10"
     inkscape:pageopacity="0"
     inkscape:pageshadow="2"
     inkscape:window-width="1832"
     inkscape:window-height="973"
     id="namedview983"
     showgrid="false"
     showguides="true"
     inkscape:guide-bbox="true"
     fit-margin-top="10"
     fit-margin-left="10"
     fit-margin-right="10"
     fit-margin-bottom="10"
     inkscape:zoom="3.7217706"
     inkscape:cx="81.412382"
     inkscape:cy="38.310182"
     inkscape:window-x="676"
     inkscape:window-y="343"
     inkscape:window-maximized="0"
     inkscape:current-layer="svg981">
    <sodipodi:guide
       position="3.7812511,51.360418"
       orientation="0,1"
       id="guide4694"
       inkscape:locked="false" />
    <sodipodi:guide
       position="-11.988089,33.501168"
       orientation="0,1"
       id="guide4696"
       inkscape:locked="false" />
  </sodipodi:namedview>
  <!-- Generator: Sketch 43.2 (39069) - http://www.bohemiancoding.com/sketch -->
  <title
     id="title815">zurihac-2018-back</title>
  <desc
     id="desc817">Created with Sketch.</desc>
  <text
     xml:space="preserve"
     style="font-style:normal;font-variant:normal;font-weight:bold;font-stretch:condensed;font-size:24.63866615px;line-height:15.39893055px;font-family:'Helvetica Neue';-inkscape-font-specification:'Helvetica Neue, Bold Condensed';font-variant-ligatures:normal;font-variant-caps:normal;font-variant-numeric:normal;font-feature-settings:normal;text-align:start;letter-spacing:0px;word-spacing:0px;writing-mode:lr-tb;text-anchor:start;fill:#ff5252;fill-opacity:1;stroke:none;stroke-width:0.61595726px;stroke-linecap:butt;stroke-linejoin:miter;stroke-opacity:1"
     x="9.4086723"
     y="67.467789"
     id="text4692"><tspan
       sodipodi:role="line"
       id="tspan4690"
       x="9.4086723"
       y="67.467789"
       style="font-style:normal;font-variant:normal;font-weight:bold;font-stretch:condensed;font-size:24.63866615px;font-family:'Helvetica Neue';-inkscape-font-specification:'Helvetica Neue, Bold Condensed';font-variant-ligatures:normal;font-variant-caps:normal;font-variant-numeric:normal;font-feature-settings:normal;text-align:start;writing-mode:lr-tb;text-anchor:start;fill:#ff5252;stroke-width:0.61595726px">ZURIHAC</tspan></text>
  <defs
     id="defs819">
    <clipPath
       id="clip1">
      <path
         id="path4758"
         d="M 0,340.15625 H 481.89062 V 0 H 0 Z m 0,0"
         inkscape:connector-curvature="0" />
    </clipPath>
  </defs>
  <path
     d="m 11.613439,46.333833 20.472695,-12.937566 18.410548,-18.784876 7.216907,7.812783 2.613231,4.130464 4.27521,-0.231943 c 0,0 3.02707,-2.879778 4.23459,-3.322899 1.20752,-0.44312 10.65484,-3.155228 10.65484,-3.155228 L 91.34281,10 l 5.88981,7.060717 5.24412,4.785041 8.94063,5.411214 5.52371,1.133491 c 0,0 2.11287,-1.57728 2.64551,-2.05577 0.53264,-0.478489 5.57404,-6.067175 5.57404,-6.067175 l 4.44732,4.426431 3.59748,4.431766 c 0,0 4.7946,2.09016 5.81819,2.637837 1.44523,0.944214 1.80782,1.626788 3.70297,3.429313 1.04586,0.995033 6.71755,3.745779 6.71755,3.745779 l 8.14607,5.133231 -5.61258,-0.244955 -2.94696,-0.959078 -2.58646,-2.803115 c 0,0 -4.14168,-1.485856 -5.03895,-1.969989 -0.89726,-0.484132 -3.70422,-3.417478 -3.70422,-3.417478 l -3.9127,-1.436241 -4.60235,-4.537255 -2.69811,-3.323824 -1.21879,-0.94185 1.0399,2.755316 -1.39279,3.978235 1.84822,3.472883 -0.19911,1.892339 2.51822,2.280428 1.40381,2.267985 -2.01584,-0.274447 -2.19335,-1.54519 -2.79548,-3.052386 c 0,0 -2.15262,-1.178327 -2.64114,-1.541532 -0.48852,-0.363204 -1.27037,-1.585788 -1.75889,-1.948992 -0.48852,-0.363204 -1.32331,-0.575755 -1.80301,-1.107298 -0.4797,-0.531544 -1.53816,-0.658916 -1.53816,-0.658916 l -2.95504,-0.882321 c 0,0 -2.51188,-0.172487 -3.00922,-0.367352 -0.49735,-0.194866 -3.83032,-2.219213 -3.83032,-2.219213 l -3.80407,-2.46855 -3.88154,-1.732441 -2.63354,-3.937461 -1.93826,-2.474145 -1.68722,-0.08842 -1.96181,1.9228 -0.6385,2.498555 c 0,0 -2.55729,0.372381 -2.58376,0.877398 -0.0265,0.505016 -1.00603,4.092141 -1.00603,4.092141 l -2.686,1.791207 -0.12242,5.564022 -0.0518,4.217312 1.40381,2.267985 -0.11469,2.188404 -1.74125,-2.28567 -1.94526,-1.621157 -2.07869,-2.303354 -2.66426,-0.814832 -4.95632,-2.476838 -4.06644,0.315964 -5.64954,-1.965678 -4.987807,-3.440288 -1.646912,-3.658721 -2.793942,-2.41318 -0.878346,-1.910097 -0.848347,1.535183 0.32972,3.393302 -1.473286,2.286004 -2.680805,2.729125 -0.211735,4.040131 -0.620854,2.161876 -5.176343,1.923134 -2.112884,1.57728 -0.80722,2.489712 c 0,0 -3.578447,0.487666 -4.253335,0.452297 -0.674887,-0.03537 -4.741853,0.08909 -5.248018,0.06257 -0.506166,-0.02653 -3.781568,1.724517 -3.781568,1.724517 l -5.12979,0.475011 -1.973961,2.125229 z"
     id="path964"
     inkscape:connector-curvature="0"
     style="fill:#ff5252;fill-rule:nonzero;stroke:none;stroke-width:1" />
  <g
     id="surface0"
     transform="matrix(0.05250308,0,0,0.05250308,99.887899,49.800032)"
     style="fill:#ff5252">
    <g
       id="g4771"
       clip-path="url(#clip1)"
       style="clip-rule:nonzero;fill:#ff5252">
      <path
         id="path4763"
         d="M 0,340.15625 113.38672,170.07812 0,0 H 85.039062 L 198.42578,170.07812 85.039062,340.15625 Z m 0,0"
         style="fill:#ff5252;fill-opacity:1;fill-rule:nonzero;stroke:none"
         inkscape:connector-curvature="0" />
      <path
         id="path4765"
         d="M 113.38672,340.15625 226.77344,170.07812 113.38672,0 h 85.03906 L 425.19531,340.15625 H 340.15625 L 269.29297,233.85937 198.42578,340.15625 Z m 0,0"
         style="fill:#ff5252;fill-opacity:1;fill-rule:nonzero;stroke:none"
         inkscape:connector-curvature="0" />
      <path
         id="path4767"
         d="m 387.40234,240.94531 -37.79297,-56.6914 132.28125,-0.004 v 56.69531 z m 0,0"
         style="fill:#ff5252;fill-opacity:1;fill-rule:nonzero;stroke:none"
         inkscape:connector-curvature="0" />
      <path
         id="path4769"
         d="m 330.71094,155.90625 -37.79688,-56.691406 188.97656,-0.0039 v 56.695316 z m 0,0"
         style="fill:#ff5252;fill-opacity:1;fill-rule:nonzero;stroke:none"
         inkscape:connector-curvature="0" />
    </g>
  </g>
  <text
     id="text5328"
     y="67.467789"
     x="129.48364"
     style="font-style:normal;font-variant:normal;font-weight:bold;font-stretch:condensed;font-size:24.63866615px;line-height:15.39893055px;font-family:'Helvetica Neue';-inkscape-font-specification:'Helvetica Neue, Bold Condensed';font-variant-ligatures:normal;font-variant-caps:normal;font-variant-numeric:normal;font-feature-settings:normal;text-align:start;letter-spacing:0px;word-spacing:0px;writing-mode:lr-tb;text-anchor:start;fill:#ff5252;fill-opacity:1;stroke:none;stroke-width:0.61595726px;stroke-linecap:butt;stroke-linejoin:miter;stroke-opacity:1"
     xml:space="preserve"><tspan
       style="font-style:normal;font-variant:normal;font-weight:bold;font-stretch:condensed;font-size:24.63866615px;font-family:'Helvetica Neue';-inkscape-font-specification:'Helvetica Neue, Bold Condensed';font-variant-ligatures:normal;font-variant-caps:normal;font-variant-numeric:normal;font-feature-settings:normal;text-align:start;writing-mode:lr-tb;text-anchor:start;fill:#ff5252;stroke-width:0.61595726px"
       y="67.467789"
       x="129.48364"
       id="tspan5326"
       sodipodi:role="line">'19</tspan></text>
  <text
     id="text5332"
     y="79.771896"
     x="9.7935638"
     style="font-style:normal;font-variant:normal;font-weight:bold;font-stretch:condensed;font-size:11.49085712px;line-height:7.18167543px;font-family:'Helvetica Neue';-inkscape-font-specification:'Helvetica Neue, Bold Condensed';font-variant-ligatures:normal;font-variant-caps:normal;font-variant-numeric:normal;font-feature-settings:normal;text-align:start;letter-spacing:0px;word-spacing:0px;writing-mode:lr-tb;text-anchor:start;fill:#ff5252;fill-opacity:1;stroke:none;stroke-width:0.28726703px;stroke-linecap:butt;stroke-linejoin:miter;stroke-opacity:1"
     xml:space="preserve"><tspan
       style="font-style:normal;font-variant:normal;font-weight:bold;font-stretch:condensed;font-size:11.49085712px;font-family:'Helvetica Neue';-inkscape-font-specification:'Helvetica Neue, Bold Condensed';font-variant-ligatures:normal;font-variant-caps:normal;font-variant-numeric:normal;font-feature-settings:normal;text-align:start;writing-mode:lr-tb;text-anchor:start;fill:#ff5252;stroke-width:0.28726703px"
       y="79.771896"
       x="9.7935638"
       id="tspan5330"
       sodipodi:role="line">BY ZURICH FRIENDS OF HASKELL</tspan></text>
  <text
     xml:space="preserve"
     style="font-style:normal;font-variant:normal;font-weight:bold;font-stretch:condensed;font-size:10.40386677px;line-height:6.50231647px;font-family:'Helvetica Neue';-inkscape-font-specification:'Helvetica Neue, Bold Condensed';font-variant-ligatures:normal;font-variant-caps:normal;font-variant-numeric:normal;font-feature-settings:normal;text-align:start;letter-spacing:0px;word-spacing:0px;writing-mode:lr-tb;text-anchor:start;fill:#ff5252;fill-opacity:1;stroke:none;stroke-width:0.26009268px;stroke-linecap:butt;stroke-linejoin:miter;stroke-opacity:1"
     x="9.9979668"
     y="91.046021"
     id="text5336"><tspan
       sodipodi:role="line"
       id="tspan5334"
       x="9.9979668"
       y="91.046021"
       style="font-style:normal;font-variant:normal;font-weight:bold;font-stretch:condensed;font-size:10.40386677px;font-family:'Helvetica Neue';-inkscape-font-specification:'Helvetica Neue, Bold Condensed';font-variant-ligatures:normal;font-variant-caps:normal;font-variant-numeric:normal;font-feature-settings:normal;text-align:start;writing-mode:lr-tb;text-anchor:start;fill:#ff5252;stroke-width:0.26009268px">14 TO 16 JUNE AT HSR RAPPERSWIL</tspan></text>
</svg>
