<?xml version="1.0" encoding="UTF-8" standalone="no"?>
<svg
   xmlns:dc="http://purl.org/dc/elements/1.1/"
   xmlns:cc="http://creativecommons.org/ns#"
   xmlns:rdf="http://www.w3.org/1999/02/22-rdf-syntax-ns#"
   xmlns:svg="http://www.w3.org/2000/svg"
   xmlns="http://www.w3.org/2000/svg"
   id="svg117"
   version="1.2"
   viewBox="0 0 343.15704 57.464839"
   height="76.619789"
   width="457.54272">
  <metadata
     id="metadata123">
    <rdf:RDF>
      <cc:Work
         rdf:about="">
        <dc:format>image/svg+xml</dc:format>
        <dc:type
           rdf:resource="http://purl.org/dc/dcmitype/StillImage" />
        <dc:title></dc:title>
      </cc:Work>
    </rdf:RDF>
  </metadata>
  <defs
     id="defs121" />
  <g
     transform="translate(-125.89766,-558.05469)"
     style="fill:#258bcd;fill-opacity:1"
     id="g3896">
    <path
       id="path90"
       d="m 173.10156,561.71094 -1.95703,7.38281 c -0.082,0.32031 -0.23047,0.60937 -0.42969,0.84766 l -27.625,33.05468 h 6.83594 l 1.85547,-7.17187 c 0.23828,-0.91406 0.95703,-1.51563 1.80859,-1.51563 h 9.08985 c 0.96484,0 1.71484,1.10938 1.44922,2.14453 l -4.10938,15.88282 c -0.23828,0.91406 -0.95703,1.51953 -1.80859,1.51953 h -29.3125 c -0.96485,0 -1.71485,-1.10938 -1.44531,-2.14453 l 1.89843,-7.37891 c 0.0859,-0.33203 0.23828,-0.62891 0.44141,-0.87109 L 157.48828,570.5 h -6.76562 l -1.79297,7.07422 c -0.23438,0.92187 -0.95313,1.53125 -1.8125,1.53125 h -9.22657 c -0.96484,0 -1.71484,-1.11328 -1.44531,-2.14844 l 4.10938,-15.88281 c 0.23437,-0.91406 0.95312,-1.51563 1.80468,-1.51563 h 29.29688 c 0.96875,0 1.71875,1.11719 1.44531,2.15235"
       style="fill:#258bcd;fill-opacity:1;fill-rule:nonzero;stroke:none" />
    <path
       id="path92"
       d="m 199.59375,608.67578 c -0.375,1.44922 -1.3125,2.67188 -2.8125,3.67578 -1.5,1 -3.09766,1.50391 -4.79297,1.50391 h -20.14453 c -1.69922,0 -3.03516,-0.54297 -4.01563,-1.62891 -0.98046,-1.08594 -1.28125,-2.35156 -0.90625,-3.80078 l 12.2461,-47.35156 c 0.23828,-0.91406 0.95703,-1.51563 1.80859,-1.51563 h 9.23828 c 0.96485,0 1.71485,1.10938 1.44532,2.14453 l -10.125,39.14844 c -0.26954,1.03125 0.48046,2.14453 1.44531,2.14453 h 4.14453 c 0.85547,0 1.57422,-0.60547 1.8125,-1.51953 l 10.44922,-40.40234 c 0.23437,-0.91406 0.95703,-1.51563 1.80859,-1.51563 h 9.08985 c 0.96484,0 1.71484,1.10938 1.44921,2.14453 z m 0,0"
       style="fill:#258bcd;fill-opacity:1;fill-rule:nonzero;stroke:none" />
    <path
       id="path94"
       d="m 225.21484,581.27734 h 6.14063 c 0.85547,0 1.57812,-0.60937 1.8125,-1.52734 l 1.80859,-7.10938 C 235.23828,571.60547 234.48828,570.5 233.52734,570.5 h -5.57031 z m 7.8086,10.85938 4.11328,19.90625 c 0.19922,0.95312 -0.37891,1.8125 -1.21875,1.8125 h -9.42188 c -1.02343,0 -1.95703,-0.86328 -2.19531,-2.02735 l -3.07422,-15.09765 -4.04687,15.60547 c -0.23828,0.91406 -0.95703,1.51953 -1.8086,1.51953 h -9.23828 c -0.96484,0 -1.71484,-1.11328 -1.44531,-2.14453 l 13.09766,-50.63672 c 0.23437,-0.91406 0.95703,-1.51563 1.80859,-1.51563 h 25.05469 c 1.74609,0 3.08593,0.54297 4.01562,1.62891 0.92969,1.08594 1.21094,2.35156 0.83594,3.80078 l -5.62109,21.71875 c -0.1875,0.72266 -0.53516,1.41797 -1.03907,2.08594 -0.50781,0.66797 -1.10547,1.2539 -1.79297,1.7539 -0.76953,0.5625 -1.625,0.98047 -2.5664,1.26172 -0.79297,0.23828 -1.63281,0.32813 -2.46875,0.32813 z m 0,0"
       style="fill:#258bcd;fill-opacity:1;fill-rule:nonzero;stroke:none" />
    <path
       id="path96"
       d="m 282.04297,581.27734 h 7.5625 l 5.22656,-20.20312 c 0.23438,-0.91406 0.95313,-1.51563 1.80859,-1.51563 h 9.08985 c 0.96484,0 1.71484,1.10938 1.44531,2.14453 l -13.09375,50.63282 c -0.23828,0.91406 -0.95703,1.51953 -1.80859,1.51953 h -9.09375 c -0.96485,0 -1.71485,-1.11328 -1.44532,-2.14453 l 5.0625,-19.57422 h -7.5625 l -5.22656,20.19922 c -0.23437,0.91406 -0.95703,1.51953 -1.80859,1.51953 h -9.23828 c -0.96485,0 -1.71094,-1.11328 -1.44532,-2.14453 l 13.09766,-50.63672 c 0.23828,-0.91406 0.95703,-1.51563 1.80859,-1.51563 h 9.23829 c 0.96484,0 1.71093,1.10938 1.44531,2.14453 z m 0,0"
       style="fill:#258bcd;fill-opacity:1;fill-rule:nonzero;stroke:none" />
    <path
       id="path98"
       d="m 377.96875,579.10547 h -9.10156 c -0.96094,0 -1.71094,-1.10547 -1.44922,-2.14063 l 1.09765,-4.32812 C 368.77734,571.60547 368.02734,570.5 367.06641,570.5 h -4.15625 c -0.85157,0 -1.57422,0.60547 -1.8086,1.51953 l -7.41797,28.83203 c -0.26562,1.03516 0.48438,2.14453 1.44532,2.14453 h 4.15234 c 0.85156,0 1.57031,-0.60547 1.80469,-1.51953 l 1.46484,-5.65234 c 0.23438,-0.91406 0.95313,-1.51563 1.80859,-1.51563 h 9.08985 c 0.96484,0 1.71484,1.10938 1.44922,2.14453 l -3.09766,11.97266 c -0.1875,0.72266 -0.52344,1.41797 -1.00781,2.08594 -0.48047,0.66797 -1.06641,1.2539 -1.75391,1.7539 -0.6914,0.50391 -1.46094,0.89454 -2.3125,1.17188 -0.85156,0.27734 -1.71094,0.41797 -2.58594,0.41797 h -20.14453 c -1.69922,0 -3.03515,-0.54297 -4.01562,-1.62891 -0.98047,-1.08594 -1.28125,-2.35156 -0.90625,-3.80078 l 11.23437,-43.4375 c 0.1875,-0.72266 0.53516,-1.42187 1.04297,-2.08984 0.50391,-0.66797 1.11719,-1.25391 1.82813,-1.75391 0.80078,-0.5625 1.67578,-0.98437 2.61718,-1.26953 0.76172,-0.22656 1.5625,-0.31641 2.36329,-0.31641 h 20.02734 c 1.74609,0 3.08203,0.54297 4.01172,1.62891 0.92969,1.08594 1.21094,2.35156 0.83594,3.80078 l -3.25782,12.59766 c -0.23828,0.91406 -0.95703,1.51953 -1.80859,1.51953"
       style="fill:#258bcd;fill-opacity:1;fill-rule:nonzero;stroke:none" />
    <path
       id="path100"
       d="m 256.42969,561.07422 -13.09766,50.63281 c -0.26562,1.03516 0.48438,2.14453 1.44922,2.14453 h 9.23437 c 0.85547,0 1.57422,-0.60156 1.8086,-1.51562 l 13.09765,-50.63672 c 0.26954,-1.03125 -0.48046,-2.14453 -1.44531,-2.14453 h -9.23437 c -0.85547,0 -1.57422,0.60547 -1.8125,1.51953"
       style="fill:#258bcd;fill-opacity:1;fill-rule:nonzero;stroke:none" />
    <path
       id="path102"
       d="m 323.80859,597.73047 h -7.58984 l 11.37891,-29.32031 z m 13.10547,-38.17578 h -15.41015 c -0.73829,0 -1.38282,0.44531 -1.69532,1.17968 -2.90625,6.84766 -17.62109,41.50391 -21.62109,50.92188 -0.44531,1.05078 0.3125,2.36328 1.37109,2.36328 h 9.10157 c 0.76171,0 1.42578,-0.48047 1.72265,-1.25391 l 1.65625,-4.25781 h 10.38672 l -0.46094,3.57031 c -0.1289,0.99219 0.60157,1.94141 1.48828,1.94141 h 9.15235 c 1.0039,0 1.79297,-0.81641 1.88281,-1.94531 0.66016,-8.51172 3.28125,-42.36719 3.92188,-50.67188 0.0742,-0.96484 -0.64063,-1.84765 -1.4961,-1.84765"
       style="fill:#258bcd;fill-opacity:1;fill-rule:nonzero;stroke:none" />
    <path
       id="path104"
       d="m 393.06641,559.55469 h 9.49218 c 0.6875,0 1.33203,0.34765 1.70703,0.92187 l 17.34766,26.38672 -17.12109,26.23047 c -0.37891,0.57812 -1.01953,0.92578 -1.71094,0.92578 h -9.70703 c -1.08594,0 -1.73438,-1.21094 -1.13281,-2.11328 l 16.625,-25.03125 -16.63672,-25.20703 c -0.59766,-0.90625 0.0508,-2.11328 1.13672,-2.11328"
       style="fill:#258bcd;fill-opacity:1;fill-rule:nonzero;stroke:none" />
    <path
       id="path106"
       d="m 456.43359,611.91016 -33.83593,-51.4336 c -0.37891,-0.57422 -1.01954,-0.92187 -1.70704,-0.92187 h -9.41015 c -1.08594,0 -1.73438,1.21093 -1.13672,2.11718 l 16.66406,25.11719 -16.66406,25.11719 c -0.59766,0.90625 0.0508,2.11328 1.13672,2.11328 h 9.34375 c 0.68359,0 1.32031,-0.33984 1.69922,-0.91016 l 11,-16.5 10.94531,16.4961 c 0.37891,0.57031 1.01953,0.91406 1.70312,0.91406 h 9.125 c 1.08594,0 1.73438,-1.20312 1.13672,-2.10937"
       style="fill:#258bcd;fill-opacity:1;fill-rule:nonzero;stroke:none" />
    <path
       id="path108"
       d="m 452.65625,598.02734 h 13.19531 c 0.94141,0 1.70313,-0.76172 1.70313,-1.70312 v -5.57031 c 0,-0.94141 -0.76172,-1.70313 -1.70313,-1.70313 h -19.1914 z m 0,0"
       style="fill:#258bcd;fill-opacity:1;fill-rule:nonzero;stroke:none" />
    <path
       id="path110"
       d="m 437.75781,575.77344 5.96094,8.90234 h 22.13672 c 0.9375,0 1.69922,-0.76172 1.69922,-1.70312 v -5.4961 c 0,-0.9414 -0.76172,-1.70312 -1.69922,-1.70312 z m 0,0"
       style="fill:#258bcd;fill-opacity:1;fill-rule:nonzero;stroke:none" />
  </g>
</svg>
