<?xml version="1.0" encoding="UTF-8" standalone="no"?>
<svg
   xmlns:dc="http://purl.org/dc/elements/1.1/"
   xmlns:cc="http://creativecommons.org/ns#"
   xmlns:rdf="http://www.w3.org/1999/02/22-rdf-syntax-ns#"
   xmlns:svg="http://www.w3.org/2000/svg"
   xmlns="http://www.w3.org/2000/svg"
   xmlns:sodipodi="http://sodipodi.sourceforge.net/DTD/sodipodi-0.dtd"
   xmlns:inkscape="http://www.inkscape.org/namespaces/inkscape"
   width="170"
   height="170"
   viewBox="0 0 170 170"
   version="1.1"
   id="svg981"
   sodipodi:docname="avatar.svg"
   inkscape:version="0.92.2 2405546, 2018-03-11"
   inkscape:export-filename="/home/jasper/Documents/Projects/zfoh.ch/images/avatar.png"
   inkscape:export-xdpi="564.71002"
   inkscape:export-ydpi="564.71002">
  <metadata
     id="metadata985">
    <rdf:RDF>
      <cc:Work
         rdf:about="">
        <dc:format>image/svg+xml</dc:format>
        <dc:type
           rdf:resource="http://purl.org/dc/dcmitype/StillImage" />
        <dc:title>zurihac-2018-back</dc:title>
      </cc:Work>
    </rdf:RDF>
  </metadata>
  <sodipodi:namedview
     pagecolor="#ffffff"
     bordercolor="#666666"
     borderopacity="1"
     objecttolerance="10"
     gridtolerance="10"
     guidetolerance="10"
     inkscape:pageopacity="1"
     inkscape:pageshadow="2"
     inkscape:window-width="1832"
     inkscape:window-height="973"
     id="namedview983"
     showgrid="false"
     showguides="true"
     inkscape:guide-bbox="true"
     fit-margin-top="10"
     fit-margin-left="10"
     fit-margin-right="10"
     fit-margin-bottom="10"
     inkscape:zoom="3.7217706"
     inkscape:cx="81.412382"
     inkscape:cy="95.702856"
     inkscape:window-x="760"
     inkscape:window-y="257"
     inkscape:window-maximized="0"
     inkscape:current-layer="svg981">
    <sodipodi:guide
       position="3.7812508,55.015229"
       orientation="0,1"
       id="guide4694"
       inkscape:locked="false" />
    <sodipodi:guide
       position="-11.988089,37.155979"
       orientation="0,1"
       id="guide4696"
       inkscape:locked="false" />
  </sodipodi:namedview>
  <!-- Generator: Sketch 43.2 (39069) - http://www.bohemiancoding.com/sketch -->
  <title
     id="title815">zurihac-2018-back</title>
  <desc
     id="desc817">Created with Sketch.</desc>
  <text
     xml:space="preserve"
     style="font-style:normal;font-variant:normal;font-weight:bold;font-stretch:condensed;font-size:21.82873344px;line-height:13.64274883px;font-family:'Helvetica Neue';-inkscape-font-specification:'Helvetica Neue, Bold Condensed';font-variant-ligatures:normal;font-variant-caps:normal;font-variant-numeric:normal;font-feature-settings:normal;text-align:start;letter-spacing:0px;word-spacing:0px;writing-mode:lr-tb;text-anchor:start;fill:#ff5252;fill-opacity:1;stroke:none;stroke-width:0.54570997px;stroke-linecap:butt;stroke-linejoin:miter;stroke-opacity:1"
     x="18.382303"
     y="92.43145"
     id="text4692"><tspan
       sodipodi:role="line"
       id="tspan4690"
       x="18.382303"
       y="92.43145"
       style="font-style:normal;font-variant:normal;font-weight:bold;font-stretch:condensed;font-size:21.82873344px;font-family:'Helvetica Neue';-inkscape-font-specification:'Helvetica Neue, Bold Condensed';font-variant-ligatures:normal;font-variant-caps:normal;font-variant-numeric:normal;font-feature-settings:normal;text-align:start;writing-mode:lr-tb;text-anchor:start;fill:#ff5252;stroke-width:0.54570997px">ZURIHAC</tspan></text>
  <defs
     id="defs819">
    <clipPath
       id="clip1">
      <path
         id="path4758"
         d="M 0,340.15625 H 481.89062 V 0 H 0 Z m 0,0"
         inkscape:connector-curvature="0" />
    </clipPath>
  </defs>
  <path
     d="M 20.335625,73.707719 38.473497,62.24563 54.784402,45.603089 l 6.393849,6.921768 2.315204,3.659403 3.78764,-0.205491 c 0,0 2.681846,-2.551352 3.751654,-2.943937 1.069807,-0.392584 9.439701,-2.795388 9.439701,-2.795388 l 10.499755,-8.721837 5.218102,6.255472 4.646053,4.239328 7.92099,4.794089 4.89376,1.004221 c 0,0 1.8719,-1.397398 2.3438,-1.821318 0.47189,-0.42392 4.93834,-5.37524 4.93834,-5.37524 l 3.94013,3.921615 3.1872,3.926342 c 0,0 4.24779,1.851787 5.15465,2.337004 1.28041,0.83653 1.60164,1.441259 3.28066,3.038218 0.92659,0.881551 5.95144,3.318581 5.95144,3.318581 l 7.21705,4.547816 -4.97249,-0.217023 -2.61087,-0.849701 -2.29149,-2.483428 c 0,0 -3.66934,-1.316404 -4.46428,-1.745321 -0.79493,-0.428917 -3.28177,-3.02773 -3.28177,-3.02773 l -3.46647,-1.272444 -4.07747,-4.019801 -2.3904,-2.944756 -1.0798,-0.834436 0.92131,2.441084 -1.23395,3.524534 1.63744,3.076816 -0.1764,1.676522 2.23102,2.020357 1.24371,2.009336 -1.78594,-0.24315 -1.94321,-1.368968 -2.47666,-2.704278 c 0,0 -1.90713,-1.043938 -2.33993,-1.365724 -0.43281,-0.321782 -1.12549,-1.404935 -1.5583,-1.726717 -0.43281,-0.321783 -1.17239,-0.510093 -1.59738,-0.981016 -0.425,-0.470924 -1.36274,-0.583769 -1.36274,-0.583769 l -2.61803,-0.781696 c 0,0 -2.22541,-0.152816 -2.66603,-0.325458 -0.44063,-0.172642 -3.39349,-1.966121 -3.39349,-1.966121 l -3.37024,-2.187022 -3.438867,-1.534864 -2.333196,-3.488411 -1.71721,-2.191979 -1.4948,-0.07834 -1.738074,1.703513 -0.565681,2.213605 c 0,0 -2.265642,0.329913 -2.289094,0.777335 -0.02348,0.447421 -0.891296,3.62545 -0.891296,3.62545 l -2.379674,1.586928 -0.108458,4.929469 -0.04589,3.736347 1.243712,2.009327 -0.10161,1.938831 -1.542668,-2.024999 -1.723412,-1.436274 -1.841624,-2.040662 -2.360413,-0.721911 -4.391073,-2.194362 -3.60268,0.279929 -5.005234,-1.7415 -4.418969,-3.047938 -1.459089,-3.24146 -2.475305,-2.137967 -0.778174,-1.692259 -0.751597,1.360102 0.292117,3.006311 -1.305264,2.025295 -2.375071,2.41788 -0.187588,3.579371 -0.550048,1.915326 -4.586003,1.703806 -1.871919,1.397398 -0.71516,2.205769 c 0,0 -3.170341,0.432053 -3.768261,0.400717 -0.597919,-0.03136 -4.201065,0.07894 -4.649504,0.05546 -0.44844,-0.02348 -3.350296,1.527846 -3.350296,1.527846 l -4.54476,0.420837 -1.748839,1.882857 z"
     id="path964"
     inkscape:connector-curvature="0"
     style="fill:#ff5252;fill-rule:nonzero;stroke:none;stroke-width:0.88595432" />
  <g
     id="surface0"
     transform="matrix(0.04651533,0,0,0.04651533,98.54276,76.778614)"
     style="fill:#ff5252">
    <g
       id="g4771"
       clip-path="url(#clip1)"
       style="clip-rule:nonzero;fill:#ff5252">
      <path
         id="path4763"
         d="M 0,340.15625 113.38672,170.07812 0,0 H 85.039062 L 198.42578,170.07812 85.039062,340.15625 Z m 0,0"
         style="fill:#ff5252;fill-opacity:1;fill-rule:nonzero;stroke:none"
         inkscape:connector-curvature="0" />
      <path
         id="path4765"
         d="M 113.38672,340.15625 226.77344,170.07812 113.38672,0 h 85.03906 L 425.19531,340.15625 H 340.15625 L 269.29297,233.85937 198.42578,340.15625 Z m 0,0"
         style="fill:#ff5252;fill-opacity:1;fill-rule:nonzero;stroke:none"
         inkscape:connector-curvature="0" />
      <path
         id="path4767"
         d="m 387.40234,240.94531 -37.79297,-56.6914 132.28125,-0.004 v 56.69531 z m 0,0"
         style="fill:#ff5252;fill-opacity:1;fill-rule:nonzero;stroke:none"
         inkscape:connector-curvature="0" />
      <path
         id="path4769"
         d="m 330.71094,155.90625 -37.79688,-56.691406 188.97656,-0.0039 v 56.695316 z m 0,0"
         style="fill:#ff5252;fill-opacity:1;fill-rule:nonzero;stroke:none"
         inkscape:connector-curvature="0" />
    </g>
  </g>
  <text
     id="text5328"
     y="92.43145"
     x="124.76324"
     style="font-style:normal;font-variant:normal;font-weight:bold;font-stretch:condensed;font-size:21.82873344px;line-height:13.64274883px;font-family:'Helvetica Neue';-inkscape-font-specification:'Helvetica Neue, Bold Condensed';font-variant-ligatures:normal;font-variant-caps:normal;font-variant-numeric:normal;font-feature-settings:normal;text-align:start;letter-spacing:0px;word-spacing:0px;writing-mode:lr-tb;text-anchor:start;fill:#ff5252;fill-opacity:1;stroke:none;stroke-width:0.54570997px;stroke-linecap:butt;stroke-linejoin:miter;stroke-opacity:1"
     xml:space="preserve"><tspan
       style="font-style:normal;font-variant:normal;font-weight:bold;font-stretch:condensed;font-size:21.82873344px;font-family:'Helvetica Neue';-inkscape-font-specification:'Helvetica Neue, Bold Condensed';font-variant-ligatures:normal;font-variant-caps:normal;font-variant-numeric:normal;font-feature-settings:normal;text-align:start;writing-mode:lr-tb;text-anchor:start;fill:#ff5252;stroke-width:0.54570997px"
       y="92.43145"
       x="124.76324"
       id="tspan5326"
       sodipodi:role="line">'19</tspan></text>
  <text
     xml:space="preserve"
     style="font-style:normal;font-variant:normal;font-weight:bold;font-stretch:condensed;font-size:26.22379684px;line-height:16.38962173px;font-family:'Helvetica Neue';-inkscape-font-specification:'Helvetica Neue, Bold Condensed';font-variant-ligatures:normal;font-variant-caps:normal;font-variant-numeric:normal;font-feature-settings:normal;text-align:start;letter-spacing:0px;word-spacing:0px;writing-mode:lr-tb;text-anchor:start;fill:#ff5252;fill-opacity:1;stroke:none;stroke-width:0.65558493px;stroke-linecap:butt;stroke-linejoin:miter;stroke-opacity:1"
     x="18.313705"
     y="116.3716"
     id="text5336"><tspan
       sodipodi:role="line"
       id="tspan5334"
       x="18.313705"
       y="116.3716"
       style="font-style:normal;font-variant:normal;font-weight:bold;font-stretch:condensed;font-size:26.22379684px;font-family:'Helvetica Neue';-inkscape-font-specification:'Helvetica Neue, Bold Condensed';font-variant-ligatures:normal;font-variant-caps:normal;font-variant-numeric:normal;font-feature-settings:normal;text-align:start;writing-mode:lr-tb;text-anchor:start;fill:#ff5252;stroke-width:0.65558493px">14 - 16 JUNE</tspan></text>
</svg>
